
<svg width="33px" height="83px" viewBox="0 0 33 83" version="1.1" xmlns="http://www.w3.org/2000/svg" xmlns:xlink="http://www.w3.org/1999/xlink">
    <!-- Generator: Sketch 49 (51002) - http://www.bohemiancoding.com/sketch -->
    <desc>Created with Sketch.</desc>
    <defs></defs>
    <g id="Design-mocks" stroke="none" stroke-width="1" fill="none" fill-rule="evenodd">
        <g id="settings" transform="translate(-20.000000, -440.000000)">
            <g id="Group-5" transform="translate(26.893593, 480.871791) rotate(7.000000) translate(-26.893593, -480.871791) translate(4.893593, 439.371791)">
                <path d="M40.3183249,9.73447708 C39.8102384,8.11576299 39.7652923,6.53258954 38.9510512,5.64019666 C36.1546215,2.57465589 32.3237798,1.93427838 28.366568,2.08031805 C27.6611095,2.10681198 26.4195546,2.89646013 26.4195546,3.33457915 C26.4189032,4.10613389 26.9953859,5.15232076 27.6611095,5.60465603 C31.3460391,8.10930106 35.3677389,9.74933953 40.3183249,9.73447708 M28.6662087,79.4115565 C32.2078319,76.758287 31.9837527,72.7396112 32.7041933,69.1506539 C34.7730171,58.8432254 36.750646,48.5164111 38.566078,38.1624567 C39.0819812,35.2190464 39.3067117,32.1115031 38.9373719,29.1680928 C38.6768148,27.0983359 37.4196265,25.0234093 36.1956592,23.2263459 C33.688448,19.5462754 34.202397,14.7844773 38.0332386,11.8171579 C32.3876163,10.8872858 27.4155343,9.08634525 23.7866245,4.61081082 C23.6596029,4.91969119 23.3788526,5.29060611 23.467442,5.42824527 C26.0932068,9.49990893 22.9059413,13.3602674 22.9815029,17.3421102 C23.0003933,18.354695 22.2265385,19.7291481 21.3790764,20.3533707 C15.6832969,24.5503959 12.6745131,30.5826099 10.5894044,36.8952717 C7.29596189,46.8673259 4.60245225,57.0416386 1.88418969,67.1901036 C0.728618685,71.5053821 1.65164242,73.1589906 5.89742134,74.4972568 C12.6784214,76.6342179 19.5766722,78.4054336 26.4156462,80.3646915 C27.0299098,80.5404561 27.5731714,80.9578969 28.1496541,81.2622539 C28.0727898,81.6538471 27.9959254,82.0454402 27.9190611,82.4370333 C25.5082559,82.1598164 22.9886682,82.2341286 20.7074903,81.5388247 C14.6084986,79.6803729 8.56878361,77.6028616 2.61114416,75.3379542 C1.45361898,74.8978966 0.035536641,73.2313643 0.0133892824,72.1050494 C-0.0563097577,68.6136673 0.133896969,65.0350491 0.873227909,61.6289645 C2.19164714,55.5534556 3.59539883,49.442406 5.67203939,43.5943571 C8.85669927,34.6264872 11.7580032,25.3749385 19.6867576,18.9937801 C20.2945072,18.5039657 20.8807608,17.5430763 20.8664301,16.8122317 C20.7973825,13.3072796 23.467442,10.0588661 21.5080522,6.25020309 C21.0077824,5.27832844 22.2890722,2.52296043 23.5110853,1.71392648 C28.9515188,-1.89053946 38.4234229,0.49391363 42.0054325,6.03308216 C44.4631379,9.83399084 43.7641933,11.9457504 39.5119005,13.5638183 C36.896558,14.5583097 35.4250614,19.3168768 37.6033193,21.5016561 C41.8640802,25.7749321 41.6634512,30.8481953 40.822503,35.9376133 C38.8820035,47.6854066 36.6633593,59.3892587 34.4082371,71.0827717 C33.846085,73.9951647 32.8038564,76.8300145 31.8209045,79.6448322 C31.0144801,81.9517421 29.9142775,81.6493237 28.6662087,79.4115565" id="Fill-1" fill="#174EA6"></path>
                <path d="M24.07548,48.284584 C25.9834098,44.5999901 23.8683371,43.0530034 21.8157981,41.5887295 C21.3194367,41.2346156 20.1729852,41.1247628 19.7873606,41.446567 C19.3782859,41.7877571 19.1717943,43.061404 19.4818573,43.436196 C20.8966827,45.1466696 22.5245136,46.6839633 24.07548,48.284584 M20.5963906,71.8712837 C21.0764671,71.9675665 21.5558923,72.0644955 22.0359689,72.1607783 C24.0311853,65.725986 26.0843757,59.309287 27.949965,52.8376616 C28.1916318,51.9982566 27.4633745,50.882927 27.183927,49.8955438 C26.8230553,49.9136372 26.4615322,49.9310844 26.1006606,49.9485316 C25.018697,57.436619 21.2764448,64.2862674 20.5963906,71.8712837 M24.3308261,50.2826135 C21.8529275,48.6374055 19.8355637,47.2991393 17.6553516,45.8516664 C15.3657056,52.8861261 13.2076409,59.7997477 10.8398277,66.6409956 C9.97608076,69.1353015 10.2047197,70.6771186 12.9848646,71.5165237 C15.8197264,72.3727297 17.7921441,71.7291212 18.6597995,69.0073553 C20.6367769,62.8045463 22.4450436,56.5481032 24.3308261,50.2826135 M23.440372,74.0922499 C20.1853617,74.0922499 17.9269825,74.1575155 15.6757686,74.0638174 C14.612044,74.0192301 13.5287776,73.7697995 12.5099991,73.4428257 C7.65516786,71.8842076 7.24544173,70.9556279 8.82702368,66.2332477 C11.4866609,58.2947636 13.9821471,50.3007069 16.7727143,42.4081026 C17.2482311,41.0633744 18.7047456,39.386503 19.9612825,39.1422419 C21.9571503,38.7525874 24.2845772,39.0427281 25.3945507,41.5538351 C26.7800634,44.68658 28.3622967,47.732735 29.7986181,50.8441554 C30.0051096,51.2919674 30.0122749,51.9355758 29.8702713,52.4189284 C27.6802883,59.8869838 25.4499191,67.3427615 23.440372,74.0922499" id="Fill-4" fill="#FBBC04"></path>
                <path d="M24.9369131,50.4303009 C23.0504792,56.6957906 21.242864,62.9522337 19.2652351,69.1556889 C18.3982312,71.8768086 16.4258135,72.5210633 13.5909516,71.6642111 C10.8108067,70.8254522 10.5821678,69.2829889 11.4459148,66.788683 C13.8137279,59.9480813 15.9717926,53.0338135 18.2614387,46 C20.4416507,47.4468267 22.4590145,48.7850929 24.9369131,50.4303009" id="Fill-8" fill="#FBBC04" opacity="0.2"></path>
                <path d="M21,71.97574 C21.6800542,64.3907236 25.4223064,57.5410752 26.50427,50.0529878 C26.8651417,50.0355406 27.2266647,50.0180934 27.5875364,50 C27.8669839,50.9880295 28.5952412,52.1027128 28.3535744,52.9421179 C26.4879852,59.4137432 24.4341434,65.8304422 22.4389269,72.2652346 C21.9595017,72.1689518 21.4794252,72.0720228 21,71.97574" id="Fill-10" fill="#FBBC04" opacity="0.2"></path>
                <path d="M24.7431301,48.0290679 C23.1921636,46.4284472 21.5643327,44.8911535 20.1495073,43.18068 C19.8394443,42.8058879 20.0459359,41.532241 20.4550106,41.191051 C20.8406352,40.8692467 21.9870867,40.9790996 22.4834481,41.3332135 C24.5359871,42.7974874 26.6510599,44.344474 24.7431301,48.0290679" id="Fill-12" fill="#FBBC04" opacity="0.2"></path>
            </g>
        </g>
    </g>
</svg>