
<svg width="135px" height="92px" viewBox="0 0 135 92" version="1.1" xmlns="http://www.w3.org/2000/svg" xmlns:xlink="http://www.w3.org/1999/xlink">
    <!-- Generator: Sketch 49 (51002) - http://www.bohemiancoding.com/sketch -->
    <desc>Created with Sketch.</desc>
    <defs>
        <polygon id="path-1" points="8.39193018e-05 0.125994778 102.934931 0.125994778 102.934931 115.999909 8.39193018e-05 115.999909"></polygon>
        <polygon id="path-3" points="0 0.126827645 102.934931 0.126827645 102.934931 116.695312 0 116.695312"></polygon>
        <polygon id="path-5" points="0 0.0412582768 35.7546857 0.0412582768 35.7546857 68.9999747 0 68.9999747"></polygon>
        <polygon id="path-7" points="0 0.0416921923 35.7546857 0.0416921923 35.7546857 69.7445255 0 69.7445255"></polygon>
    </defs>
    <g id="Design-mocks" stroke="none" stroke-width="1" fill="none" fill-rule="evenodd">
        <g id="settings" transform="translate(-220.000000, -457.000000)">
            <g id="Page-1" transform="translate(326.661008, 515.800000) rotate(-11.000000) translate(-326.661008, -515.800000) translate(272.161008, 457.300000)">
                <g id="Group-3">
                    <mask id="mask-2" fill="white">
                        <use xlink:href="#path-1"></use>
                    </mask>
                    <g id="Clip-2"></g>
                    <path d="M31.9839671,67.5110005 C31.6823683,66.6896115 31.4714341,66.3282851 31.4220928,65.9463634 C31.0674521,63.191742 29.4046497,61.4129744 27.0504521,60.0915436 C25.9834461,59.4924627 25.0656976,58.5584052 23.9397904,58.1531624 C20.931512,57.0700919 20.3511347,54.8373191 20.608018,52.1038987 C20.6928234,51.2022486 20.8066168,50.3009013 20.9617335,49.4086402 C21.6019371,45.7293504 21.2981796,42.2863008 19.2853623,38.9329013 C17.3049251,35.6331102 14.9331497,33.1568282 10.8788353,32.6513347 C7.85575449,32.274259 4.84069162,32.0970789 2.64592814,34.651199 C0.255958084,37.4321702 -0.924532934,40.6008178 0.864398204,44.1341232 C1.67112874,45.7269274 2.62033234,47.3663739 3.89642216,48.5914914 C7.25471557,51.8155645 8.29828443,55.2316585 6.6801976,59.7835227 C5.39917365,63.3870945 6.33018263,67.1396794 8.05157784,70.5996898 C10.0998593,74.7172355 13.3088952,77.668118 17.2651437,80.0502068 C20.6286796,82.0755123 22.6695599,85.0748543 23.1453952,89.10487 C23.4358922,91.5654026 23.918512,94.1107394 24.9170569,96.3598674 C26.6692904,100.305685 30.3498443,101.909392 34.4374641,102.705643 C37.3526108,103.273225 40.2841018,103.766301 43.1847545,104.396578 C45.3782844,104.872995 47.2911856,106.020275 48.2262036,108.034677 C49.2688473,110.280473 50.9180808,112.368473 50.6991287,115.074938 C50.6753832,115.370541 51.0821407,115.699157 51.2804311,115.999909 C53.3873054,114.899878 53.4477485,114.859596 53.6068743,113.468202 C53.6750269,112.869726 53.6077994,112.257622 53.6398713,111.653695 C53.9596647,105.645319 56.1408593,100.68064 61.8058593,97.6882642 C63.2515599,96.9247238 64.6765988,96.1112094 66.1700988,95.4497368 C73.397985,92.2492877 78.2528623,84.2755749 73.5046856,75.4517003 C71.609979,71.9305097 72.2659102,66.5100084 77.3958653,64.6948961 C81.2648413,63.3259144 84.690979,60.6088491 87.5281048,57.4832094 C90.4222814,54.2954809 90.901509,49.7030319 88.8405838,45.9537786 C88.2068563,44.8010475 87.4812305,43.6864783 86.9579042,42.487105 C85.8551257,39.9623634 85.3786737,37.2913347 87.4417575,35.0976324 C88.9398832,33.5051311 90.8598772,32.2645671 92.6962994,31.0152198 C95.9784222,28.7830527 99.3456587,26.7786454 101.513284,23.2177786 C104.111722,18.9500084 103.369443,11.3203582 97.4401587,8.25923029 C91.9836257,5.44191436 84.2299461,6.56435822 82.5356886,14.0174339 C82.2001677,15.4930266 81.9250898,17.0037525 81.3743174,18.4045358 C80.6776796,20.1763373 79.9391018,21.99993 78.832006,23.531554 C77.456,25.435105 75.5825719,26.6980815 73.0066467,27.0818204 C68.3392665,27.7775175 64.7589371,30.1502172 63.4048263,34.8308021 C61.5187545,41.3489117 61.8169611,47.8376428 64.8970928,53.9347603 C66.0652485,56.2468856 65.8623323,58.2107081 64.8563862,60.2308648 C63.8029491,62.3461232 62.2212515,64.1288282 59.9191707,65.0253295 C58.1203713,65.7258726 56.2614371,66.3134444 54.3843084,66.7753243 C50.9335,67.6245775 50.2424132,68.3296637 49.9275539,71.8817473 C49.8082096,73.2295279 49.744991,74.5818517 49.656485,75.9323582 C49.4137874,75.9759718 49.1707814,76.0198883 48.9280838,76.0638047 C47.7071946,73.1138308 45.8007695,70.4891415 45.6931437,67.031554 C45.5639311,62.8743321 46.7663174,59.1505201 48.5028234,55.4257995 C49.4107036,53.478635 50.058,51.1528804 49.9272455,49.0521598 C49.6126946,44.0029796 48.1003832,39.3236063 43.3861287,36.3551572 C43.3003982,36.301246 43.2251527,36.2291624 43.150524,36.1601076 C40.1397784,33.3630841 39.7293204,29.9124627 41.9419701,26.4403373 C43.4107994,24.1354809 44.7094012,21.7191676 46.2756796,19.4821546 C50.8881677,12.8949901 45.8732395,3.34906841 40.8311737,0.920337337 C38.0643593,-0.412299739 35.9630359,-0.128508616 33.9825988,2.23116762 C31.7363353,4.90825379 30.6397246,7.98876554 31.7409611,11.448776 C32.9945389,15.3870214 33.1437964,19.1871572 30.7646198,22.7828543 C29.3161437,24.9720136 27.7902635,27.1115018 26.3087904,29.2794601 C24.2614341,32.2757734 23.2977365,35.612212 24.4649671,39.0473869 C25.5921078,42.3650475 27.1824401,45.5564104 28.8332156,48.668118 C30.0109311,50.8878674 31.6894611,52.8450266 33.030003,54.9884522 C35.6944341,59.2492564 34.2169701,63.1884104 31.9839671,67.5110005" id="Fill-1" fill="#FFFFFF" mask="url(#mask-2)"></path>
                </g>
                <g id="Group-6">
                    <mask id="mask-4" fill="white">
                        <use xlink:href="#path-3"></use>
                    </mask>
                    <g id="Clip-5"></g>
                    <path d="M48.9412518,105.559594 C47.7542847,103.261031 46.6755602,101.464289 45.8722219,99.5545078 C44.2430332,95.6807109 41.4879374,92.8574766 38.174668,90.3081563 C33.0505722,86.3651953 30.1826081,81.3543047 30.868144,74.5448438 C31.2764434,70.487625 30.0678895,66.7210781 25.8405722,64.7183672 C24.9209734,64.2823594 24.0275871,63.7930313 23.1212488,63.3296016 C20.3532009,61.9143281 18.1417847,59.8707891 17.6119823,56.7961875 C17.047641,53.5217109 16.7956919,50.1667969 18.1100213,46.902375 C18.468671,46.0120781 18.4264225,44.9206875 18.3931171,43.9274063 C18.2666799,40.1815781 15.7215931,37.8930703 13.0192308,35.8684219 C10.2280542,33.7773516 7.39247036,33.9431016 5.17982066,35.9552578 C2.68900928,38.2206094 2.00470689,41.7037969 3.72147635,44.5011328 C5.04690748,46.6604531 6.56816198,48.7116094 8.11809611,50.7240703 C9.48330868,52.4970469 10.2921979,54.4308984 10.0889734,56.6359219 C9.84781766,59.2483125 9.49070988,61.8567422 9.04047036,64.442625 C8.36850329,68.3017969 9.79230868,71.3989453 13.0883087,73.4997656 C16.1850931,75.4732266 19.208174,77.5700859 22.1526171,79.7586563 C22.9775422,80.3716875 23.5955422,81.4286484 23.9847219,82.4073047 C24.986659,84.9288984 25.8485901,87.5074688 26.6852338,90.0890859 C27.1771051,91.6067344 27.5089254,93.1746563 27.9215422,94.7175938 C28.4948266,96.8604609 29.4070243,98.5316719 31.8944434,99.2242266 C35.8093686,100.314398 39.6394883,101.716875 43.4696081,103.084922 C45.0704254,103.65682 46.5793446,104.480086 48.9412518,105.559594 M50.0844284,100.594711 C51.1995422,98.7607969 52.2273835,97.0307813 53.2950063,95.3251406 C54.7965243,92.9257266 54.6299973,90.2737266 54.4523686,87.6461016 C54.4088865,87.0074766 54.055171,86.1123047 53.5555901,85.8249844 C49.6255542,83.5654219 47.7413326,79.6276406 45.5422518,76.0722422 C42.2373087,70.7298516 41.918132,64.9919766 44.717635,59.2373438 C45.0722757,58.5082266 45.5727817,57.8476641 45.9187877,57.1151953 C48.4712757,51.7130859 49.7035751,48.2387344 44.1169045,42.5605781 C42.4815482,40.8982031 40.9723207,39.0661172 39.6832787,37.1313516 C37.9066829,34.4647266 37.3050272,31.497375 38.7834165,28.4760938 C39.6700183,26.6638125 40.6725722,24.8774297 41.8505961,23.2394297 C44.3821141,19.7196797 45.6585123,15.9025547 45.4284584,11.5616719 C45.218141,7.58732813 42.8173775,4.33357031 39.2157698,3.39025781 C35.941665,2.5325625 34.2307548,3.62517187 33.9683207,6.93346875 C33.8758057,8.09707031 34.1733955,9.30424219 34.3864883,10.4751563 C34.8197668,12.8578125 35.5324404,15.2136563 35.7060602,17.6109375 C35.8090602,19.0338281 35.3933596,20.6684766 34.7013476,21.9365859 C33.197671,24.6927891 31.4812099,27.3554531 29.640162,29.9069063 C27.5573416,32.7932109 26.3197997,35.8976719 27.4891889,39.312 C28.5635961,42.4487578 30.176132,45.4091016 31.6054883,48.4224609 C33.1659075,51.7118672 35.0562967,54.8772656 36.298156,58.2769688 C37.2738805,60.9481641 37.0210063,63.8122266 35.7483087,66.5498438 C34.7688835,68.6573672 34.1218955,70.9175391 33.3534045,73.1186016 C31.7769494,77.6313281 33.4138476,81.5398594 36.1035662,84.99075 C37.8989734,87.2947969 40.1224165,89.3477813 42.433132,91.1670703 C45.5320751,93.6067031 48.3750602,96.1148906 49.3757638,100.094414 C49.3939584,100.16693 49.5314973,100.210195 50.0844284,100.594711 M51.6550243,108.184477 C52.0204584,107.546766 52.3461111,107.145797 52.4972189,106.688461 C53.6151081,103.308258 55.548671,100.501172 58.4767698,98.4192422 C61.8779284,96.0009375 65.2454734,93.5247422 68.7638177,91.2828516 C72.1307458,89.1369375 73.8802039,85.9797656 73.1083207,82.0535625 C72.7866769,80.4155625 71.9491081,78.8576953 71.2244075,77.3196328 C69.8147877,74.329125 69.4490452,71.4924844 71.0905692,68.3380547 C73.0623716,64.5495703 76.3525123,62.5371094 79.9257488,60.6669375 C81.727632,59.7239297 83.4672219,58.6340625 85.1195392,57.4530938 C86.6007039,56.3943047 87.2412159,54.9101719 87.2674284,52.9918594 C87.3176949,49.3331719 86.1961051,46.0187813 84.7448536,42.7592344 C82.8708087,38.5505859 83.6571859,35.0457656 87.3284883,32.2304531 C88.6924674,31.1841563 90.2747817,30.4059844 91.7932608,29.5680938 C97.0521201,26.6659453 100.688884,22.8430313 100.221991,16.3144922 C100.090003,14.4683906 99.3640692,13.2788906 97.9532159,12.2846953 C95.6462009,10.6591875 93.0397458,10.4385937 90.3157967,10.5226875 C88.8155123,10.569 87.6254614,11.1317578 87.0389165,12.39225 C85.7634434,15.1326094 83.3984524,17.2980234 82.8279434,20.4158906 C82.6496979,21.3905859 82.0905991,22.2988594 81.6943266,23.2333359 C80.2535602,26.632125 77.5841949,28.5312422 73.9721021,28.962375 C70.7593656,29.3459766 68.7795452,31.0991484 67.4467129,33.8233594 C66.0142728,36.7520156 65.5856201,39.8476406 66.201153,43.0127344 C66.9138266,46.6787344 67.7594135,50.3221875 68.661126,53.9476641 C69.3525213,56.7273281 69.2519883,59.2519688 67.5022219,61.7199375 C64.9124195,65.3725313 61.8961231,68.3797969 57.5642638,70.0068281 C56.3032847,70.4806172 54.9726111,71.3770078 54.2244734,72.4531641 C52.7541021,74.5686094 52.2332428,77.0959922 52.3750991,79.6806563 C52.4663805,81.3439453 52.9505422,82.8920625 54.4813566,83.8765078 C55.6183656,84.6080625 55.9307578,85.6961016 56.1660542,86.9572031 C57.1834105,92.4077578 55.2714344,96.9338906 51.6849374,100.872891 C50.211174,102.492 49.5934823,104.022445 50.7452937,106.019977 C51.0928416,106.622344 51.292674,107.307586 51.6550243,108.184477 M31.9838746,67.9157578 C34.2168775,63.5672578 35.6943416,59.6044922 33.0299105,55.3181484 C31.6893686,53.161875 30.0108386,51.1926797 28.8331231,48.959625 C27.1823476,45.8292656 25.5920153,42.6190781 24.4648746,39.2815313 C23.297644,35.8257656 24.2613416,32.4690234 26.3086979,29.4550547 C27.790171,27.2741016 29.3160512,25.1217891 30.7645272,22.9195078 C33.1437039,19.3019531 32.9947548,15.4793438 31.7408686,11.5174922 C30.639632,8.0364375 31.7362428,4.93746094 33.9825063,2.24463281 C35.9629434,-0.1291875 38.0642668,-0.414679688 40.8313895,0.925945312 C45.873147,3.36892969 50.8880751,12.972375 46.2755871,19.5990234 C44.7093087,21.8494453 43.4107069,24.2799375 41.9418775,26.5989141 C39.7292278,30.0918516 40.1396859,33.5631563 43.1507398,36.3766406 C43.2250602,36.4464141 43.3003057,36.518625 43.3860362,36.5731641 C48.1002907,39.5591016 49.6126021,44.2665234 49.927153,49.3459688 C50.0582159,51.4595859 49.4106111,53.7992813 48.5027308,55.7581172 C46.7662249,59.5051641 45.5638386,63.2512969 45.6930512,67.4334375 C45.8006769,70.91175 47.7071021,73.5521719 48.9282997,76.5195234 C49.1709973,76.4756484 49.4136949,76.4314688 49.6563925,76.3872891 C49.7448985,75.0289922 49.8084254,73.6685625 49.9274614,72.3123984 C50.2423207,68.7390234 50.9334075,68.0300156 54.3842159,67.1756719 C56.2613446,66.7110234 58.1205871,66.1199297 59.9193865,65.4151875 C62.221159,64.5133125 63.8028566,62.7196172 64.8562937,60.5919844 C65.8625482,58.5597188 66.065156,56.584125 64.8970003,54.2578359 C61.8168686,48.1244766 61.518662,41.5968516 63.4047338,35.0396719 C64.7588446,30.3310313 68.339174,27.9438047 73.0068626,27.2442422 C75.5827877,26.8578984 77.4559075,25.5876563 78.8319135,23.6726953 C79.9393177,22.1318906 80.6775871,20.2973672 81.3742249,18.5146406 C81.9253057,17.1057656 82.2003835,15.5859844 82.5355961,14.1015469 C84.2298536,6.60379687 91.9838416,5.474625 97.4403746,8.30852344 C103.369351,11.3883047 104.111629,19.0633828 101.5135,23.3570391 C99.3455662,26.93925 95.9783296,28.9556719 92.6962069,31.2012188 C90.8597847,32.4580547 88.9400991,33.70575 87.441665,35.3081016 C85.3785811,37.5149531 85.8553416,40.2019922 86.9578117,42.7418672 C87.4814464,43.9484297 88.2067638,45.069375 88.8404913,46.2293203 C90.9014165,50.0007422 90.4221889,54.6207188 87.5280123,57.8278594 C84.6908865,60.9722344 81.2647488,63.7055859 77.3960811,65.0824688 C72.2658177,66.9087656 71.6098865,72.3614531 73.5045931,75.9040547 C78.2527698,84.7805156 73.3982009,92.8023281 66.1703147,96.0219609 C64.6765063,96.6870938 63.2514674,97.5054844 61.8057668,98.2736016 C56.1407668,101.284219 53.9595722,106.278352 53.6397787,112.322742 C53.6077069,112.930289 53.6752428,113.546367 53.6067817,114.14843 C53.447656,115.547859 53.3872129,115.588688 51.2803386,116.695313 C51.0820482,116.392758 50.6752907,116.061867 50.6993446,115.764797 C50.9182967,113.042109 49.2687548,110.941594 48.2264195,108.682336 C47.2910931,106.655859 45.3781919,105.501703 43.184662,105.022125 C40.2840093,104.388375 37.3525183,103.892344 34.4373716,103.321055 C30.3497518,102.520031 26.6691979,100.906711 24.9172728,96.9375469 C23.9184195,94.6749375 23.4357997,92.1143438 23.1453027,89.6390625 C22.6697757,85.5845859 20.6285871,82.5675703 17.2650512,80.530125 C13.3091111,78.1334531 10.0997668,75.1651875 8.05148533,71.0226563 C6.3303985,67.5422109 5.39938952,63.7671328 6.68010509,60.1419609 C8.29819192,55.5628125 7.25462305,52.1262422 3.89632964,48.8828438 C2.62023982,47.6503828 1.67103623,46.0011094 0.864305688,44.3987578 C-0.924625449,40.8442734 0.255865569,37.6566328 2.64583563,34.8589922 C4.8405991,32.2892578 7.85566198,32.4678047 10.8787428,32.8471406 C14.9330572,33.3553594 17.3048326,35.8464844 19.2852698,39.1660547 C21.2980871,42.5398594 21.602153,46.0035469 20.9619494,49.7048906 C20.8065243,50.6025 20.6927308,51.50925 20.6082338,52.4163047 C20.3510422,55.1658047 20.9314195,57.4122656 23.9396979,58.5018281 C25.0659135,58.9095 25.9833536,59.8491563 27.0503596,60.4518281 C29.4045572,61.7811797 31.067668,63.5703047 31.4220003,66.3417422 C31.4713416,66.7256484 31.6825841,67.0894453 31.9838746,67.9157578" id="Fill-4" fill="#34A853" mask="url(#mask-4)"></path>
                </g>
                <path d="M60.5048509,111 C60.1433361,110.12949 59.9436569,109.448998 59.597218,108.850503 C58.4480625,106.866818 59.0643298,105.34698 60.5346951,103.739094 C64.1129222,99.8276991 66.0201819,95.3326362 65.0051715,89.9198616 C64.7704176,88.6675013 64.4590534,87.5870039 63.3246662,86.8608224 C61.7973816,85.8832007 61.3143363,84.3458142 61.2229577,82.6940541 C61.0817362,80.1270028 61.6010868,77.6171383 63.0683753,75.5166586 C63.8147879,74.4476591 65.1420856,73.5574817 66.4004647,73.0869767 C70.7220278,71.4712231 73.7316768,68.4848021 76.3155076,64.8575259 C78.0612394,62.4066637 78.1612329,59.899825 77.4717396,57.1394279 C76.5721062,53.5387785 75.7281615,49.9205796 75.0171311,46.2802928 C74.4033252,43.136835 74.8309895,40.0629697 76.2601266,37.1543106 C77.589578,34.4489823 79.5648332,32.708265 82.7704694,32.3273223 C86.3742334,31.8991778 89.0374436,30.0129216 90.4748879,26.637691 C90.8699389,25.7099943 91.4277485,24.8080164 91.6058907,23.8397746 C92.1750842,20.7435186 94.534622,18.5931139 95.8068463,15.8717491 C96.3923464,14.6202965 97.5796533,14.0614394 99.0761707,14.0151453 C101.793839,13.9316345 104.394284,14.1506992 106.695979,15.76494 C108.103887,16.7522441 108.828147,17.9334992 108.959831,19.7671072 C109.425339,26.2500917 105.797269,30.0465075 100.550228,32.9288426 C99.0355579,33.7606228 97.4568921,34.5337035 96.0957505,35.5724454 C92.4332211,38.3682438 91.6486571,41.8487708 93.5180732,46.0282473 C94.9659783,49.2652009 96.0852896,52.5566181 96.0348314,56.1899458 C96.0086793,58.0949616 95.3696442,59.5688073 93.8922025,60.6202575 C92.2436951,61.7930404 90.5081165,62.8753533 88.7103881,63.8118247 C85.1453908,65.6693362 81.8628366,67.6675454 79.8955808,71.4300728 C78.2578419,74.5623352 78.6224334,77.3793139 80.0291105,80.3493959 C80.7521401,81.8767974 81.58747,83.4235638 81.9086797,85.0502102 C82.6784755,88.9495017 80.933359,92.0844873 77.5741944,94.2155272 C74.0639628,96.4421809 70.7041828,98.9012127 67.3108666,101.302453 C64.3895195,103.369951 62.4604151,106.157883 61.3451035,109.514354 C61.1940365,109.96852 60.8694424,110.366709 60.5048509,111" id="Fill-7" fill="#34A853" opacity="0.2"></path>
                <path d="M58.6051276,103 C58.0630975,102.617396 57.9281949,102.574345 57.910349,102.50219 C56.9285244,98.5424485 54.1403361,96.046729 51.100491,93.6192234 C48.8340672,91.8089779 46.6535455,89.7661987 44.8925526,87.4736051 C42.2543905,84.0398685 40.6488683,80.1507663 42.1948035,75.6604721 C42.9488666,73.4703509 43.5831507,71.2214142 44.5441047,69.1243671 C45.7921048,66.4003583 46.0401319,63.5505329 45.0831101,60.8926158 C43.8653572,57.5098124 42.0112029,54.3601489 40.4806938,51.087094 C39.0784329,48.0887138 37.496806,45.1430856 36.4429931,42.0219204 C35.2960187,38.6245646 36.5098394,35.5355357 38.5527363,32.6635786 C40.3587975,30.1245054 42.0420551,27.4753803 43.5172117,24.7328781 C44.1956568,23.4710724 44.6033892,21.8445496 44.5023635,20.4287321 C44.3320717,18.0433675 43.6330586,15.6989313 43.2080852,13.3284222 C42.9993794,12.1633287 42.7074938,10.9621576 42.797933,9.80434016 C43.0556392,6.51248856 44.7334523,5.42531045 47.9447991,6.27874223 C51.4776738,7.2173656 53.832117,10.4549493 54.0387055,14.4095369 C54.2640473,18.7288415 53.0124175,22.5269919 50.5294236,26.0292455 C49.3736775,27.6591031 48.3903406,29.4363028 47.5207331,31.2398785 C46.0709841,34.2461412 46.6608048,37.1987423 48.4033469,39.8518086 C49.6676804,41.7772598 51.1479792,43.6002386 52.751989,45.2543501 C58.2315745,50.9042807 57.0228957,54.3613615 54.5193337,59.7366175 C54.17996,60.4654452 53.6893502,61.1227241 53.3415072,61.8482169 C50.595665,67.5742439 50.9087237,73.2835964 54.1500153,78.5994304 C56.3072466,82.1371553 58.155049,86.0553621 62.0097541,88.3036925 C62.499759,88.5895846 62.846997,89.4803067 62.8893431,90.1154539 C63.0635671,92.7300172 63.226902,95.3691375 61.7541651,97.7566243 C60.707309,99.4537863 59.6991693,101.175202 58.6051276,103" id="Fill-9" fill="#34A853" opacity="0.2"></path>
                <path d="M57,109 C54.6467662,107.923342 53.143388,107.102249 51.5484491,106.531861 C47.7323943,105.167425 43.9163394,103.768651 40.0157906,102.681357 C37.5375057,101.99063 36.6286578,100.323831 36.0574786,98.1866204 C35.646377,96.6477559 35.3157752,95.083973 34.8257101,93.5703308 C33.9921387,90.9955285 33.1333728,88.4237651 32.1351149,85.9088278 C31.7473644,84.9327549 31.1316338,83.8785841 30.309738,83.2671712 C27.3761074,81.0843782 24.3641278,78.993054 21.2787153,77.0248026 C17.9948188,74.929528 16.5762419,71.8405553 17.2457414,67.9915708 C17.6943276,65.4125141 18.050124,62.8109701 18.2903941,60.2054756 C18.4928724,58.0062729 17.6869536,56.0775263 16.3267543,54.30923 C14.7825118,52.3020815 13.2668436,50.2563398 11.9462797,48.1027196 C10.2358145,45.312768 10.917604,41.8387754 13.3992687,39.5794038 C15.6037932,37.5725592 18.4289642,37.4072468 21.2098912,39.4927971 C23.9023299,41.5121009 26.4380707,43.7945676 26.5640435,47.5305076 C26.5972266,48.5211668 26.63932,49.6096764 26.2819873,50.4976231 C24.9724844,53.7534276 25.2235083,57.0994855 25.7857773,60.3653181 C26.3136341,63.4318035 28.5169296,65.469948 31.2748127,66.8814855 C32.1778228,67.3436918 33.0679283,67.8317282 33.9841502,68.2665851 C38.1959441,70.2640093 39.40006,74.0206133 38.9932599,78.0671219 C38.3102414,84.8586074 41.1676738,89.8562704 46.272953,93.7888229 C49.5740555,96.3314135 52.3190341,99.1471952 53.9422401,103.010766 C54.7426284,104.915506 55.8173917,106.707505 57,109" id="Fill-11" fill="#34A853" opacity="0.2"></path>
            </g>
            <g id="Page-1" transform="translate(241.708994, 536.669838) rotate(2.000000) translate(-241.708994, -536.669838) translate(221.208994, 501.669838)">
                <g id="Group-3">
                    <mask id="mask-6" fill="white">
                        <use xlink:href="#path-5"></use>
                    </mask>
                    <g id="Clip-2"></g>
                    <path d="M15.6833486,68.9999747 C16.7384057,68.0600077 16.8888343,67.022733 16.8710914,65.9184802 C16.8618343,65.3351396 16.6936629,64.6731945 16.9106914,64.1803374 C18.3738343,60.8610077 19.8452057,57.565689 22.90572,55.2277769 C24.5128629,54.0001835 25.98192,52.5423374 27.2907771,51.0053813 C29.5572343,48.3444582 30.32892,45.2321286 29.4849771,41.8142275 C29.2023771,40.6707989 28.8354343,39.5450626 28.4636057,38.4251396 C27.3468343,35.0613264 27.8189486,33.5375132 30.6405771,31.4010407 C31.5174343,30.7370736 32.4176914,30.0862495 33.2045486,29.326744 C36.7875771,25.8681505 36.5396914,20.7181725 32.8090629,17.3872165 C30.6544629,15.4635571 29.53332,13.1281725 30.6549771,10.1503044 C31.1870057,8.73744725 31.59792,7.25786484 31.8573771,5.77348022 C32.3258914,3.09334835 31.3785771,1.66102967 28.8092057,0.70059011 C26.9248629,-0.00406923077 24.9890914,-0.0654868132 23.0270914,0.153392308 C22.62492,0.198128571 22.1921486,0.344469231 21.8594057,0.567897802 C18.4784914,2.83832637 17.3740629,7.24800769 19.2383486,10.9138538 C19.73592,11.8919857 20.1622629,12.9110626 20.72952,13.8479967 C21.91392,15.8047659 21.4654629,17.5573154 20.1573771,19.2259527 C19.7408057,19.7574802 19.22832,20.215711 18.7942629,20.7356121 C16.4612057,23.5299857 15.7908343,26.520744 17.6630914,29.8345132 C18.07632,30.5659637 18.3638057,31.3661615 18.7088914,32.1347659 C19.3548343,33.5728978 19.1393486,34.9273703 18.2838343,36.2115791 C17.8155771,36.914722 17.3856343,37.6535022 16.8371486,38.2924473 C15.4048629,39.9613374 14.03352,41.6436231 14.0396914,44.0308209 C11.7822343,42.891689 10.8560057,41.1328209 11.3273486,38.8560736 C11.61612,37.461667 12.0332057,36.0902604 12.4436057,34.7234033 C13.3677771,31.6459527 13.6354629,28.5763374 12.0008057,25.6634253 C11.4924343,24.7573264 10.6937486,23.8115462 9.78372,23.3550846 C5.99394857,21.4541725 0.760577143,24.4082824 0.321377143,28.5659747 C0.0860914286,30.792678 0.99972,32.6609857 2.12574857,34.4870846 C3.95737714,37.4573703 4.62029143,40.4049088 1.85934857,43.2594363 C1.57443429,43.5541396 1.39032,43.9635901 1.22600571,44.3475132 C0.00149142857,47.2101286 -0.843994286,50.0184033 1.39726286,52.8795022 C2.50914857,54.298678 3.95660571,55.0938209 5.53340571,55.7229088 C9.61477714,57.3506011 12.8043771,59.7522055 13.7825486,64.2662714 C14.0468914,65.4862824 14.3798914,66.6971945 14.7748629,67.8820736 C14.90652,68.2776231 15.32952,68.5791505 15.6833486,68.9999747" id="Fill-1" fill="#FFFFFF" mask="url(#mask-6)"></path>
                </g>
                <g id="Group-6">
                    <mask id="mask-8" fill="white">
                        <use xlink:href="#path-7"></use>
                    </mask>
                    <g id="Clip-5"></g>
                    <path d="M14.2507286,60.0534343 C14.5559571,58.0870474 15.1067571,55.9405511 15.1669286,53.7805146 C15.2376429,51.2477409 15.0591857,48.6025584 12.7605857,46.8528139 C9.69107143,44.5162445 8.7903,41.4886168 9.55015714,37.8309891 C9.72192857,37.0042737 9.89318571,36.1550766 9.88495714,35.3178869 C9.8613,32.8719745 9.86978571,30.4148212 9.62961429,27.9852591 C9.42492857,25.9156606 7.51615714,25.8520474 5.9805,25.4238723 C4.58292857,25.0342737 3.69655714,25.7950766 2.8971,26.7324124 C1.52858571,28.3373029 1.47818571,30.5083248 2.61578571,32.6847117 C3.67547143,34.7119015 4.70867143,36.7574854 5.63747143,38.8459891 C6.4989,40.7827409 5.73698571,44.5050036 3.7755,46.0207336 C0.665357143,48.4242372 0.9693,51.5775584 4.33555714,53.6732153 C5.99592857,54.7071204 7.8543,55.4293467 9.50207143,56.4803686 C11.1164143,57.5101861 12.5767286,58.7786168 14.2507286,60.0534343 M15.5986714,61.2173759 C17.2130143,59.2180328 18.4959,57.4639453 19.9551857,55.8692737 C21.3329571,54.3637628 23.0252143,53.1349307 24.3523286,51.591865 C27.2567571,48.2142372 29.2347,44.5520109 26.8859571,39.9951131 C26.6938714,39.6221204 26.5874143,39.1949672 26.5012714,38.7803321 C25.8699857,35.7337993 26.2893857,33.0175949 28.9870714,31.0123759 C29.6715857,30.5032153 30.3535286,29.976938 30.9637286,29.3844927 C34.9152429,25.5467555 34.5789,23.0597117 32.0607,19.5632883 C31.4145,18.666062 30.7202143,17.8025584 30.0367286,16.9324124 C28.5512143,15.041646 28.2665571,12.9219745 28.8482143,10.6546387 C29.2064143,9.25693796 29.7361286,7.89244891 29.9709,6.47712044 C30.1143857,5.61233942 30.1123286,4.5344927 29.7109286,3.80434672 C28.3663286,1.35792336 24.0105857,0.895770073 22.0578429,2.87774088 C21.8259,3.11328832 21.5700429,3.39431022 21.4900714,3.69704745 C20.6330143,6.94463869 19.9749857,10.1878869 22.0552714,13.2714635 C22.4361,13.8358066 22.8115286,14.4142007 23.1010714,15.0273394 C24.1329857,17.2096022 24.0856714,19.3088358 22.4458714,21.211865 C21.7225286,22.0510985 20.9099571,22.8147117 20.1966429,23.6616095 C18.7093286,25.4261715 18.2009571,27.3795292 19.1984143,29.5697117 C19.4455286,30.1120839 19.6872429,30.6575219 19.9580143,31.1878869 C21.3697286,33.9523759 21.0531857,36.6042007 19.4712429,39.191135 C18.6712714,40.4991642 17.9029286,41.8260985 17.1201857,43.1443467 C16.3716429,44.4056241 16.1988429,45.831938 16.8229286,47.0684343 C17.7936429,48.9926679 17.4799286,50.8354051 17.0960143,52.7734343 C16.5549857,55.5065 16.1178429,58.2594927 15.5986714,61.2173759 M15.6832714,69.7446022 C15.3294429,69.3192372 14.9064429,69.0144562 14.7747857,68.6146387 C14.3798143,67.416719 14.0470714,66.1929964 13.7824714,64.9595657 C12.8043,60.3970474 9.6147,57.9695292 5.53332857,56.3240182 C3.95678571,55.6883978 2.50907143,54.8846752 1.39744286,53.4501861 C-0.844071429,50.5582153 0.00141428571,47.7196387 1.22618571,44.826135 C1.39024286,44.4378139 1.57435714,44.0239453 1.85952857,43.726062 C4.62021429,40.8407336 3.9573,37.8613905 2.12592857,34.8590547 C0.9999,33.0135073 0.0860142857,31.1250401 0.3213,28.8743102 C0.760757143,24.6715 5.99412857,21.6855146 9.78364286,23.606938 C10.6936714,24.0685803 11.4923571,25.0245657 12.0007286,25.9401861 C13.6353857,28.8847847 13.3677,31.9875219 12.4437857,35.0979234 C12.0331286,36.4797847 11.6160429,37.8657336 11.3272714,39.2751861 C10.8559286,41.5765 11.7821571,43.3543467 14.0398714,44.5060255 C14.0337,42.0928139 15.4047857,40.3926314 16.8373286,38.7054781 C17.3855571,38.0598942 17.8155,37.3131423 18.2840143,36.6024124 C19.1392714,35.3043467 19.3550143,33.9352591 18.7088143,32.481354 C18.3637286,31.7044562 18.0762429,30.8958796 17.6630143,30.1565365 C15.7907571,26.8070109 16.4613857,23.7837263 18.7941857,20.9592007 C19.2282429,20.4336898 19.7409857,19.9707701 20.1575571,19.4332518 C21.4653857,17.7466095 21.9138429,15.9751496 20.7294429,13.9972664 C20.1621857,13.0502226 19.7358429,12.0201496 19.2382714,11.0314635 C17.3739857,7.32631752 18.4784143,2.86905474 21.8593286,0.573872263 C22.1920714,0.348032847 22.6248429,0.200368613 23.0270143,0.155149635 C24.9890143,-0.0663467153 26.9247857,-0.00401094891 28.8093857,0.708251825 C31.3785,1.67879927 32.3258143,3.12657299 31.8573,5.83587956 C31.5978429,7.33602555 31.1869286,8.83182847 30.6549,10.2599307 C29.5335,13.2699307 30.6543857,15.6302591 32.8089857,17.5749307 C36.5398714,20.941573 36.7877571,26.1471204 33.2044714,29.6430328 C32.4176143,30.4109891 31.5173571,31.0685803 30.6405,31.7399672 C27.8188714,33.8994927 27.3470143,35.4394927 28.4635286,38.8396022 C28.8353571,39.971865 29.2025571,41.1094927 29.4849,42.2655146 C30.3288429,45.7202956 29.5571571,48.8659526 27.2907,51.5555876 C25.9818429,53.1091277 24.5130429,54.5829599 22.9059,55.8237993 C19.8451286,58.186938 18.3737571,61.5175584 16.9106143,64.8729599 C16.6935857,65.3708796 16.8617571,66.0399672 16.8710143,66.6296022 C16.8887571,67.7460255 16.7383286,68.7942372 15.6832714,69.7446022" id="Fill-4" fill="#34A853" mask="url(#mask-8)"></path>
                </g>
                <path d="M23,63 C23.5093218,60.0707928 23.9381713,57.3444897 24.4689355,54.6379205 C24.845314,52.71868 25.1533288,50.8938077 24.2010308,48.9882291 C23.5887851,47.7634673 23.7583068,46.3512342 24.4926484,45.1021846 C25.2602889,43.7967166 26.0143072,42.4826466 26.7991017,41.1872984 C28.3507799,38.6254438 28.6613174,35.9993279 27.2766382,33.2616399 C27.0107515,32.7361637 26.773623,32.1962666 26.5314492,31.6591525 C25.5529156,29.4902034 26.0516423,27.5557831 27.5104873,25.808328 C28.2105209,24.9696407 29.0076764,24.2134306 29.7170439,23.3823332 C31.3259861,21.4977534 31.3721505,19.4188714 30.3600658,17.2577652 C30.0757638,16.6505708 29.7077101,16.077784 29.3341065,15.5189121 C27.2932876,12.464977 27.9388322,9.25342438 28.7796294,6.03731778 C28.8580836,5.73751553 29.1090867,5.45896507 29.3366292,5.2259542 C31.2523249,3.26319815 35.5251792,3.72087096 36.8445219,6.14357681 C37.2380544,6.8666442 37.2403247,7.93404144 37.0995612,8.79043861 C36.8692438,10.1920458 36.3495792,11.5433064 35.9979226,12.9274568 C35.4275528,15.1728113 35.7068095,17.2716801 37.1638886,19.144369 C37.8346596,20.0060791 38.5155212,20.8612113 39.1497139,21.7497391 C41.620139,25.2122655 41.9501009,27.675198 38.0733017,31.4757292 C37.4746783,32.0624308 36.8059255,32.5836061 36.1341454,33.0878305 C33.487892,35.0736093 33.0761965,37.7634807 33.6957578,40.7804781 C33.7800141,41.1908404 33.8844516,41.6141055 34.0731453,41.9834821 C36.377076,46.4962019 34.4369106,50.1229237 31.5875843,53.4678061 C30.2856478,54.9959122 28.6254959,56.2125781 27.2738633,57.7034934 C25.8422629,59.282958 24.5834636,61.0200401 23,63" id="Fill-7" fill="#34A853" opacity="0.2"></path>
                <path d="M21.1104298,63 C19.5058843,61.7154139 18.1061587,60.4372636 16.5587951,59.3995548 C14.97939,58.3404792 13.1981227,57.6127187 11.6066403,56.5708911 C8.38004965,54.4591757 8.08871742,51.2816914 11.06982,48.8597704 C12.9499234,47.3324258 13.6802257,43.5816403 12.854538,41.6300476 C11.964274,39.5255403 10.9739416,37.4642816 9.95822242,35.421558 C8.86782162,33.2284941 8.91613051,31.0408362 10.2278649,29.4236478 C10.9941525,28.4791295 11.8437482,27.7124968 13.1833342,28.1050807 C14.6552767,28.5365369 16.4848529,28.6006375 16.6810462,30.6860948 C16.9112529,33.1342739 16.9031193,35.6102557 16.9257949,38.0749105 C16.933682,38.9185155 16.7695304,39.7742197 16.6048858,40.60727 C15.8765552,44.2929251 16.7399535,47.3437528 19.6821132,49.6982267 C21.8853439,51.461379 22.0563968,54.1268308 21.9886165,56.6790126 C21.9309416,58.8556008 21.4029944,61.0185452 21.1104298,63" id="Fill-9" fill="#34A853" opacity="0.2"></path>
            </g>
        </g>
    </g>
</svg>