<?xml version="1.0" encoding="UTF-8"?>
<svg width="65px" height="58px" viewBox="0 0 65 58" version="1.1" xmlns="http://www.w3.org/2000/svg" xmlns:xlink="http://www.w3.org/1999/xlink">
    <!-- Generator: Sketch 49 (51002) - http://www.bohemiancoding.com/sketch -->
    <title>Group Copy 5</title>
    <desc>Created with Sketch.</desc>
    <defs>
        <rect id="path-1" x="0" y="0" width="61" height="54" rx="27"></rect>
        <filter x="-5.7%" y="-4.6%" width="111.5%" height="113.0%" filterUnits="objectBoundingBox" id="filter-2">
            <feOffset dx="0" dy="1" in="SourceAlpha" result="shadowOffsetOuter1"></feOffset>
            <feGaussianBlur stdDeviation="1" in="shadowOffsetOuter1" result="shadowBlurOuter1"></feGaussianBlur>
            <feColorMatrix values="0 0 0 0 0   0 0 0 0 0   0 0 0 0 0  0 0 0 0.301290761 0" type="matrix" in="shadowBlurOuter1"></feColorMatrix>
        </filter>
        <polygon id="path-3" points="0 0.123027318 22.9154746 0.123027318 22.9154746 29.4399695 0 29.4399695"></polygon>
        <polygon id="path-5" points="0 0.122996997 22.9155091 0.122996997 22.9155091 29.439939 0 29.439939"></polygon>
    </defs>
    <g id="Design-mocks" stroke="none" stroke-width="1" fill="none" fill-rule="evenodd">
        <g id="My-card" transform="translate(-233.000000, -131.000000)">
            <g id="Group-Copy-5" transform="translate(235.000000, 132.000000)">
                <g id="Rectangle-11-Copy-4">
                    <use fill="black" fill-opacity="1" filter="url(#filter-2)" xlink:href="#path-1"></use>
                    <use fill="#174EA6" fill-rule="evenodd" xlink:href="#path-1"></use>
                </g>
                <g id="Page-1" transform="translate(19.000000, 12.000000)">
                    <g id="Group-3">
                        <mask id="mask-4" fill="white">
                            <use xlink:href="#path-3"></use>
                        </mask>
                        <g id="Clip-2"></g>
                        <path d="M22.0297833,29.4399695 C22.2668367,28.8092213 22.6057033,28.3027923 22.62763,27.7830924 C22.7466167,24.9658522 23.2424967,22.1435782 22.5704367,19.3255753 C22.46847,18.8978563 22.5851567,18.4193419 22.59359,17.9643185 C22.62855,16.0408035 22.68421,14.1172885 22.6834433,12.1937734 C22.6829833,11.3660976 22.3071633,10.7408408 21.4336233,10.4876263 C21.0950633,10.3893913 20.79269,10.0838559 20.46103,10.0617378 C19.50837,9.99812908 19.32069,9.35639809 19.1981767,8.61643208 C19.0660033,7.81667084 18.9606633,7.0106555 18.7849433,6.22019913 C17.8819633,2.16114006 14.4753567,-0.452613306 10.2275633,0.231676021 C8.33251667,0.53690628 6.80194333,1.47379996 5.85557,3.20481094 C5.28869667,4.24161758 4.96777,5.3388296 4.86411667,6.52878524 C4.75801,7.74574027 4.51789,7.89721136 3.27635,8.17910317 C2.73263,8.30265965 2.20056333,8.48936721 1.67677667,8.68370172 C0.01127,9.30117903 0.00835666667,9.3077382 0.00835666667,11.1005274 C0.00851,14.7045631 -0.02461,18.3093614 0.03979,21.9124818 C0.0640166667,23.275264 0.304443333,24.6359106 0.47541,25.9938116 C0.573543333,26.7760308 1.02557,27.3233403 1.80987,27.479235 C4.15525667,27.9455463 6.49251667,28.5052114 8.86197667,28.7834422 C11.28127,29.0676221 13.73491,29.0654866 16.1739833,29.1809585 C18.0978567,29.2720242 20.0224967,29.3516495 22.0297833,29.4399695" id="Fill-1" fill="#FFFFFF" mask="url(#mask-4)"></path>
                    </g>
                    <g id="Group-6">
                        <mask id="mask-6" fill="white">
                            <use xlink:href="#path-5"></use>
                        </mask>
                        <g id="Clip-5"></g>
                        <path d="M15.4073933,9.37635018 C15.1617533,8.33557753 15.1139133,7.49035971 14.7629333,6.79676551 C14.24896,5.7808567 13.67028,4.7025595 12.2588467,4.6491709 C11.0550267,4.60356178 9.77806667,5.35893422 9.26854,6.60060054 C9.00557333,7.24156883 8.97322,7.97604344 8.82694,8.71768738 C11.02988,8.93825857 13.07734,9.14311826 15.4073933,9.37635018 M18.1275267,9.25248862 C18.18932,6.61219349 17.59822,4.30428054 15.2341267,3.04766541 C13.7423467,2.25461588 11.9819267,1.95762272 10.3345133,1.46309173 C10.1039,1.39383909 9.81793333,1.42068593 9.57796667,1.48215909 C6.99568,2.14555059 5.20551333,5.57736987 6.05053333,8.37279702 C6.44674667,8.40345733 6.8793,8.43701588 7.36168667,8.47423536 C7.41811333,8.18349629 7.46012667,7.99267018 7.49156,7.80016613 C7.92595333,5.13790541 9.91959333,3.54067101 12.6268467,3.78595349 C14.6163467,3.96594935 15.6439867,4.92541878 15.8066733,6.64300634 C15.8496067,7.09513152 15.94314,7.54557878 16.0500133,7.98778893 C16.3634267,9.28345401 16.48916,9.36063867 18.1275267,9.25248862 M20.82834,26.8191688 C21.40104,24.0365549 21.3116467,21.3067195 21.2884933,18.5842059 C21.27362,16.8083485 21.2474,15.0271522 21.09836,13.2590743 C20.9783,11.8360393 20.7481467,11.6842631 19.32092,11.4443195 C17.8720733,11.2008675 16.3729333,11.1349707 14.9777533,10.7191498 C12.0769933,9.85440696 9.0528,10.0658258 6.12106667,9.52553318 C5.65754,9.44011142 4.96723333,9.84067847 4.68939333,9.62483598 C3.78779333,8.92453007 3.22184,9.41677297 2.54732667,9.9169479 C2.20248,10.172603 1.75888667,10.2964646 1.30195333,10.5066631 C0.849466667,13.7075386 1.07272,16.9590569 1.08008,20.199745 C1.08376,21.8163518 1.28769333,23.4370772 1.47721333,25.0469724 C1.62042667,26.2637748 1.78633333,26.3656708 3.02879333,26.4445334 C3.63921333,26.4831257 4.25300667,26.470465 4.86296667,26.5125657 C7.45322667,26.6908836 10.0433333,26.8720998 12.6317533,27.0716206 C13.54148,27.1417885 14.4455333,27.2834971 15.3544933,27.3641902 C17.0865467,27.5181019 18.8202867,27.6518785 20.90884,27.8230271 C20.2153133,27.1684828 19.8076,26.7834747 19.3998867,26.3984667 C19.4452733,26.3299767 19.4908133,26.2611817 19.5362,26.1925392 C19.9526533,26.3943481 20.3688,26.5963096 20.82834,26.8191688 M22.0297067,29.439939 C20.0225733,29.351619 18.0979333,29.2721462 16.1739067,29.180928 C13.7349867,29.0654561 11.2813467,29.0675916 8.8619,28.7835643 C6.49244,28.5051808 4.15518,27.9455158 1.80979333,27.479357 C1.02549333,27.3233098 0.57362,26.7760003 0.475333333,25.9937811 C0.30452,24.6358801 0.0640933333,23.2752335 0.0397133333,21.9126039 C-0.0246866667,18.3094834 0.00843333333,14.7046851 0.00828,11.1006495 C0.00828,9.30770769 0.0113466667,9.30114852 1.6767,8.68367121 C2.20048667,8.48948924 2.73270667,8.30262914 3.27642667,8.17907266 C4.51781333,7.89733339 4.75808667,7.7458623 4.86404,6.52875474 C4.96769333,5.33879909 5.28877333,4.24158707 5.85549333,3.20478044 C6.80186667,1.47376945 8.33244,0.536875772 10.22764,0.231645513 C14.4754333,-0.452643813 17.88204,2.16110955 18.7848667,6.22032116 C18.96074,7.01062499 19.0659267,7.81664033 19.1982533,8.61655411 C19.3206133,9.35636759 19.5082933,9.99809857 20.4609533,10.0617073 C20.7926133,10.0839779 21.09514,10.3895133 21.4337,10.4875958 C22.3070867,10.7408103 22.6829067,11.3660671 22.6833667,12.1938955 C22.6841333,14.1172579 22.6286267,16.040773 22.5935133,17.964288 C22.5852333,18.4193114 22.4685467,18.8978258 22.5705133,19.3256973 C23.2425733,22.1435477 22.74654,24.9658217 22.6277067,27.7830619 C22.6056267,28.3027618 22.26676,28.8091908 22.0297067,29.439939" id="Fill-4" fill="#174EA6" mask="url(#mask-6)"></path>
                    </g>
                    <path d="M8.59287576,23.6606563 C9.91584334,24.4151535 14.1657371,24.9067105 15.3652644,24.4575978 C15.3034678,24.1401083 15.2658392,23.7977958 15.1680965,23.4734111 C14.8454999,22.4026503 14.5158669,21.333575 14.1593127,20.2738466 C13.9509786,19.6552631 13.9803473,19.1060922 14.3185461,18.5252029 C15.1921116,17.0247893 15.174215,16.7526555 13.977594,15.5023109 C13.3989391,14.8976712 12.9348526,14.1152864 11.9305047,14.0340753 C10.7343425,13.9372349 9.20441749,14.6103678 8.65742569,15.6000707 C7.98209884,16.8216083 8.24947627,18.0111213 9.04304267,19.0150744 C9.5609717,19.6698198 9.64112375,20.208418 9.367016,20.9546409 C9.05420889,21.8061317 8.86101799,22.7020588 8.59287576,23.6606563 M20.6819146,27.0516032 C20.2234877,26.8277363 19.8081961,26.625015 19.3927516,26.4221405 C19.3476278,26.4912465 19.3021981,26.5601994 19.2569214,26.628999 C19.6636471,27.0157477 20.0703729,27.4024965 20.7622196,28.06 C18.6787254,27.8880776 16.949185,27.7536962 15.2213273,27.5990886 C14.3144161,27.5180308 13.4127056,27.3756815 12.5051826,27.3051964 C9.92287959,27.1049267 7.33919993,26.922738 4.75521434,26.7436139 C4.14673185,26.7014761 3.53442531,26.714194 2.92548394,26.675274 C1.68603356,26.5960548 1.52052877,26.4936982 1.37766235,25.2715476 C1.18860142,23.6542207 0.98516208,22.0261678 0.981338033,20.4022521 C0.973995861,17.1469125 0.751283316,13.8806936 1.20282688,10.6653466 C1.65865338,10.4541977 2.10117219,10.3297762 2.44518354,10.0729652 C3.11806299,9.57052891 3.68249245,9.07606052 4.58190849,9.7795326 C4.85922844,9.99635094 5.54786297,9.59397288 6.01011387,9.67978084 C8.93474564,10.2225162 11.9517664,10.0101415 14.8454999,10.8787939 C16.2373003,11.2966481 17.7328089,11.3626895 19.178146,11.6072422 C20.6019155,11.8482707 20.8315113,12.000733 20.9512805,13.4302018 C21.0999595,15.2062734 21.126116,16.9955227 21.1409533,18.7795622 C21.1640505,21.5142314 21.2532273,24.256562 20.6819146,27.0516032" id="Fill-7" fill="#FFFFFF"></path>
                    <path d="M17.9357804,9.16565107 C16.310975,9.27333588 16.1864462,9.19643983 15.8756561,7.90831712 C15.7696774,7.46862941 15.6769269,7.02059992 15.6343529,6.57120541 C15.473028,4.86341527 14.4539895,3.90941883 12.4811419,3.73029804 C9.79654871,3.48656635 7.81959579,5.07453818 7.3888384,7.72161289 C7.35766817,7.91301885 7.31585444,8.10275646 7.26005213,8.3918371 C6.78170311,8.35482993 6.35261827,8.32161447 5.9597213,8.29097738 C5.1219263,5.51149585 6.89695694,2.09925229 9.45778152,1.43979656 C9.69573962,1.37852238 9.9793127,1.35182868 10.2079958,1.42083796 C11.84162,1.91254805 13.587153,2.20769544 15.0665986,2.99622128 C17.4109041,4.24582012 17.9969044,6.54041666 17.9357804,9.16565107" id="Fill-9" fill="#FFFFFF"></path>
                    <path d="M15.41,9.43 C13.0482394,9.19179358 10.9729176,8.98256453 8.74,8.75728888 C8.88827058,7.99982674 8.92106417,7.24968685 9.18760928,6.59504763 C9.70406958,5.32689836 10.9984064,4.55541492 12.218608,4.60199681 C13.6492481,4.65652412 14.2358027,5.75781984 14.7567702,6.79539652 C15.1125263,7.50378408 15.1610173,8.36702918 15.41,9.43" id="Fill-11" fill="#174EA6"></path>
                    <path d="M8.60183589,23.6437892 C8.87139459,22.6873845 9.06560603,21.7935069 9.38006556,20.9439639 C9.65562129,20.1994481 9.57504584,19.662082 9.05438082,19.0088344 C8.25662237,18.0071778 7.98783252,16.820386 8.6667268,15.6016427 C9.21660811,14.6142038 10.7546151,13.9426108 11.957096,14.0392296 C12.9667494,14.120255 13.4332874,14.90085 14.0149991,15.5041065 C15.2179413,16.7515909 15.2359324,17.0231022 14.3577523,18.5200834 C14.017767,19.0996439 13.9882431,19.6475586 14.1976778,20.264727 C14.5561155,21.3220312 14.8874897,22.3886609 15.2117905,23.4569723 C15.3100495,23.780615 15.3478769,24.1221444 15.41,24.4389076 C14.2041361,24.886993 9.9317921,24.3965604 8.60183589,23.6437892" id="Fill-13" fill="#174EA6"></path>
                </g>
            </g>
        </g>
    </g>
</svg>