<?xml version="1.0" encoding="UTF-8"?>
<svg width="21px" height="20px" viewBox="0 0 21 20" version="1.1" xmlns="http://www.w3.org/2000/svg" xmlns:xlink="http://www.w3.org/1999/xlink">
    <!-- Generator: Sketch 50.2 (55047) - http://www.bohemiancoding.com/sketch -->
    <title>Group 17</title>
    <desc>Created with Sketch.</desc>
    <defs></defs>
    <g id="Design-mocks" stroke="none" stroke-width="1" fill="none" fill-rule="evenodd">
        <g id="people-are-drawing" transform="translate(-212.000000, -317.000000)" fill="#174EA6">
            <g id="Group-17" transform="translate(212.000000, 317.000000)">
                <path d="M3.62088701,3.67310986 C3.5997746,3.82966273 3.76571077,3.79496923 3.7784276,3.8859625 L3.80768867,3.85917072 C3.75250008,3.80422906 3.69718802,3.74916393 3.62088701,3.67310986 M5.42346742,3.0262798 L5.41593609,3.06578842 C5.45766706,3.08899973 5.49939803,3.1123345 5.57545211,3.15468279 C5.55915481,3.08233265 5.56038945,3.0249217 5.5414994,3.0172669 C5.50878133,3.00405621 5.46346989,3.02158816 5.42346742,3.0262798 M8.65588918,6.38562297 C8.64823438,6.39920406 8.64070305,6.41278514 8.63317172,6.42636623 C8.66613672,6.44772557 8.69737322,6.47982632 8.73305443,6.486123 C8.75453724,6.48982694 8.80663922,6.45031833 8.80478726,6.4351322 C8.78824302,6.3001856 8.69836093,6.43735456 8.65588918,6.38562297 M5.27654477,5.58495627 C5.21925728,5.30543284 5.16394523,5.03628042 5.10875664,4.76700454 C5.09517555,4.76836265 5.08171793,4.76972076 5.06813684,4.77120233 C5.05653119,4.79527789 5.03492492,4.81960038 5.03504838,4.84367594 C5.03591263,5.0120814 5.02899863,5.18209189 5.04961718,5.34839845 C5.06270441,5.45396053 5.09171855,5.57705454 5.27654477,5.58495627 M5.18851465,1.31148259 C5.18851465,1.22579829 5.17987214,1.18048685 5.19086047,1.14048438 C5.20258959,1.09764223 5.223702,1.04158939 5.25740779,1.0249217 C5.29111357,1.00837746 5.35938939,1.01714344 5.38840353,1.04245364 C5.57520518,1.2053032 5.77460021,1.35012696 5.91473231,1.56816511 C6.01584967,1.72558223 6.18153891,1.84176224 6.31833747,1.97621499 C6.344265,2.00177212 6.37229142,2.02560075 6.3956262,2.05325678 C6.64107345,2.34537358 6.88565644,2.63798423 7.1307333,2.93047142 C7.13851156,2.93973125 7.15209264,2.94689219 7.15493233,2.95713973 C7.23407301,3.24641685 7.4849527,3.39580879 7.67533482,3.59359877 C7.93399276,3.86250426 8.1999351,4.12424881 8.45822265,4.3935247 C8.52551076,4.46389941 8.56958755,4.55625079 8.63551755,4.62835401 C8.70218833,4.70132147 8.7841687,4.76009053 8.85664231,4.82811942 C8.97640279,4.94071897 9.10060798,5.04973804 9.21098517,5.17110356 C9.36889615,5.34494145 9.51606573,5.52865649 9.66805042,5.70792682 C9.80262663,5.86682552 9.93856094,6.0247365 10.072026,6.18462291 C10.1075837,6.22721813 10.134499,6.27697429 10.1685751,6.32105109 C10.2511728,6.4278478 10.3295727,6.53884231 10.4210599,6.6377373 C10.5220538,6.74675638 10.5464997,6.93824968 10.4489628,7.04479947 C10.4185906,7.07788793 10.3593277,7.10566742 10.3161151,7.10196349 C10.1196832,7.08566619 9.92436254,7.0373916 9.72879491,7.03800892 C9.4558151,7.03887317 9.19258897,6.9371385 8.91244822,6.99380866 C8.76626636,7.02344012 8.60502184,6.98146222 8.45081479,6.96849846 C8.20339211,6.94750951 7.95547557,6.93010103 7.70916407,6.89948185 C7.49865725,6.8733074 7.28802696,6.8403424 7.08122407,6.79354939 C6.7383634,6.71589027 6.39574966,6.72564396 6.05017277,6.76169557 C5.97424216,6.76959729 5.89497801,6.75095417 5.81756582,6.7418178 C5.67805104,6.72527357 5.53853625,6.70761816 5.3992684,6.68798732 C5.35605585,6.68193756 5.31296677,6.67119616 5.27148273,6.65749161 C5.14110431,6.61452599 5.0231958,6.5353853 4.87009993,6.56711566 C4.80688615,6.58020289 4.73231365,6.53328641 4.6620624,6.51797682 C4.57847699,6.49982755 4.49427426,6.4753816 4.40970114,6.47278885 C4.0452342,6.46155359 3.67866836,6.47649278 3.31617685,6.44476243 C3.00924432,6.41797065 2.70416376,6.4299467 2.39982399,6.41760026 C2.19734235,6.40920468 1.98090924,6.42710702 1.7895394,6.3785855 C1.48482923,6.30142024 1.17888442,6.25845463 0.868988749,6.23030474 C0.776637369,6.22203263 0.756265742,6.18894417 0.7786128,6.10856883 C0.788366488,6.07350494 0.80379954,6.03695948 0.800836394,6.00238944 C0.797996713,5.96954791 0.774538474,5.93855834 0.760093138,5.90658106 C0.73132593,5.93226165 0.684903312,5.95374446 0.677742376,5.9844871 C0.664408219,6.04165112 0.673914979,6.10424758 0.673914979,6.16993065 C0.575390379,6.19030227 0.556623788,6.13103936 0.570328338,6.06165236 C0.626751574,5.77830153 0.679347413,5.49285181 0.834912572,5.24135481 C0.917386798,5.10788978 1.00195992,4.97553593 1.08566879,4.84281169 C1.12332544,4.78330184 1.16456255,4.73539765 1.24728371,4.73996583 C1.32235007,4.74416362 1.34815413,4.69304936 1.3572905,4.62329197 C1.36358718,4.57489392 1.37976102,4.52452044 1.40371311,4.48192521 C1.52730099,4.26265242 1.64755533,4.04091034 1.78361311,3.82953926 C1.86917395,3.69656809 1.98127963,3.58075848 2.08042155,3.45642981 C2.15487059,3.36321418 2.23018388,3.27049241 2.30092899,3.17456056 C2.45748187,2.96207831 2.61477553,2.74984299 2.76466132,2.53279255 C2.82367731,2.44735518 2.84886405,2.33537296 2.91652255,2.2599362 C3.01776336,2.14708973 3.13912888,2.05091095 3.25913629,1.95670761 C3.37383473,1.86682552 3.51371991,1.80422906 3.61347915,1.70138321 C3.74496875,1.56581928 3.90806524,1.49754346 4.06869243,1.41716813 C4.10585522,1.39864847 4.1600561,1.36185607 4.16079689,1.33234808 C4.16338964,1.21888429 4.23919679,1.18838858 4.32339952,1.16937506 C4.46365509,1.13789163 4.60489837,1.10690206 4.7473763,1.09208634 C4.79466317,1.08727122 4.84812326,1.13060723 4.89689171,1.15567051 C4.98652687,1.20159927 5.07468046,1.25036771 5.18851465,1.31148259" id="Fill-1"></path>
                <path d="M13.0487282,16.6125753 C13.063297,16.5996115 13.0777424,16.5865243 13.0924346,16.5735605 C13.0508271,16.5273848 13.0107012,16.4797275 12.9647724,16.4384904 C12.9616858,16.4356508 12.8943977,16.4794806 12.8926692,16.504297 C12.8832859,16.6315888 13.0065034,16.5581274 13.0487282,16.6125753 M17.6913605,16.0051304 C17.6477776,16.0510591 17.6161707,16.084518 17.5843169,16.1176064 C17.5666614,16.1362496 17.5398697,16.152053 17.533573,16.1737827 C17.5294987,16.1881046 17.5502407,16.2208227 17.5674022,16.2282305 C17.6935829,16.2826783 17.8119852,16.2104517 17.8150718,16.0761224 C17.8155657,16.0559977 17.7906259,16.0250081 17.7703777,16.0169829 C17.7376597,16.0040192 17.6990153,16.0061181 17.6913605,16.0051304 M16.0911383,14.649985 C16.0124914,14.7273972 16.0065651,14.818267 16.0536051,14.8975311 C16.0785449,14.9392621 16.1491665,14.953584 16.1991696,14.9802523 C16.2143557,14.9391386 16.2341101,14.8990127 16.2436168,14.8566644 C16.2705321,14.7369039 16.2036143,14.6799868 16.0911383,14.649985 M14.6794462,15.4647266 C14.6794462,15.5597942 14.6736434,15.6335025 14.6808043,15.7060995 C14.6906814,15.8054884 14.7053737,15.9050007 14.7290789,16.0016733 C14.7363633,16.0315517 14.7799462,16.0525407 14.8069849,16.077604 C14.8262454,16.0472317 14.8563707,16.0188349 14.8625439,15.9861168 C14.8736557,15.9273478 14.8835329,15.8628993 14.8701987,15.8063526 C14.8421723,15.6862218 14.8387153,15.5488059 14.6794462,15.4647266 M12.6689517,15.1968088 C12.6762361,15.1343359 12.6890764,15.0712455 12.6898172,15.0080318 C12.6912988,14.8785176 12.6922865,14.7483861 12.6800635,14.6197362 C12.67673,14.5851662 12.6021575,14.5249155 12.5988239,14.5273848 C12.4932619,14.6072663 12.3917741,14.6922098 12.2923853,14.7798695 C12.2823846,14.788759 12.2888048,14.8181435 12.2905333,14.8377743 C12.3092999,15.0490219 12.4419007,15.1774249 12.6689517,15.1968088 M10.2664577,13.8405523 C10.329795,13.8351199 10.3928853,13.8254896 10.4560991,13.8252427 C10.6527779,13.8243785 10.8495801,13.8338852 11.046012,13.8266008 C11.2489875,13.818946 11.4457898,13.7803017 11.6558027,13.8230203 C11.8354435,13.8596893 12.0310111,13.8166002 12.2196647,13.8110443 C12.5019044,13.8027722 12.7843909,13.8009202 13.0663837,13.7882034 C13.2219488,13.7811659 13.3824525,13.7782028 13.5307333,13.7372126 C13.7638341,13.6727642 13.9855762,13.7422746 14.2125038,13.7502998 C14.3233748,13.7543741 14.435357,13.7201745 14.5467219,13.7217795 C14.759945,13.7247427 14.973168,13.7498059 15.1863911,13.7498059 C15.5422155,13.7496825 15.8981634,13.737583 16.2539878,13.7295578 C16.7956262,13.7175817 17.3372646,13.7065934 17.8787795,13.6911604 C18.1501543,13.6832586 18.4212821,13.6595535 18.6926569,13.6563434 C18.9962559,13.6526395 19.2999783,13.6651094 19.6037008,13.6683194 C19.6959287,13.6694306 19.7250663,13.7065934 19.7249428,13.8019079 C19.7246959,13.9606832 19.6074047,14.0627882 19.5588832,14.1966237 C19.5113494,14.3281133 19.4643094,14.4597263 19.4160349,14.590969 C19.4036884,14.6249217 19.3908481,14.6596152 19.3728223,14.6907282 C19.2331841,14.9311134 19.0995956,15.1754495 18.9497098,15.4092911 C18.7217945,15.7651155 18.4898048,16.1187176 18.2446045,16.462566 C18.1143496,16.6455403 17.9622414,16.809501 17.8447033,17.0061798 C17.7464256,17.1707579 17.5720939,17.2890368 17.4357892,17.4318851 C17.278372,17.5970805 17.1304617,17.7715357 16.9698345,17.9332741 C16.8040218,18.1005683 16.6268503,18.2563804 16.4565929,18.4193535 C16.3758472,18.4965187 16.2967065,18.5756594 16.2215167,18.6583806 C16.0523704,18.8441945 15.8861873,19.0328481 15.7188931,19.2202671 C15.5924655,19.3618808 15.4948052,19.3907714 15.3314617,19.2980497 C15.2120717,19.2301442 15.1051515,19.1375459 15.000824,19.0466761 C14.8746434,18.9367928 14.7577226,18.8165385 14.6357398,18.7019635 C14.5522778,18.6235636 14.4641243,18.5586213 14.4460984,18.4244155 C14.437209,18.358609 14.3500431,18.3002103 14.2925087,18.2445278 C14.0765695,18.0350087 13.8496419,17.8359841 13.6433328,17.617699 C13.453815,17.4169459 13.2667664,17.208538 13.1145348,16.9797584 C13.0118124,16.8253044 12.9303259,16.68616 12.7480924,16.5965249 C12.6173436,16.5323234 12.537709,16.3656464 12.4325174,16.2471206 C12.3630069,16.1688442 12.2911506,16.0920493 12.2157139,16.0194522 C12.0685443,15.8777151 11.9221155,15.7344964 11.767538,15.6011548 C11.6575313,15.5063341 11.5491295,15.4168224 11.4741866,15.2868144 C11.4229489,15.1977966 11.3355361,15.1302615 11.2700999,15.0485281 C11.2025649,14.963955 11.1437958,14.8724678 11.0778658,14.7866601 C11.0242823,14.7167792 10.9695876,14.6467749 10.9083492,14.5834377 C10.6882122,14.3558927 10.4652354,14.1308171 10.2432464,13.9048772 C10.2510247,13.8835179 10.2588029,13.8620351 10.2664577,13.8405523" id="Fill-3"></path>
                <path d="M10.6449749,4.8217857 C10.6375671,4.82721813 10.6302827,4.83277403 10.6228748,4.83832993 C10.6400363,4.86919603 10.653247,4.9036426 10.675841,4.92994052 C10.6944842,4.95179372 10.7236218,4.96537481 10.7502901,4.97809164 C10.7530063,4.97932629 10.7830081,4.94166964 10.7790573,4.93524949 C10.7642415,4.9112974 10.7421414,4.89104923 10.7197944,4.8727765 C10.696583,4.85376298 10.6700382,4.83857686 10.6449749,4.8217857 M8.20939248,1.8472811 C8.15556199,1.82320554 8.10173151,1.79925344 8.03036908,1.76739963 C8.03802387,1.93432351 8.11988078,1.90160544 8.20939248,1.8472811 M10.0465429,3.06192398 C9.98567496,3.02550198 9.94999375,2.98821573 9.91492986,2.98870958 C9.89036044,2.98907998 9.86640834,3.04105849 9.84220932,3.06994917 C9.87542124,3.09686441 9.9054231,3.13452105 9.94332667,3.14612671 C9.96085862,3.15155914 9.99407054,3.10649463 10.0465429,3.06192398 M11.5073738,1.80851328 C11.5218192,1.79950037 11.5362645,1.79048747 11.5505864,1.78147457 C11.5318198,1.70690206 11.5130532,1.63232956 11.4849033,1.52071773 C11.4413204,1.58133876 11.3926754,1.62356359 11.4004537,1.64307096 C11.4244058,1.7029512 11.4700876,1.75406547 11.5073738,1.80851328 M11.7788721,4.84993559 C11.8389992,4.91944605 11.879619,4.97093071 11.9265355,5.01611868 C11.9345607,5.02389694 11.9871565,5.00624153 11.9880208,4.99722863 C11.9938236,4.93932382 11.9909839,4.88067822 11.9909839,4.82104491 C11.9165349,4.83116899 11.8703592,4.83746568 11.7788721,4.84993559 M12.2259367,4.68708603 C12.1328445,4.77091836 12.1187696,4.84549087 12.2114914,4.90981582 C12.2275417,4.92117455 12.2876689,4.90413646 12.2956941,4.88611066 C12.3335977,4.80030289 12.2916198,4.73869415 12.2259367,4.68708603 M11.3566238,5.50466736 C11.3319309,5.55788052 11.3073615,5.58862316 11.3142755,5.59998188 C11.3515617,5.66072637 11.3967497,5.71665575 11.4392215,5.77431363 C11.4574942,5.75171965 11.4961386,5.71826079 11.4908296,5.70838364 C11.4573707,5.64615757 11.4141582,5.58911702 11.3566238,5.50466736 M7.87702628,1.1413116 C7.95196918,1.01834104 7.89159508,0.926853914 7.85467922,0.841046148 C7.82010919,0.76079428 7.74059811,0.757213812 7.65935853,0.77030104 C7.59021845,0.781412837 7.53564718,0.869319498 7.58429216,0.91389015 C7.67281615,0.995006269 7.77368657,1.06241784 7.87702628,1.1413116 M12.3354496,0.644984662 C12.3363139,0.642638839 12.3466849,0.612636987 12.3713778,0.540657235 C12.4359497,0.615353204 12.4838539,0.670418331 12.5317581,0.725730388 C12.5424995,0.715606306 12.5585498,0.700420183 12.5720075,0.687579884 C12.6379374,0.770424504 12.6925087,0.85623227 12.7638711,0.924631554 C12.8535063,1.01043932 12.9367213,1.42268699 12.9136335,1.53689157 C12.8899283,1.6536889 12.9185721,1.78110418 12.9244983,1.9038278 C12.9247453,1.9076552 12.9289431,1.91172952 12.9284492,1.91530999 C12.8944965,2.15964606 13.066359,2.37558532 13.0116642,2.63140358 C12.9786992,2.78561063 13.0237637,2.95660884 13.0332705,3.12007572 C13.0401845,3.24033005 13.0451231,3.36083132 13.0529013,3.48108566 C13.0637662,3.64899726 13.0756188,3.81703232 13.0885826,3.98482045 C13.102781,4.16927629 13.138956,4.35459637 13.1298197,4.53769409 C13.1105592,4.92574273 13.1677232,5.30761816 13.1898234,5.6922098 C13.1927865,5.74369446 13.1784646,5.79641376 13.1693283,5.84814535 C13.1440181,5.991611 13.1261157,6.13359507 13.1847613,6.27483836 C13.237851,6.40311788 13.1729087,6.51485317 13.1292023,6.63004547 C13.0875948,6.7395584 13.0559879,6.84425622 13.1452527,6.95685577 C13.1805635,7.00142642 13.1688344,7.08723418 13.1698221,7.15452229 C13.1725384,7.34379323 13.1708098,7.53318764 13.1708098,7.72171779 C13.105991,7.73468156 13.0473454,7.75369508 12.9880825,7.75579397 C12.9453638,7.75739901 12.8936322,7.74776878 12.8606672,7.7234463 C12.8028859,7.68072761 12.7579449,7.6210943 12.7047317,7.57158507 C12.5466972,7.42478588 12.3744644,7.29095046 12.2319865,7.13032326 C12.0653095,6.94278082 11.9233254,6.73313825 11.7728223,6.53152087 C11.7199796,6.46077576 11.671705,6.38657365 11.6242946,6.31212461 C11.5566361,6.20594522 11.5745385,6.1428549 11.6633094,6.04926888 C11.6902246,6.02087206 11.6956571,5.94444759 11.6765201,5.90790213 C11.6567658,5.86987509 11.5975029,5.8455526 11.5507098,5.83320616 C11.5378695,5.82987262 11.5081146,5.89086404 11.4752731,5.93778051 C11.419961,5.88827129 11.3493394,5.83592237 11.2919284,5.77159742 C11.1122877,5.56998003 10.927338,5.37169619 10.7636242,5.15736197 C10.5392894,4.8637636 10.236925,4.64856513 10.0032069,4.36336234 C9.81640526,4.13532357 9.58676145,3.94284255 9.38551446,3.72579212 C9.25316061,3.5829438 9.13772139,3.42453896 9.01462737,3.27304812 C8.99684849,3.25119492 8.9836378,3.22144 8.96079689,3.2085997 C8.66855662,3.0441451 8.47484096,2.78178323 8.27112468,2.52744654 C8.17346433,2.40558717 8.05629661,2.29953124 7.95419154,2.1810054 C7.83159138,2.0387744 7.71652255,1.89024672 7.5966386,1.74579335 C7.55342606,1.69381484 7.50416376,1.64689836 7.46045736,1.59529024 C7.39884862,1.5225697 7.34032649,1.44725641 7.27945853,1.37391855 C7.25896344,1.34934913 7.23871528,1.32194003 7.21241736,1.30490194 C7.00771336,1.17106652 6.88461934,0.964880952 6.74794424,0.773140722 C6.64559224,0.629675075 6.6734952,0.575350734 6.83819672,0.53213819 C6.88017462,0.521149858 6.9219056,0.503494447 6.95906838,0.481147389 C7.19340384,0.33928678 7.43848069,0.220390552 7.71059626,0.177548401 C7.8707296,0.152485125 8.02555397,0.137052074 8.18371188,0.0771718345 C8.3359435,0.0195139544 8.5218809,0.0490219487 8.69312604,0.0445772299 C8.78152656,0.0422314061 8.87029747,0.0463057317 8.95857453,0.0524789523 C9.20575028,0.0696405055 9.45255564,0.0908763842 9.69973139,0.106926758 C9.75331494,0.110260297 9.81220747,0.110136832 9.86122284,0.0917406351 C10.1296345,-0.00950018225 10.3943422,-0.0306125966 10.6780634,0.0467995893 C10.8349867,0.0896417401 11.0112938,0.0585287084 11.1784646,0.0677885393 C11.3140286,0.075196404 11.4615685,0.0101306592 11.5683653,0.180017689 C11.6077504,0.242861075 11.7471417,0.269282459 11.8391227,0.26594892 C11.9515988,0.26175113 12.0403697,0.257182946 12.1113617,0.363485805 C12.1791437,0.464850086 12.263223,0.555472964 12.3354496,0.644984662" id="Fill-5"></path>
                <path d="M1.27259391,11.1854378 C1.25617314,11.1891417 1.23962891,11.1929691 1.22320815,11.1965496 C1.24333284,11.2948272 1.26345754,11.3931049 1.28358224,11.4913826 C1.29765719,11.4884194 1.31173213,11.4855798 1.32580707,11.4826166 C1.30815166,11.3835982 1.29037279,11.2845797 1.27259391,11.1854378 M2.17499529,10.9388793 C2.1635131,10.9438179 2.15203091,10.948633 2.14054872,10.9535716 C2.17548915,11.0422191 2.21042958,11.130743 2.24537001,11.219267 C2.26833439,11.1092602 2.27450761,11.0056736 2.17499529,10.9388793 M3.73077034,8.77504207 C3.61421994,8.87048006 3.55927827,9.16679465 3.62187473,9.26803547 C3.64051786,9.29803732 3.69632377,9.33742247 3.71410265,9.32890342 C3.75496937,9.30927258 3.81410882,9.25951642 3.81089874,9.22778607 C3.79583609,9.08296232 3.76200684,8.94011399 3.73077034,8.77504207 M6.96220438,7.56262155 C7.0141829,7.80967384 6.86195128,7.92622425 6.71515209,8.04870094 C6.58415635,8.15809041 6.45809919,8.27340617 6.33068392,8.38711689 C6.31944865,8.39724097 6.30920111,8.41477292 6.30846032,8.42934172 C6.29907703,8.59429018 6.18104505,8.69046895 6.08239698,8.80171039 C5.97671145,8.92097701 5.88411314,9.05184928 5.77904493,9.17160976 C5.73361002,9.22346482 5.65990177,9.25186163 5.61915851,9.30606251 C5.53631389,9.41631623 5.46816154,9.53755828 5.391984,9.65287404 C5.3572905,9.70559334 5.3187696,9.75584336 5.2806191,9.80609337 C5.16641452,9.95671995 5.05146915,10.1069761 4.93652378,10.2571089 C4.91960916,10.2793325 4.90220068,10.3015561 4.88244637,10.3211869 C4.73700529,10.4644056 4.59292233,10.6092294 4.44377732,10.7487442 C4.3952558,10.7940556 4.32957274,10.82023 4.27845847,10.8631957 C4.2277146,10.9057909 4.1780819,10.9535716 4.14104258,11.0080194 C4.05029624,11.1416079 3.96794547,11.2807523 3.87979189,11.4161928 C3.86868009,11.4332309 3.83978942,11.4376756 3.82522062,11.453479 C3.76496998,11.519409 3.69150866,11.5792892 3.65162965,11.656331 C3.56545149,11.8225141 3.45334581,11.9561026 3.30518851,12.0738877 C3.183823,12.1704369 3.09579287,12.3093343 2.99603363,12.4319345 C2.90145989,12.547991 2.8115778,12.6679984 2.7182387,12.7850427 C2.47316185,13.0924691 2.23524593,13.4063156 1.97695838,13.7023833 C1.89115061,13.8007844 1.75632747,13.8625166 1.63348038,13.9179521 C1.60421932,13.9311628 1.50952212,13.8635043 1.48532309,13.8135012 C1.35951286,13.5538556 1.21333099,13.2970496 1.13715345,13.0218474 C1.02356619,12.6112048 0.874791576,12.2161187 0.718979489,11.8215264 C0.651197527,11.6501578 0.593416183,11.4743445 0.537239876,11.2985312 C0.454395256,11.0387621 0.376489212,10.7772644 0.297965846,10.5161372 C0.283026653,10.4661341 0.272408713,10.414526 0.264877384,10.3629179 C0.225986095,10.0973459 0.193638419,9.83053933 0.148450444,9.56607856 C0.131659284,9.46804781 0.0793103739,9.37668415 0.0542470984,9.27939419 C-0.0204488705,8.98962322 -0.00612699879,8.69577792 0.0267145346,8.40217955 C0.0584448884,8.1185818 0.0979535,7.83560137 0.124127955,7.55150976 C0.140548722,7.37273329 0.171661754,7.33828672 0.341919177,7.33816325 C0.699595577,7.33779286 1.05727198,7.3282861 1.41507184,7.32902689 C1.70620092,7.32964421 1.99745347,7.34470687 2.28858255,7.34421301 C2.6762608,7.34371915 3.06430945,7.32248327 3.45149384,7.33248389 C3.7839835,7.3411264 4.11536198,7.38372162 4.44772818,7.40594522 C4.62020796,7.41742741 4.79441624,7.4087849 4.96640217,7.42458834 C5.26197597,7.45150358 5.55569781,7.49903738 5.85139507,7.52224869 C6.14993202,7.54570693 6.450074,7.55052204 6.7494752,7.56225116 C6.81997338,7.56496738 6.89059502,7.56262155 6.96220438,7.56262155" id="Fill-7"></path>
                <path d="M18.9207697,8.17383212 C18.9066948,8.1749433 18.8924964,8.17605448 18.8784214,8.17716566 L18.8784214,8.52644648 L18.9207697,8.52595262 L18.9207697,8.17383212 Z M17.2993116,9.55502849 C17.3105469,9.56527604 17.3215352,9.57552358 17.3327705,9.58577113 C17.3807981,9.55613967 17.4454935,9.53601497 17.4701864,9.49292589 C17.4829032,9.47107269 17.4235168,9.40798238 17.396725,9.36341173 C17.3832674,9.36760952 17.3698098,9.37180731 17.3563522,9.3760051 C17.3373386,9.43563841 17.3183251,9.49527172 17.2993116,9.55502849 Z M15.6831625,12.1165446 C15.6693344,12.1193843 15.6555064,12.122224 15.6416784,12.1250637 C15.6282208,12.1611153 15.6062441,12.1963026 15.6030341,12.2332185 C15.5972312,12.3023586 15.6176029,12.3717456 15.7016821,12.3635969 C15.7399561,12.3597695 15.8082319,12.2895183 15.8032933,12.2803819 C15.7724272,12.2208721 15.7251404,12.1701282 15.6831625,12.1165446 Z M16.101213,11.7520777 C16.0909654,11.6740482 16.0794832,11.5893516 16.0687418,11.5047785 C16.0598524,11.4348976 16.0223192,11.3795856 15.9524383,11.4042784 C15.9218192,11.4151433 15.8992252,11.4910739 15.8998425,11.5371262 C15.9007068,11.6028092 15.9262639,11.6682454 15.9393511,11.7256563 C16.0025649,11.7360273 16.0555311,11.7446698 16.101213,11.7520777 Z M14.9715136,12.9056057 L13.9018179,12.9056057 C13.8921877,12.7652267 13.9474998,12.649664 14.0410858,12.5405214 C14.2375177,12.3113715 14.4185165,12.0687639 14.6187758,11.8431944 C14.86768,11.5629302 15.1373263,11.3010622 15.3837613,11.0188226 C15.5961201,10.7755977 15.8432958,10.5658316 16.0284924,10.2949507 C16.2110963,10.0277737 16.4307395,9.78603041 16.6323569,9.53181718 C16.7843415,9.34020042 16.9311407,9.14450932 17.0849774,8.95437413 C17.2738779,8.72127332 17.4771004,8.49916085 17.6563707,8.25902257 C17.8214426,8.03789781 17.9557719,7.79417906 18.1171399,7.57009115 C18.2352953,7.40600695 18.38728,7.26599831 18.5025958,7.10030907 C18.664828,6.86708479 18.9302765,6.72337222 19.0454688,6.44779965 C19.0738656,6.3796473 19.1721433,6.33878058 19.2422711,6.29087638 C19.2847428,6.26173878 19.3352398,6.24457723 19.3811685,6.21963742 C19.5438946,6.1312369 19.6976078,6.19630265 19.7430427,6.37816572 C19.7857614,6.54867008 19.8324309,6.71905096 19.8602104,6.892395 C19.9104604,7.20550074 20.0223192,7.49527172 20.1391165,7.78825277 C20.2146768,7.9778941 20.2207265,8.19630265 20.250358,8.40285861 C20.2827056,8.62953926 20.2831995,8.8632574 20.3381412,9.0838883 C20.4846934,9.67071465 20.498398,10.2703813 20.5377831,10.8673317 C20.5587721,11.1858699 20.5585251,11.5076182 20.5416105,11.8265267 C20.527659,12.0902467 20.4844465,12.3535963 20.4358015,12.6134889 C20.4093801,12.7542383 20.2788782,12.8102912 20.128869,12.8095504 C19.9373757,12.8086861 19.7460058,12.8296751 19.5543891,12.836836 C19.2830143,12.8468366 19.0115161,12.8537506 18.7400178,12.8604177 C18.5390178,12.8653563 18.3375238,12.8606646 18.1371411,12.8736284 C17.9789832,12.883876 17.8220599,12.9319036 17.6645193,12.9321505 C17.4288258,12.9323975 17.1931322,12.9051118 16.9573152,12.8900492 C16.8811376,12.8852341 16.8038489,12.8721468 16.7290295,12.8802955 C16.5542039,12.8996794 16.3808599,12.9330148 16.2061577,12.9541272 C16.1061515,12.9662267 16.0046638,12.9707949 15.9039168,12.9698072 C15.6587165,12.9675848 15.4133927,12.9630166 15.1683159,12.953016 C15.1117692,12.9506702 15.0311469,12.9520283 15.0523828,12.847207 C15.0541113,12.8383176 14.9965769,12.8114023 14.9641057,12.8048587 C14.9496604,12.8018956 14.9292888,12.8293047 14.9116334,12.8427623 C14.9311407,12.8631339 14.9505246,12.883629 14.9715136,12.9056057 Z" id="Fill-9"></path>
                <path d="M5.84692566,11.9660168 C5.86754422,11.9529296 5.88803931,11.9397189 5.90865786,11.9266317 C5.88124877,11.8846538 5.85532124,11.8414412 5.82383781,11.8029203 C5.82087467,11.7992164 5.78223031,11.824897 5.76013018,11.8368731 L5.84692566,11.9660168 Z M5.67827327,14.3144334 C5.74556138,14.366165 5.78321802,14.3953026 5.84235748,14.4407375 C5.85161731,14.3657946 5.85742013,14.3181373 5.86717382,14.2402313 C5.7971695,14.2677638 5.75124074,14.2856662 5.67827327,14.3144334 Z M3.38702073,14.4213536 C3.43986349,14.366165 3.47640896,14.3281379 3.51295443,14.289864 C3.48085368,14.2645538 3.43961657,14.2119579 3.41850415,14.2192423 C3.36825414,14.236157 3.32738742,14.2813449 3.28281676,14.3149273 C3.31071972,14.343571 3.33874614,14.3719678 3.38702073,14.4213536 Z M3.20700961,14.5870428 C3.19231735,14.5581521 3.1841687,14.5170385 3.16108085,14.5054328 C3.14367237,14.4967903 3.10465762,14.5221005 3.0800882,14.5392621 C3.04477738,14.5638315 3.00366373,14.5890182 2.98415635,14.6244525 C2.96588362,14.6576645 2.9579819,14.7107542 2.97230377,14.7434722 C2.98736643,14.7779188 3.03341865,14.8177978 3.06737137,14.8190324 C3.09663243,14.8202671 3.13700529,14.7758199 3.15601881,14.7421141 C3.18046477,14.6985312 3.18873688,14.6455649 3.20700961,14.5870428 Z M5.1057688,13.7471144 C5.22367731,13.6978521 5.18355138,13.5852526 5.18281059,13.4915431 C5.1824402,13.4436389 5.18947767,13.3752396 5.094657,13.3827709 C5.0051453,13.3898084 4.97501999,13.4430216 4.97069873,13.5136432 C4.96477244,13.6096985 4.97020487,13.7076058 5.1057688,13.7471144 Z M4.34831463,15.4748754 C4.20879985,15.4859872 4.13015302,15.5538926 4.10879368,15.6519234 C4.08607622,15.7563743 4.15805598,15.797241 4.22608487,15.8348976 C4.30411437,15.8782336 4.40300937,15.8215635 4.39535457,15.7393362 C4.38695899,15.6498245 4.36436501,15.5616709 4.34831463,15.4748754 Z M6.43288776,9.77489392 C6.48042155,10.0031796 6.60512061,10.1735605 6.55943878,10.4003646 C6.53375818,10.5282738 6.60314518,10.6737148 6.62092405,10.8123654 C6.64759237,11.0222549 6.66290195,11.2336259 6.68994066,11.4436389 C6.70870725,11.5909319 6.73512863,11.7376077 6.76513049,11.8832957 C6.79081108,12.008859 6.83217166,12.1313357 6.85587683,12.2570224 C6.88439711,12.4081429 6.90168213,12.5613622 6.92341186,12.7137173 C6.93365941,12.7850797 6.95353718,12.8570595 6.95020364,12.9278046 C6.94612931,13.0142297 6.91810289,13.0992967 6.90847267,13.1857217 C6.90069441,13.2560965 6.90390448,13.3278293 6.90365756,13.3989448 C6.90304023,13.5511764 6.89501505,13.7039019 6.90575645,13.8553927 C6.91637439,14.0060193 6.9721803,14.1568928 6.96304394,14.3049266 C6.92946162,14.8461946 7.03909802,15.377215 7.05971657,15.9141618 C7.07268033,16.2507258 7.11613981,16.5866724 7.11922642,16.9229895 C7.12157224,17.1805362 7.07823623,17.4382065 7.06366743,17.6963706 C7.05971657,17.767733 7.08675528,17.8408239 7.0984844,17.913421 C7.1092258,17.9798448 7.12515271,18.0463922 7.1272516,18.1133099 C7.13058514,18.2180077 7.11786831,18.3231994 7.12391807,18.4276503 C7.13070861,18.5451884 7.12651082,18.6490219 6.99181115,18.695815 C6.97341495,18.7022351 6.96045119,18.7313727 6.94983325,18.7524851 C6.87118642,18.9089145 6.75253712,18.9708937 6.58548977,18.9153347 C6.47079133,18.8773076 6.357451,18.8219956 6.25818561,18.7533494 C6.04422179,18.6053155 5.83988819,18.4437006 5.6313568,18.2878885 C5.60542927,18.2686281 5.58061292,18.2451699 5.55122839,18.2338111 C5.31454712,18.140472 5.14058576,17.958362 4.95094443,17.8011918 C4.8389622,17.7082231 4.76327852,17.5714246 4.65104937,17.4788263 C4.50239822,17.3562261 4.35436439,17.2322678 4.17620524,17.1437438 C4.07224821,17.0920123 3.99347792,16.9785485 3.91976966,16.8805177 C3.84075244,16.7756964 3.7881566,16.6542075 3.64518481,16.6101307 C3.58703307,16.5923518 3.53764731,16.5398794 3.48924926,16.4974077 C3.11255934,16.1670169 2.70808993,15.8652699 2.41449156,15.4485775 C2.36004375,15.3712888 2.26732198,15.3215326 2.21003449,15.2454785 C2.09261984,15.089296 2.09187905,14.950522 2.20188584,14.7886602 C2.31917703,14.6163039 2.43424586,14.440614 2.56857514,14.2818388 C2.71549779,14.1080009 2.88884183,13.9566335 3.04094998,13.7869934 C3.25800042,13.5450032 3.4651737,13.2944939 3.67913752,13.049664 C3.71234945,13.0117604 3.76383411,12.9900307 3.79840415,12.9528679 C3.87964373,12.8658255 3.95816709,12.7760668 4.03335692,12.6837154 C4.18719358,12.4948149 4.3411537,12.3061613 4.48931099,12.112816 C4.73302974,11.7948952 4.97193338,11.4733938 5.21318284,11.153621 C5.30899122,11.0266996 5.40504653,10.8999016 5.50245995,10.7743383 C5.52678244,10.7428549 5.55135186,10.7022351 5.58505764,10.6887775 C5.91495455,10.5580287 6.02755409,10.2236871 6.24645649,9.98959853 C6.30362052,9.92848364 6.35633982,9.86329443 6.43288776,9.77489392 Z" id="Fill-12"></path>
                <path d="M16.610516,3.92461921 C16.6795326,3.95005288 16.7291653,3.96832561 16.802997,3.99548778 C16.7211401,3.85399756 16.7105222,3.85017017 16.610516,3.92461921 M15.538598,7.02666254 C15.54045,7.02690947 15.5424254,7.02703294 15.5442773,7.0271564 C15.5423019,7.05123196 15.5345237,7.07678909 15.5398326,7.09901269 C15.5488455,7.13642241 15.566254,7.17173323 15.580082,7.2079083 C15.6181091,7.19284564 15.6856441,7.18272156 15.6892246,7.16185607 C15.7062627,7.05863983 15.7113247,6.95233697 15.7076208,6.84763915 C15.7070034,6.83035413 15.6418142,6.80640203 15.6051453,6.80368582 C15.5894653,6.80257464 15.5608216,6.84541679 15.5545249,6.87220857 C15.5429192,6.92221165 15.5432896,6.97505442 15.538598,7.02666254 M14.8679393,5.52632302 C14.8715198,5.52595262 14.8752237,5.52558223 14.8788042,5.52521184 C14.8633711,5.41372347 14.8476911,5.30211165 14.8322581,5.19062328 C14.8229983,5.12358211 14.8275664,5.03221844 14.7363262,5.03987324 C14.7032378,5.04271292 14.6776806,5.13827437 14.6496542,5.19210486 C14.6463207,5.198525 14.6481726,5.20803176 14.648543,5.21593349 C14.6564448,5.40853797 14.6594079,5.60138938 14.6761991,5.79300615 C14.6801499,5.83831758 14.7307703,5.8795547 14.7599079,5.92276724 C14.791021,5.8791843 14.839419,5.83918184 14.8496666,5.79115418 C14.8678158,5.70534641 14.8631242,5.614847 14.8679393,5.52632302 M14.4059355,10.4414412 C14.3096332,10.4040315 14.2371596,10.3760051 14.1796252,10.353658 C14.1796252,10.0630228 14.1725877,9.77596806 14.1818476,9.48928369 C14.1887616,9.26988743 14.0956694,9.04863921 14.1928359,8.83121838 C14.1309802,8.35563347 14.2948175,7.89140728 14.2549385,7.41273576 C14.2312333,7.1277799 14.3007438,6.8356631 14.3235847,6.54626252 C14.3308691,6.45539271 14.3228439,6.36328826 14.3221031,6.27167767 C14.3217327,6.23537913 14.3130902,6.19599398 14.3238316,6.16315245 C14.4317395,5.83041586 14.3139545,5.50767989 14.282718,5.18148692 C14.2504938,4.84652797 14.1811068,4.51156902 14.1866627,4.17759779 C14.192589,3.81621745 14.1613525,3.46397349 14.1115963,3.10814906 C14.0793721,2.87751753 14.1101147,2.63836697 14.0812241,2.40699466 C14.0299863,1.99536432 14.1540681,1.6002782 14.166538,1.19593225 C14.1687603,1.12210053 14.2016019,1.08481428 14.2600005,1.08345617 C14.3304987,1.08209806 14.4123556,1.08555507 14.4702604,1.11950778 C14.6297765,1.21334073 14.7780572,1.32581681 14.933005,1.42730456 C15.0454811,1.50101281 15.1630192,1.56681934 15.2756188,1.64003374 C15.4668652,1.7643624 15.6567534,1.89066649 15.8457774,2.0183287 C16.0285048,2.14179311 16.2088863,2.26871452 16.3916136,2.3923024 C16.461371,2.43958927 16.5316222,2.48786385 16.607059,2.52502664 C16.8342335,2.63700886 16.9683159,2.85208387 17.1535125,3.01036524 C17.2601857,3.10148198 17.351179,3.21198263 17.4619266,3.2970496 C17.7044107,3.48298701 17.9017068,3.70892688 18.0593709,3.96635018 C18.0986326,4.03030474 18.072952,4.13401485 18.0773967,4.22673662 C18.2093801,4.2479725 18.2701246,4.35020103 18.3542039,4.45119492 C18.510016,4.6386139 18.4674208,4.87270242 18.5592783,5.06938123 C18.5689085,5.08999979 18.5750817,5.12160668 18.5663157,5.1402498 C18.449148,5.38594398 18.4316161,5.68756754 18.2112321,5.87165298 C18.1255478,5.94326233 18.1067812,6.02215609 18.0608524,6.10388953 C17.9892431,6.2316752 17.8782486,6.33674341 17.7983671,6.46070168 C17.6430489,6.70195114 17.4379745,6.89233326 17.2322828,7.08901207 C17.0237514,7.2884071 16.7964534,7.48520937 16.6922494,7.77238759 C16.6869405,7.78707985 16.6778041,7.80979731 16.6671862,7.81177274 C16.4547039,7.85239253 16.4165534,8.07401115 16.279261,8.19587052 C16.0366534,8.41119245 15.8389869,8.67948062 15.6345298,8.93517542 C15.4197018,9.20371051 15.2235168,9.48706133 15.0104172,9.75720147 C14.8800388,9.92264378 14.7337335,10.0754927 14.5938483,10.2335272 C14.5280418,10.3078527 14.4607537,10.3808202 14.4059355,10.4414412" id="Fill-14"></path>
                <path d="M11.5482899,17.1369286 C11.5061886,17.1766842 11.4831007,17.1984139 11.4600129,17.2201436 C11.5114975,17.256936 11.5629822,17.2936049 11.6144669,17.3301504 C11.6292826,17.3061983 11.6623711,17.271011 11.655704,17.2600226 C11.6303938,17.2185386 11.5921198,17.1849563 11.5482899,17.1369286 M11.4680381,17.9146309 C11.4553212,17.916236 11.4426044,17.9180879 11.4298876,17.9199399 C11.4082813,17.9783386 11.3790202,18.0357495 11.36939,18.0962471 C11.3660565,18.1168656 11.412726,18.1664983 11.4348261,18.1653872 C11.46989,18.1636587 11.5349558,18.1252612 11.53261,18.1119271 C11.5207574,18.0445155 11.4913728,17.9800671 11.4680381,17.9146309 M9.99263836,15.9529049 C9.9428822,16.0631586 9.87793992,16.1484725 9.87065552,16.238725 C9.86300073,16.3326814 9.9172016,16.4303418 9.93251119,16.5282491 C9.95177164,16.6513431 10.0319,16.6765298 10.1409191,16.6828265 C10.1704271,16.429601 10.160303,16.1926728 9.99263836,15.9529049 M7.8332458,13.3623746 C8.00856527,13.3328666 8.13079503,13.4002782 8.24006104,13.5038648 C8.32451069,13.5841167 8.40513296,13.6691837 8.49526198,13.7425215 C8.54044995,13.7793139 8.60316987,13.8152421 8.65774114,13.8149952 C8.7584881,13.8146248 8.79515703,13.869443 8.85133334,13.9399411 C8.97961286,14.1009387 9.13406684,14.2407004 9.27210005,14.3941667 C9.41075059,14.5482503 9.54236365,14.7086306 9.67693986,14.8664181 C9.81707196,15.0308727 9.95732754,15.1952038 10.0967189,15.3603992 C10.1756126,15.4539852 10.2468516,15.5549791 10.3321655,15.6420215 C10.4471109,15.7591892 10.5719334,15.8666033 10.693052,15.9774743 C10.8141706,16.0883454 10.935783,16.1987225 11.0576424,16.3088528 C11.218393,16.4541704 11.3785264,16.5998584 11.5413759,16.7427067 C11.5633526,16.7619672 11.6018735,16.7611029 11.6290357,16.7760421 C11.6545928,16.7899936 11.6806438,16.8087602 11.697188,16.831848 C11.7602783,16.9211128 11.8143557,17.0170447 11.8816439,17.1029759 C11.9852305,17.2353297 12.0891875,17.3687948 12.2066022,17.4885553 C12.5004475,17.7884503 12.7616982,18.1130382 12.9812179,18.4708381 C13.0438144,18.5728197 13.0908543,18.6854193 13.161229,18.7811042 C13.2144422,18.8534543 13.2967929,18.9039513 13.360624,18.9693874 C13.471742,19.0833451 13.5795264,19.2005128 13.6855824,19.3191621 C13.6960768,19.3310147 13.6928668,19.3673132 13.6823723,19.383487 C13.615578,19.4873206 13.4923606,19.5817709 13.3554385,19.5648563 C13.2486418,19.551769 13.1357953,19.565597 13.0286282,19.5843636 C12.8547903,19.6149828 12.677372,19.6427623 12.5123001,19.7019018 C12.2520371,19.7953643 11.980045,19.7720295 11.71472,19.8090689 C11.6119976,19.8233907 11.5001388,19.7952409 11.3959349,19.7716591 C11.277656,19.7447439 11.1634514,19.6964693 11.0541854,19.7933889 C11.0441847,19.8021549 11.0229489,19.8019079 11.0075158,19.800056 C10.8219488,19.7789435 10.6367522,19.7547445 10.4510617,19.735731 C10.3174732,19.7220265 10.1824032,19.7211622 10.049432,19.7032599 C9.85411129,19.6770854 9.65311123,19.662887 9.46742075,19.6032537 C9.24148088,19.5306566 9.0283813,19.4174398 8.8112074,19.3186682 C8.77984744,19.3043464 8.75972275,19.2666897 8.72898011,19.2494047 C8.65465453,19.2075503 8.57872392,19.1677947 8.50032402,19.1345828 C8.45340754,19.1145816 8.40118209,19.1053217 8.35043822,19.0965557 C8.06893936,19.0477873 8.11091726,18.8192547 8.10301554,18.6317122 C8.0889406,18.3031734 8.09153335,17.9737704 8.09029871,17.6447377 C8.08992831,17.5765854 8.11375694,17.5071984 8.10807758,17.4399103 C8.08190313,17.1282861 8.09276799,16.804192 8.00486133,16.5100998 C7.93683244,16.2825549 7.84472799,16.0671095 7.8388017,15.8246254 C7.83262848,15.579672 7.82312172,15.3343482 7.80472552,15.0900121 C7.77101974,14.6404782 7.77003202,14.1926728 7.83077651,13.7447439 C7.84732074,13.6223907 7.8332458,13.4959631 7.8332458,13.3623746" id="Fill-16"></path>
            </g>
        </g>
    </g>
</svg>