
<svg width="30px" height="20px" viewBox="0 0 30 20" version="1.1" xmlns="http://www.w3.org/2000/svg" xmlns:xlink="http://www.w3.org/1999/xlink">
    <!-- Generator: Sketch 49 (51002) - http://www.bohemiancoding.com/sketch -->
    <desc>Created with Sketch.</desc>
    <defs>
        <polygon id="path-1" points="2.38095238e-05 0.0331786232 29.9250794 0.0331786232 29.9250794 20 2.38095238e-05 20"></polygon>
        <polygon id="path-3" points="5.55555556e-05 0.0331746032 29.9250556 0.0331746032 29.9250556 19.9999947 5.55555556e-05 19.9999947"></polygon>
    </defs>
    <g id="Design-mocks" stroke="none" stroke-width="1" fill="none" fill-rule="evenodd">
        <g id="settings" transform="translate(-91.000000, -330.000000)">
            <g id="Page-1" transform="translate(91.000000, 330.000000)">
                <g id="Group-3">
                    <mask id="mask-2" fill="white">
                        <use xlink:href="#path-1"></use>
                    </mask>
                    <g id="Clip-2"></g>
                    <path d="M14.523754,3.50943651 C14.2839921,3.15348413 14.1006587,2.75856349 13.8097857,2.47340476 C13.0060556,1.68554762 12.1023254,1.01451587 11.1212143,0.459992063 C10.8084365,0.283166667 10.4634365,0.108007937 10.1154206,0.0593571429 C8.95684921,-0.102468254 7.97851587,0.525071429 6.93629365,0.868642857 C6.86676984,0.891579365 6.81081746,0.961896825 6.7539127,1.01578571 C5.95557937,1.77038889 5.16930952,2.53816667 4.35542063,3.27562698 C4.00883333,3.5896746 3.71319841,3.93761111 3.65319841,4.39030952 C3.60248413,4.77292857 3.39788095,4.96499206 3.09121429,5.07205556 C2.64875397,5.2265 2.19224603,5.3417381 1.73930952,5.46475397 C1.46605556,5.53896032 1.10692857,5.51364286 0.934547619,5.68356349 C0.750738095,5.86451587 0.741611111,6.22284921 0.658992063,6.49443651 C0.45097619,6.6165 0.23065873,6.74578571 2.38095238e-05,6.88118254 C0.0539920635,7.05253175 0.103436508,7.17292857 0.129230159,7.29824603 C0.227880952,7.77634127 0.306373016,8.25888095 0.417166667,8.73403968 C0.488436508,9.03983333 0.698198413,9.27284921 1.01153175,9.30316667 C1.66613492,9.3667381 1.99319841,9.84959524 2.22240476,10.3307063 C2.79462698,11.5319762 3.35915079,12.7376111 3.48970635,14.1052302 C3.57700794,15.0199127 4.08113492,15.7420556 4.96097619,16.1060238 C5.25740476,16.2286429 5.41629365,16.3889603 5.55121429,16.6750714 C5.98557937,17.5957063 6.53605556,18.3677698 7.65534127,18.6075317 C8.4923254,18.7868175 9.28034127,19.1828492 10.1060556,19.4288016 C11.6562143,19.8905476 13.2423254,20.1080873 14.8612143,19.9475317 C15.484627,19.885627 16.1035159,19.6830873 16.7223254,19.6919762 C17.6894683,19.7059444 18.608119,19.5588016 19.5179603,19.2519762 C19.8381984,19.1439603 20.1986746,19.1589603 20.5238333,19.0615 C21.1735952,18.8666587 21.8166905,18.6461032 22.4523254,18.4089603 C22.7169286,18.3102302 22.9416905,18.0931667 23.2093889,18.0172937 C23.5595476,17.9181667 23.7100238,17.7326111 23.816373,17.3855476 C24.0847063,16.5100714 24.4169286,15.654119 24.7226429,14.7900714 C24.9853413,14.0472143 25.2626429,13.3119762 25.718754,12.6584048 C25.7740714,12.579119 25.7619286,12.4560238 25.8042302,12.363881 C26.2110556,11.4778492 26.3580397,10.4430079 27.3112937,9.81094444 C27.2393095,9.45372222 27.1658968,9.08943651 27.0843889,8.68507143 C27.4711349,8.37554762 27.8994683,8.02681746 28.3358175,7.68840476 C28.4160556,7.6262619 28.5373254,7.55784921 28.6248651,7.57372222 C29.2644683,7.6896746 29.5678016,7.23221429 29.9251032,6.87642063 C29.612881,5.88721429 29.5332778,5.83800794 28.5838333,6.01023016 C28.427881,6.03856349 28.2655,6.04086508 28.1142302,6.08364286 C27.8352619,6.16237302 27.6316905,6.05261111 27.386373,5.92038889 C26.6985159,5.54975397 26.3348651,4.89848413 25.9408968,4.29499206 C25.3556587,3.39848413 24.9970079,2.37046825 24.3850238,1.47975397 C24.2097063,1.22459524 24.0181984,1.07086508 23.7477222,0.939515873 C23.0503413,0.600944444 22.3058175,0.44602381 21.5536746,0.329277778 C21.0401032,0.249515873 20.5141508,0.192611111 19.9965317,0.209674603 C18.9943889,0.242769841 18.138119,0.743880952 17.2448651,1.1365 C16.1516905,1.61697619 15.2503413,2.28221429 14.7124841,3.37761111 C14.6832778,3.43705556 14.5899444,3.46499206 14.523754,3.50943651" id="Fill-1" fill="#FFFFFF" mask="url(#mask-2)"></path>
                </g>
                <g id="Group-6">
                    <mask id="mask-4" fill="white">
                        <use xlink:href="#path-3"></use>
                    </mask>
                    <g id="Clip-5"></g>
                    <path d="M14.3968016,7.57297619 C14.4156111,7.63392857 14.4345,7.69488095 14.4533095,7.7559127 C14.5821984,7.6977381 14.7111667,7.63956349 14.8401349,7.58138889 C14.8282302,7.5477381 14.8163254,7.5140873 14.8044206,7.48035714 C14.6685476,7.51123016 14.5326746,7.54210317 14.3968016,7.57297619 Z M9.80489683,1.9056746 C9.79061111,1.86837302 9.7763254,1.83107143 9.76211905,1.79376984 C9.59434127,1.85361111 9.42672222,1.91345238 9.25902381,1.97329365 C9.27497619,2.01496032 9.29092857,2.05662698 9.30688095,2.09829365 C9.4729127,2.03400794 9.63886508,1.96988095 9.80489683,1.9056746 Z M9.06100794,1.31734127 C9.07037302,1.34813492 9.0797381,1.37892857 9.08910317,1.40972222 C9.17648413,1.39599206 9.27013492,1.39734127 9.34934127,1.36400794 C9.41846825,1.33488095 9.47124603,1.26678571 9.53116667,1.2159127 C9.51076984,1.18575397 9.49037302,1.15575397 9.46989683,1.12559524 C9.33362698,1.18948413 9.19727778,1.25345238 9.06100794,1.31734127 Z M9.33830952,5.06242063 C9.40203968,4.96186508 9.46711905,4.90464286 9.46624603,4.84845238 C9.46529365,4.78837302 9.40227778,4.72924603 9.36640476,4.66964286 C9.32180159,4.71876984 9.24680159,4.76424603 9.24037302,4.81789683 C9.23323016,4.87805556 9.28799206,4.9456746 9.33830952,5.06242063 Z M19.5838651,16.1084524 C19.6433889,16.020754 19.6779127,15.9699603 19.7124365,15.9190873 C19.6513254,15.8801984 19.5906111,15.8118651 19.5291032,15.8110714 C19.4733889,15.8103571 19.4167222,15.8832937 19.3604524,15.9237698 C19.4259286,15.9778968 19.4914841,16.0321032 19.5838651,16.1084524 Z M24.5388651,4.48924603 C24.4885476,4.5059127 24.4383095,4.52265873 24.3880714,4.53940476 C24.4326746,4.66869048 24.4748175,4.79892857 24.5274365,4.92488095 C24.5308492,4.93313492 24.6141825,4.90797619 24.660373,4.89829365 C24.6198968,4.76194444 24.5794206,4.62559524 24.5388651,4.48924603 Z M17.3171984,14.7629762 C17.2952937,14.7126587 17.2733889,14.6623413 17.2515635,14.6120238 C17.1196587,14.6536905 16.987754,14.6953571 16.8558492,14.7371032 C16.8706111,14.7836905 16.8852143,14.8303571 16.8998968,14.8770238 C17.0390238,14.8390079 17.1780714,14.8009921 17.3171984,14.7629762 Z M7.77997619,13.7917857 C7.83505556,13.7596429 7.89013492,13.7275794 7.94521429,13.6954365 L7.7210873,13.2448016 C7.6776746,13.2637698 7.6342619,13.2826587 7.59084921,13.301627 C7.65386508,13.4650397 7.71688095,13.628373 7.77997619,13.7917857 Z M5.51656349,6.30670635 C5.21061111,6.06757937 5.21061111,6.06757937 5.01807143,6.36178571 C5.19362698,6.34242063 5.33100794,6.3272619 5.51656349,6.30670635 Z M5.69148413,4.87638889 L5.49640476,5.10630952 C5.61505556,5.19575397 5.73354762,5.28519841 5.85211905,5.37464286 C5.88386508,5.3375 5.91561111,5.30035714 5.94727778,5.26313492 L5.69148413,4.87638889 Z M16.6146587,15.9328175 L16.5446587,15.7653571 C16.3841032,15.8306746 16.223627,15.8960714 16.0629921,15.9614683 C16.0816429,16.0093254 16.1002937,16.0571825 16.1188651,16.1049603 C16.2841032,16.0475794 16.4494206,15.9902778 16.6146587,15.9328175 Z M18.047119,3.61543651 C18.018627,3.55638889 17.9900556,3.4972619 17.9615635,3.43821429 C17.8102143,3.52400794 17.6587857,3.60980159 17.5073571,3.69559524 C17.5306111,3.74146825 17.5539444,3.78734127 17.5771984,3.83313492 C17.7338651,3.76059524 17.8905317,3.68805556 18.047119,3.61543651 Z M17.8442619,15.600119 C17.6745794,15.3264683 17.4883095,15.1959921 17.2863254,15.600119 L17.8442619,15.600119 Z M10.2714048,3.18527778 C10.2387857,3.14821429 10.2061667,3.11107143 10.173627,3.07392857 C10.0592619,3.17742063 9.9447381,3.2809127 9.83037302,3.38440476 C9.85989683,3.41805556 9.8895,3.45170635 9.91902381,3.48535714 C10.0364841,3.38527778 10.1539444,3.28535714 10.2714048,3.18527778 Z M11.8089444,6.0475 C11.8552937,5.98257937 11.9016429,5.91765873 11.9479127,5.85265873 C11.7807698,5.75630952 11.6137063,5.65996032 11.4466429,5.56361111 C11.4220397,5.60305556 11.3974365,5.64242063 11.3728333,5.68186508 C11.5182302,5.80376984 11.663627,5.92559524 11.8089444,6.0475 Z M20.8613254,14.1973413 C20.8813254,14.254881 20.9014048,14.3124206 20.9214048,14.3700397 L21.3357698,14.2035317 C21.3224365,14.1628968 21.3090238,14.1221825 21.2956111,14.0815476 C21.1509286,14.120119 21.0060873,14.1586905 20.8613254,14.1973413 Z M17.2271984,14.3313095 C16.8647381,14.1517857 16.8647381,14.1517857 16.5276746,14.4509127 C16.8681508,14.3926587 17.0475952,14.3619444 17.2271984,14.3313095 Z M23.2300556,5.30781746 C23.3094206,4.98972222 23.2784683,4.7443254 22.8393413,4.76646825 C22.9696587,4.94686508 23.0998175,5.12734127 23.2300556,5.30781746 Z M12.9438651,6.71257937 C12.6863254,6.3943254 12.6863254,6.3943254 12.2245794,6.55480159 C12.5704524,6.6306746 12.7571984,6.67162698 12.9438651,6.71257937 Z M12.9934683,14.8340873 C13.1199762,15.1925794 13.1199762,15.1925794 13.5134683,15.144881 C13.2972778,15.0155952 13.1452937,14.924881 12.9934683,14.8340873 Z M15.4956905,16.2903571 C15.4773571,16.2389286 15.4591032,16.1874206 15.4408492,16.1359921 C15.2684683,16.2452778 14.9937063,16.0664683 14.792754,16.5398016 C15.1205317,16.4235317 15.3080714,16.3569444 15.4956905,16.2903571 Z M9.7663254,14.7731349 C9.8126746,14.7544048 9.85902381,14.7356746 9.90529365,14.7169444 C9.8160873,14.4867063 9.72680159,14.2565476 9.63751587,14.0263095 C9.58283333,14.0487698 9.52807143,14.0711508 9.47338889,14.0936111 C9.57100794,14.320119 9.66870635,14.546627 9.7663254,14.7731349 Z M20.1376746,2.47543651 C19.9534683,2.62337302 19.756246,2.72313492 19.7675159,2.78488095 C19.7905317,2.91123016 19.9255317,3.01710317 20.0144206,3.13138889 C20.0555317,3.11075397 20.0965635,3.09027778 20.1376746,3.06972222 L20.1376746,2.47543651 Z M17.8524365,4.94075397 C17.8316429,4.86988095 17.8110079,4.7990873 17.7902937,4.72829365 C17.4826746,4.56234127 17.4179127,4.91170635 17.2737857,5.11829365 C17.4666429,5.0590873 17.6595,4.99996032 17.8524365,4.94075397 Z M9.97616667,4.37376984 C9.99481746,4.01297619 9.99481746,4.01297619 9.74188095,3.72821429 C9.61180159,4.0493254 9.5660873,4.2806746 9.97616667,4.37376984 Z M19.6808492,5.43075397 C19.9735476,5.31170635 20.2110079,5.21900794 20.4414048,5.11138889 C20.4546587,5.10527778 20.4109286,4.9772619 20.3513254,4.73019841 C20.2480714,5.19051587 19.7010079,4.81503968 19.6808492,5.43075397 Z M22.0705317,13.7180556 C22.4525952,13.6617063 22.9081508,13.738373 23.1473571,13.1174206 C22.6859286,13.3748016 22.3782302,13.5464683 22.0705317,13.7180556 Z M21.8106111,4.79551587 C21.7467222,4.79861111 21.6829127,4.80170635 21.6191032,4.80472222 C21.6181508,5.04980159 21.4830714,5.33376984 21.9633889,5.54900794 C21.8995794,5.23448413 21.8551349,5.01503968 21.8106111,4.79551587 Z M15.9248175,6.03043651 C15.9623571,6.08130952 15.9998175,6.13210317 16.0372778,6.18289683 C16.235373,6.06559524 16.4334683,5.94821429 16.7045794,5.78765873 C16.1954524,5.50837302 16.0507698,5.75075397 15.9248175,6.03043651 Z M15.1202143,4.32623016 C15.0632302,4.28710317 15.0064048,4.24789683 14.9494206,4.20876984 C14.7018016,4.36599206 14.3205317,4.4593254 14.6723571,4.9675 C14.8410873,4.7259127 14.9806111,4.52607143 15.1202143,4.32623016 Z M7.68402381,5.97654762 C7.6142619,5.95027778 7.54457937,5.92392857 7.47481746,5.89757937 C7.38648413,6.05242063 7.23315079,6.2072619 7.23315079,6.36210317 C7.23307143,6.46154762 7.45878571,6.56107143 7.68402381,6.74099206 L7.68402381,5.97654762 Z M19.0329127,4.14853175 L19.0329127,3.23702381 C19.0007698,3.23456349 18.9685476,3.23202381 18.9364048,3.22948413 C18.7696587,3.5540873 18.6028333,3.87861111 18.3805317,4.31130952 C18.6624365,4.24099206 18.8299762,4.19916667 19.0329127,4.14853175 Z M18.616246,5.92059524 C18.8187857,5.76154762 19.0314048,5.66988095 19.0300556,5.58154762 C19.0259286,5.3209127 18.9100556,5.08242063 18.5590238,4.93559524 C18.5782302,5.26527778 18.5928333,5.5177381 18.616246,5.92059524 Z M8.86100794,5.61313492 C8.59942063,6.30845238 8.60013492,6.32496032 8.9260873,6.83503968 C9.05434127,6.3975 9.12505556,6.03003968 8.86100794,5.61313492 Z M22.0495,2.72861111 C22.1945,3.14376984 22.1622778,3.63043651 22.603627,4.01496032 C22.5347381,3.20123016 22.5347381,3.20123016 22.0495,2.72861111 Z M11.976246,17.8825794 C11.9172778,17.2763095 11.9223571,16.6472619 11.5443413,16.1548016 C11.4867222,16.1753571 11.4291825,16.1959127 11.3716429,16.2165476 C11.5731508,16.7718651 11.7747381,17.3272619 11.976246,17.8825794 Z M17.9233889,16.2089286 C18.1118016,16.0951984 18.3006111,15.9821032 18.4884683,15.8675 C18.6856905,15.7471032 18.8819603,15.6252778 19.0785476,15.5040873 C18.5209286,15.4531349 17.9997381,15.449246 17.9233889,16.2089286 Z M14.7625952,17.736627 C14.9951349,17.4036111 14.740373,17.0986111 14.7033095,16.7887698 C14.6984683,16.7476587 14.5799762,16.690754 14.516881,16.6941667 C14.4524365,16.6976587 14.3613254,16.7520238 14.3342619,16.8090079 C14.2148968,17.0602778 14.4383095,17.5460714 14.7625952,17.736627 Z M23.3021984,2.00805556 C23.5143413,2.4590873 23.3040238,3.17789683 24.0887063,3.35892857 C24.207119,2.66503968 23.4702143,2.49496032 23.3021984,2.00805556 Z M15.7039444,16.4688492 C15.7605317,16.8253571 15.8213254,17.209246 15.8888651,17.6345635 C16.5275952,17.4277381 16.3432302,17.0211508 16.3002143,16.685119 C16.2635476,16.3987698 16.0975952,16.2690873 15.7039444,16.4688492 Z M13.0514048,15.7897222 C12.9828333,15.8048016 12.9142619,15.819881 12.8456905,15.8349603 C12.6821984,16.4932937 12.9952143,17.0999603 13.112119,17.7259921 C13.1246587,17.7928968 13.3076746,17.8280556 13.5361667,17.9378175 C13.3551349,17.135754 13.2033095,16.4627381 13.0514048,15.7897222 Z M20.1738651,15.774246 C20.2095,15.814246 20.2452143,15.8541667 20.2810079,15.8941667 C22.3114841,14.8167857 22.4408492,14.7182143 22.5423571,14.0987698 C21.7206111,14.680119 20.9471984,15.2271825 20.1738651,15.774246 Z M15.7016429,5.80011905 C15.3641032,5.81694444 15.0433889,5.9240873 14.8183095,5.82146825 C14.5267222,5.68861111 14.3683889,5.83194444 14.1855317,5.94599206 C13.9992619,6.06210317 13.8439444,6.2277381 13.6102143,6.42710317 C14.0768016,6.49345238 14.4489444,6.54638889 14.7760079,6.59289683 C15.0906905,6.32337302 15.3784683,6.07686508 15.7016429,5.80011905 Z M11.2433095,18.5286905 C10.8610079,17.4319444 10.7013254,16.3475 10.1011667,15.2301984 C10.0615635,15.490754 10.0069603,15.601627 10.0400556,15.670754 C10.3630714,16.3471032 10.567119,17.0264683 10.4575952,17.8039286 C10.4037063,18.1869444 10.6893413,18.4738492 11.2433095,18.5286905 Z M23.2089444,7.83353175 C23.0257698,7.83353175 22.8961667,7.82003968 22.7701349,7.83583333 C22.1200556,7.91710317 21.4698968,7.9993254 20.8215635,8.09376984 C20.0485476,8.20638889 19.240373,8.12646825 18.5232302,8.54765873 C18.0287857,8.83813492 17.5188651,9.10337302 17.0072778,9.36305556 C16.6814841,9.52837302 16.3416429,9.78313492 16.0054524,9.7872619 C15.2052143,9.7972619 14.3995794,9.71075397 13.603627,9.60599206 C13.1955317,9.55234127 12.727119,9.47464286 12.4194206,9.23583333 C11.6306111,8.62376984 10.7041032,8.47440476 9.78561111,8.30170635 C8.76942063,8.11051587 7.72989683,8.03956349 6.71711905,7.83440476 C6.08989683,7.70734127 5.64140476,8.03107143 5.19823016,8.3043254 C4.85846825,8.51376984 5.10807143,8.93099206 5.16664286,9.25757937 C5.17569048,9.30821429 5.17616667,9.36234127 5.17005556,9.41353175 C5.07370635,10.2172619 5.48346825,10.7072619 6.1826746,10.984881 C6.69053175,11.1865476 7.25672222,11.2685317 7.72870635,11.5280556 C8.93029365,12.1886905 10.2319603,12.1661508 11.5348175,12.2499603 C12.5122778,12.3128175 13.5196587,12.3682937 14.4454524,12.6508333 C15.4547381,12.9587698 16.3370397,12.884246 17.2521984,12.4417063 C17.577754,12.284246 17.9395794,12.1598016 18.2964048,12.1175794 C19.0792619,12.0246429 19.8715635,12.0136905 20.6557698,11.9289286 C21.0180714,11.8898016 21.3845794,11.7923413 21.7235476,11.6571825 C22.2961667,11.4290873 22.6960873,10.7041667 22.4706111,10.1939286 C22.3091032,9.82869048 22.4268016,9.62607143 22.5902143,9.33718254 C22.8419603,8.89242063 23.2672778,8.5127381 23.2089444,7.83353175 Z M14.5237857,3.50940476 C14.5899762,3.46496032 14.6832302,3.43702381 14.7125159,3.37765873 C15.250373,2.28218254 16.1516429,1.61694444 17.2448968,1.13646825 C18.1381508,0.743928571 18.9944206,0.242738095 19.9965635,0.209722222 C20.5141032,0.19265873 21.0401349,0.249563492 21.5537063,0.329246032 C22.3057698,0.445992063 23.0502937,0.600912698 23.7476746,0.939484127 C24.0182302,1.07083333 24.2097381,1.22456349 24.3850556,1.47980159 C24.9970397,2.37051587 25.3556905,3.39845238 25.9409286,4.29503968 C26.3348968,4.89845238 26.6985476,5.54972222 27.3864048,5.92043651 C27.6317222,6.05257937 27.8352143,6.16242063 28.1142619,6.08361111 C28.2655317,6.0409127 28.4279127,6.03853175 28.5838651,6.01027778 C29.5333095,5.83797619 29.6129127,5.88718254 29.9250556,6.87638889 C29.567754,7.23218254 29.2645,7.68972222 28.6248175,7.57369048 C28.5373571,7.55781746 28.4160873,7.62623016 28.3358492,7.68845238 C27.8995,8.02678571 27.4710873,8.37551587 27.0843413,8.68503968 C27.1659286,9.08940476 27.2392619,9.45369048 27.3113254,9.81099206 C26.3580714,10.4429762 26.2110079,11.4778175 25.8041825,12.3638492 C25.761881,12.4559921 25.7741032,12.5791667 25.7187063,12.6584524 C25.2625952,13.3120238 24.985373,14.0471825 24.7225952,14.7900397 C24.4169603,15.6541667 24.0846587,16.5100397 23.8164048,17.3855952 C23.7100556,17.7326587 23.5595,17.9181349 23.2094206,18.0173413 C22.9417222,18.0931349 22.7169603,18.3102778 22.4523571,18.4089286 C21.8166429,18.6460714 21.173627,18.866627 20.5237857,19.0614683 C20.1987063,19.1589286 19.8382302,19.1439286 19.5179127,19.2519444 C18.6081508,19.5587698 17.6894206,19.7059127 16.7223571,19.6920238 C16.1035476,19.6830556 15.4846587,19.8856746 14.861246,19.9475 C13.2422778,20.1080556 11.656246,19.8905159 10.1060873,19.4288492 C9.28029365,19.1828968 8.49235714,18.7867857 7.65537302,18.6075 C6.53600794,18.3677381 5.98561111,17.595754 5.55124603,16.6750397 C5.4163254,16.3889286 5.25743651,16.2286905 4.96092857,16.1060714 C4.0810873,15.7421032 3.57703968,15.019881 3.48965873,14.1051984 C3.35918254,12.7376587 2.79465873,11.5319444 2.22243651,10.3306746 C1.99323016,9.84964286 1.66616667,9.36670635 1.01156349,9.30321429 C0.698150794,9.27281746 0.488468254,9.03980159 0.417119048,8.73400794 C0.306404762,8.25892857 0.227912698,7.77630952 0.129261905,7.29821429 C0.103388889,7.17289683 0.0539444444,7.0525 5.55555556e-05,6.88115079 C0.230690476,6.74575397 0.450928571,6.61654762 0.658944444,6.49448413 C0.741563492,6.22281746 0.750769841,5.86456349 0.934579365,5.68353175 C1.10696032,5.51369048 1.46600794,5.53892857 1.73934127,5.46480159 C2.19227778,5.34178571 2.64878571,5.22654762 3.09124603,5.07210317 C3.3979127,4.96503968 3.60243651,4.77289683 3.65323016,4.39027778 C3.71323016,3.93757937 4.00878571,3.58964286 4.35545238,3.27559524 C5.1692619,2.53821429 5.95561111,1.77035714 6.75386508,1.01575397 C6.81084921,0.961865079 6.86680159,0.891547619 6.9363254,0.868611111 C7.97854762,0.525119048 8.95688095,-0.1025 10.1154524,0.0593253968 C10.4633889,0.10797619 10.8084683,0.283134921 11.121246,0.459960317 C12.1023571,1.01456349 13.0060873,1.68551587 13.8098175,2.47337302 C14.1006905,2.75853175 14.2839444,3.15345238 14.5237857,3.50940476 Z" id="Fill-4" fill="#174EA6" mask="url(#mask-4)"></path>
                </g>
                <path d="M23.5429114,7.77023353 C23.6017932,8.46691975 23.171972,8.8562923 22.9175128,9.31258189 C22.7523389,9.60890554 22.6333719,9.81673914 22.7965403,10.1913769 C23.0245268,10.7147464 22.620296,11.4583234 22.0415055,11.6922888 C21.698884,11.8308445 21.3284259,11.9308131 20.9622196,11.9710284 C20.1695613,12.0578903 19.3687206,12.069206 18.5774261,12.1645343 C18.2166748,12.2078431 17.85103,12.3354902 17.5218855,12.4970029 C16.5969437,12.9509317 15.705133,13.0273734 14.6849696,12.7115119 C13.7491981,12.4217009 12.7309599,12.3647156 11.7429649,12.3003222 C10.4260661,12.2143557 9.11037051,12.2374755 7.89583294,11.5598386 C7.41876194,11.2936358 6.84646927,11.2095417 6.33313863,11.002685 C5.62639649,10.7179213 5.21221832,10.2153107 5.30960595,9.39089599 C5.31578292,9.33838809 5.3153016,9.28286811 5.30615647,9.23084866 C5.24695378,8.8959378 4.99466047,8.46797805 5.33800398,8.2531434 C5.78595496,7.97285704 6.23936093,7.64079544 6.87334312,7.77112901 C7.89703625,7.98156765 8.94776366,8.05434604 9.97490627,8.25037554 C10.9032173,8.42759988 11.839791,8.58080898 12.637102,9.20862438 C12.9481167,9.45357985 13.4215778,9.53327788 13.8340713,9.58830942 C14.6386022,9.69568604 15.4528397,9.78450173 16.2617025,9.77424438 C16.6015965,9.76992977 16.9451005,9.50861138 17.2743252,9.33903935 C17.7915064,9.0727551 18.3068426,8.80069091 18.8066962,8.5027391 C19.5315681,8.07062756 20.3484529,8.15268642 21.1298001,8.03716904 C21.7851209,7.940294 22.4422066,7.85595573 23.0993725,7.77251294 C23.2267626,7.75639423 23.3576824,7.77023353 23.5429114,7.77023353" id="Fill-7" fill="#FFFFFF"></path>
                <path d="M11.2903226,18.3870968 C10.7013339,18.3335403 10.397514,18.052951 10.4549023,17.6783663 C10.5712822,16.9180198 10.3543041,16.2535316 10.0108188,15.5920705 C9.97571075,15.5245428 10.0336897,15.4160328 10.0758025,15.1612903 C10.7140775,16.2539973 10.8838791,17.3144928 11.2903226,18.3870968" id="Fill-9" fill="#FFFFFF"></path>
                <path d="M15.8064516,5.84403058 C15.4575411,6.16873559 15.1468462,6.45796235 14.807104,6.77419355 C14.453995,6.71962597 14.0521309,6.65751578 13.5483871,6.57966853 C13.800816,6.34575429 13.9685021,6.1514155 14.1695198,6.0151828 C14.3669387,5.88127808 14.5378809,5.71319877 14.8526886,5.86907952 C15.0957778,5.98948204 15.4420321,5.86377175 15.8064516,5.84403058" id="Fill-11" fill="#FFFFFF"></path>
                <path d="M20,15.6772539 C20.7372778,15.0873938 21.4746312,14.4976193 22.2580645,13.8709677 C22.1612892,14.5386887 22.0379556,14.6450415 20.1021475,15.8064516 C20.0680227,15.7634142 20.0339735,15.7202913 20,15.6772539" id="Fill-13" fill="#FFFFFF"></path>
                <path d="M13.1239005,15.8064516 C13.2569174,16.412877 13.3898649,17.0192309 13.5483871,17.7419355 C13.3483058,17.6431053 13.1880461,17.6114253 13.1770656,17.5510688 C13.0746968,16.9870503 12.8006013,16.4403378 12.9437648,15.8471422 C13.00381,15.8336263 13.0638553,15.820039 13.1239005,15.8064516" id="Fill-15" fill="#FFFFFF"></path>
                <path d="M15.483871,16.5501677 C15.8721584,16.3458601 16.0358497,16.478441 16.0720951,16.7712712 C16.1145249,17.114732 16.2962998,17.5304876 15.6662721,17.7419355 C15.5996526,17.3071123 15.5396873,16.9146436 15.483871,16.5501677" id="Fill-17" fill="#FFFFFF"></path>
                <path d="M23.5483871,1.93548387 C23.7518046,2.51683404 24.6439781,2.71990388 24.5006154,3.5483871 C23.5505971,3.33224044 23.8052293,2.47409746 23.5483871,1.93548387" id="Fill-19" fill="#FFFFFF"></path>
                <path d="M15.049328,17.7419355 C14.6741892,17.5650763 14.4157419,17.1141996 14.5538253,16.88099 C14.585041,16.8281017 14.6905315,16.7775705 14.7649901,16.7743294 C14.8379796,16.771162 14.9750531,16.8240503 14.9807454,16.8622066 C15.023621,17.1497777 15.3183336,17.4328555 15.049328,17.7419355" id="Fill-21" fill="#FFFFFF"></path>
                <path d="M18.0645161,16.1290323 C18.1498817,15.4521147 18.7319274,15.4555796 19.3548387,15.5010468 C19.1351754,15.6090227 18.9159553,15.7175643 18.6956714,15.8247623 C18.4858478,15.9269399 18.2749603,16.0276325 18.0645161,16.1290323" id="Fill-23" fill="#FFFFFF"></path>
                <path d="M11.9354839,18.0645161 C11.7204583,17.4423804 11.5053481,16.8203336 11.2903226,16.198198 C11.3517222,16.1751724 11.4131217,16.1521468 11.474606,16.1290323 C11.87798,16.6807576 11.8725599,17.3853943 11.9354839,18.0645161" id="Fill-25" fill="#FFFFFF"></path>
                <path d="M21.9354839,2.58064516 C22.5004389,3.05472407 22.5004389,3.05472407 22.5806452,3.87096774 C22.0667893,3.48525619 22.1043051,2.99708627 21.9354839,2.58064516" id="Fill-27" fill="#FFFFFF"></path>
                <path d="M18.7880524,6.12903226 C18.755985,5.73323353 18.7359836,5.48527451 18.7096774,5.16129032 C19.1904717,5.30554321 19.3491784,5.53985668 19.354831,5.79600303 C19.3565702,5.88271071 19.065463,5.97284927 18.7880524,6.12903226" id="Fill-31" fill="#FFFFFF"></path>
                <path d="M19.0322581,4.32188489 C18.8315674,4.38227853 18.6658818,4.43216482 18.3870968,4.51612903 C18.6069382,4.00003786 18.7719174,3.61296949 18.9368181,3.22580645 C18.9686053,3.2288356 19.0004709,3.23177009 19.0322581,3.23479924 L19.0322581,4.32188489 Z" id="Fill-33" fill="#FFFFFF"></path>
                <path d="M7.74193548,6.21964992 L7.74193548,7.09677419 C7.41963877,6.89031165 7.09666066,6.77619715 7.09677422,6.66208266 C7.09677422,6.48439919 7.31618129,6.30671572 7.44257884,6.12903226 C7.54240224,6.15917743 7.64211208,6.18941367 7.74193548,6.21964992" id="Fill-35" fill="#FFFFFF"></path>
                <path d="M15.1612903,4.34336618 C15.0086748,4.59825887 14.8560592,4.85315157 14.6716017,5.16129032 C14.2870695,4.5130247 14.7038774,4.39398029 14.974577,4.19354839 C15.0367859,4.24345391 15.0989947,4.29335943 15.1612903,4.34336618" id="Fill-37" fill="#FFFFFF"></path>
                <path d="M15.8064516,6.26211378 C15.9627678,5.91438634 16.1423295,5.61321985 16.7741935,5.96025677 C16.4377247,6.15991644 16.1918739,6.30571535 15.9460231,6.4516129 C15.8995321,6.38838076 15.8530411,6.32524727 15.8064516,6.26211378" id="Fill-39" fill="#FFFFFF"></path>
                <path d="M22.2580645,13.8709677 C22.626796,13.6865751 22.9955276,13.5022676 23.5483871,13.2258065 C23.2618284,13.8927061 22.7158166,13.8104412 22.2580645,13.8709677" id="Fill-43" fill="#FFFFFF"></path>
                <path d="M19.6774194,5.48387097 C19.7029896,4.91684239 20.3968079,5.26262896 20.5278803,4.83870968 C20.6034836,5.06631048 20.6589528,5.1841308 20.6421409,5.18983178 C20.3498956,5.28894119 20.0486907,5.37423667 19.6774194,5.48387097" id="Fill-45" fill="#FFFFFF"></path>
                <path d="M11.7795588,6.4516129 C11.6165097,6.28907924 11.4534607,6.12665139 11.2903226,5.96411773 C11.3178388,5.91152709 11.345444,5.85904226 11.3731383,5.80645161 C11.5604978,5.93491246 11.7480354,6.06347913 11.9354839,6.19183416 C11.8835682,6.27849762 11.8315635,6.36505526 11.7795588,6.4516129" id="Fill-67" fill="#FFFFFF"></path>
                <path d="M5.7630131,4.83870968 L6.12903226,5.33958832 C6.08360636,5.38768254 6.03829403,5.43577675 5.99275457,5.48387097 C5.82308885,5.36805434 5.65353669,5.25223772 5.48387097,5.13642109 L5.7630131,4.83870968 Z" id="Fill-77" fill="#FFFFFF"></path>
            </g>
        </g>
    </g>
</svg>