
<svg width="24px" height="22px" viewBox="0 0 24 22" version="1.1" xmlns="http://www.w3.org/2000/svg" xmlns:xlink="http://www.w3.org/1999/xlink">
    <!-- Generator: Sketch 49 (51002) - http://www.bohemiancoding.com/sketch -->
    <desc>Created with Sketch.</desc>
    <defs>
        <polygon id="path-1" points="2.43484575e-05 0.0345130112 23.9528108 0.0345130112 23.9528108 22 2.43484575e-05 22"></polygon>
    </defs>
    <g id="Design-mocks" stroke="none" stroke-width="1" fill="none" fill-rule="evenodd">
        <g id="settings" transform="translate(-92.000000, -276.000000)">
            <g id="Page-1" transform="translate(92.000000, 276.000000)">
                <g id="Group-6">
                    <mask id="mask-2" fill="white">
                        <use xlink:href="#path-1"></use>
                    </mask>
                    <g id="Clip-5"></g>
                    <path d="M18.3853784,20.0597227 C18.2592973,19.9262506 18.2179459,19.8444662 18.1637027,19.834652 C18.0946216,19.822139 18.0151622,19.8677747 17.9401622,19.8883844 C17.9455946,19.9304216 17.9511892,19.9725405 17.9566216,20.0145777 C18.065027,20.0260275 18.1734324,20.0374773 18.3853784,20.0597227 M20.7438649,15.6531799 C20.7734595,15.6010015 20.802973,15.548823 20.8325676,15.4966446 C20.6359459,15.4038193 20.4393243,15.3111576 20.2427027,15.2184959 C20.2195946,15.2701836 20.1964865,15.3217078 20.1733784,15.3733955 C20.3635135,15.4667115 20.5537297,15.5599457 20.7438649,15.6531799 M20.762027,8.01296431 C20.8252703,8.0004513 20.8885135,7.98802007 20.9517568,7.97550706 C20.9209459,7.8050684 20.8902973,7.63471152 20.8594865,7.46435465 C20.8014324,7.47555911 20.7433784,7.48668178 20.6853243,7.49772268 C20.7109459,7.66946989 20.7364054,7.84129888 20.762027,8.01296431 M21.6786486,14.1886669 C21.3743514,13.8550684 21.1792703,13.8139309 20.9306757,14.0519234 C21.1265676,14.087745 21.3223784,14.1235665 21.6786486,14.1886669 M20.5679189,19.3710164 C20.3050541,19.2508751 20.1964865,19.1834848 20.0785135,19.1537152 C19.9985676,19.1335145 19.9054865,19.1662283 19.7446216,19.1829941 C19.9450541,19.5026074 20.1351081,19.5614104 20.5679189,19.3710164 M10.4626216,3.55522454 C10.0992973,3.14229517 10.0992973,3.14229517 9.79889189,3.3851948 C10.0307838,3.44465204 10.2467027,3.49993829 10.4626216,3.55522454 M8.12383784,17.9336558 C8.03813514,17.9034773 7.95243243,17.8732989 7.86672973,17.8430387 L7.61562162,18.5578342 C7.68843243,18.5854773 7.76132432,18.6132022 7.83405405,18.6408454 C7.9307027,18.4051428 8.02727027,18.1693584 8.12383784,17.9336558 M18.2314054,3.93797546 C17.8707568,3.88195316 17.6234595,3.84359628 17.3761622,3.80515762 C17.5806486,4.1619829 17.8143243,4.32138067 18.2314054,3.93797546 M5.16032432,13.7655145 L4.42556757,13.7655145 C4.66248649,13.9676037 4.89381081,14.1572617 5.16032432,13.7655145 M6.31321622,18.7104439 C6.08148649,18.8273138 5.91559459,18.9108156 5.59702703,19.0714401 C5.93124324,19.1939532 6.10354054,19.2571725 6.35562162,19.3494253 C6.33891892,19.0975294 6.32918919,18.9502357 6.31321622,18.7104439 M19.2375405,17.1466446 C19.5700541,16.7710089 19.3604595,16.576771 19.0024054,16.2646 C19.1083784,16.6621539 19.173,16.9043993 19.2375405,17.1466446 M20.8679189,6.09184907 C20.9255676,5.64334349 20.9038378,5.32773755 20.4995676,5.1221316 C20.5895676,5.41819108 20.2924865,5.82539554 20.8679189,6.09184907 M5.43316216,15.6072989 C5.80264865,15.9171799 5.9567027,16.5485554 6.68910811,16.4382283 C6.34597297,15.9664959 6.08537838,15.5086669 5.43316216,15.6072989 M15.879973,4.29234721 C16.7847568,4.91693457 17.4818919,5.0786223 18.0621892,4.86320223 C17.333027,4.67248104 16.6065405,4.48241413 15.879973,4.29234721 M22.6024865,4.46654796 C22.7479459,5.68971524 22.9864865,6.92261487 22.9996216,8.15804981 C23.0056216,8.71639182 23.229973,9.21699405 23.1912973,9.76854796 C23.1712703,10.0543844 23.2864054,10.3323695 23.0455135,10.5951428 C22.9655676,10.6824885 22.9935405,10.9097673 23.0293784,11.0590238 C23.214,11.8265703 23.147027,12.4420796 22.8117568,12.9933063 C22.8865135,13.2472468 23.0243514,13.4791056 23.0069189,13.6983695 C22.9382432,14.5600498 23.2628919,15.3131204 23.6612432,16.0144216 C24.1121351,16.808139 23.9431622,17.5989123 23.793973,18.3873138 C23.6871892,18.9517078 23.1164595,19.1807859 22.745027,19.5530684 C22.4391081,19.8595963 22.1372432,20.1711948 21.8512703,20.4963695 C21.4028108,21.006377 20.9204595,21.4528379 20.2143243,21.5520424 C20.1343784,21.5632468 20.0340811,21.5519606 19.9787838,21.5962877 C19.1217568,22.2827041 18.1988108,21.9547487 17.3785946,21.6301465 C16.4691081,21.2701316 15.7653243,20.5658045 15.3868378,19.6059011 C15.3373784,19.4806074 15.2813514,19.3497524 15.2712973,19.2181613 C15.2013243,18.3002952 15.1375946,17.3819383 15.0827838,16.4630089 C15.0575676,16.0413286 15.1624865,15.6637301 15.4675135,15.3437896 C15.7097838,15.0896037 15.9043784,14.7897822 16.14,14.5283993 C16.5434595,14.0804662 16.9851081,13.7134178 17.6291351,13.6374401 C17.9890541,13.5948305 18.3331622,13.4158862 18.6326757,13.3156186 C18.5782703,12.9262431 18.4774054,12.6126 18.5022162,12.3095888 C18.5952973,11.176548 18.7469189,10.0483323 18.8408108,8.91529145 C18.8850811,8.38091227 18.8483514,7.83958141 18.8483514,7.27453309 C15.7001351,6.28894944 12.4977568,6.16431004 9.24008108,5.65250335 C9.24008108,6.12088253 9.204,6.52350706 9.24624324,6.91762602 C9.44310811,8.7531948 9.38278378,10.5868007 9.34143243,12.4285851 C9.31118919,13.7809717 9.28954054,15.1281242 9.65732432,16.5061911 C10.4702432,19.552087 7.46027027,21.1904736 5.48002703,20.6574848 C4.12451351,20.2925628 2.83986486,19.8133063 1.61335135,19.0949941 C-0.372486486,17.9321019 -0.403702703,15.2208677 0.859054054,13.7071204 C1.16691892,13.3380275 1.69167568,13.0875219 2.16510811,12.9379383 C3.24859459,12.5954253 4.36767568,12.4312022 5.50889189,12.6609346 C5.63594595,12.6865331 5.76997297,12.6764736 5.93189189,12.6844067 C5.97202703,12.4784736 6.036,12.2960126 6.039,12.1125703 C6.0677027,10.3222283 6.08124324,8.53164089 6.11278378,6.74138067 C6.11797297,6.44532119 6.21875676,6.15114275 6.22475676,5.8549197 C6.23991892,5.0990684 6.29740541,4.33356654 6.20302703,3.58916506 C6.12218919,2.95165576 6.36827027,2.42259257 6.50221622,1.850429 C6.54340541,1.674429 6.61110811,1.48763346 6.58783784,1.31670409 C6.49556757,0.640347212 6.48008108,0.593239405 7.07018919,0.330956877 C7.77413514,0.0182133829 8.50954054,-0.0650431227 9.26894595,0.167960595 C10.3990541,0.514808178 11.5237297,0.892652045 12.6734595,1.15640669 C13.6404324,1.37828773 14.6472162,1.41803494 15.623027,1.60769294 C16.806,1.83767063 17.9636757,1.69479331 19.1417027,1.57775985 C19.9008649,1.50235465 20.5868919,1.22625056 21.3104595,1.06170037 C22.038,0.896250558 22.3679189,1.05646617 22.6081622,1.74672639 C22.6436757,1.84887509 22.6474054,2.00737323 22.7168919,2.04548476 C23.6494865,2.55892714 22.8576486,3.35665204 23.0214324,3.99726914 C23.049,4.10522454 22.7622162,4.29488253 22.6024865,4.46654796" id="Fill-4" fill="#174EA6" mask="url(#mask-2)"></path>
                </g>
            </g>
        </g>
    </g>
</svg>