<?xml version="1.0" encoding="UTF-8"?>
<svg width="13px" height="18px" viewBox="0 0 13 18" version="1.1" xmlns="http://www.w3.org/2000/svg" xmlns:xlink="http://www.w3.org/1999/xlink">
    <!-- Generator: Sketch 49.3 (51167) - http://www.bohemiancoding.com/sketch -->
    <title>Group 10</title>
    <desc>Created with Sketch.</desc>
    <defs></defs>
    <g id="Design-mocks" stroke="none" stroke-width="1" fill="none" fill-rule="evenodd">
        <g id="game-result" transform="translate(-145.000000, -264.000000)">
            <g id="Group-3" transform="translate(14.000000, 258.000000)" fill="#285CB3">
                <g id="Group-2">
                    <g id="Group-4-Copy-2">
                        <path d="M120.471268,29.2700442 C120.575863,29.3216994 120.680648,29.3735431 120.785243,29.4251983 C121.198896,28.4420526 121.61236,27.4590955 122.030742,26.4646384 C120.997649,26.065536 120.465782,26.2084361 120.4707,27.2232536 C120.473916,27.9055171 120.471268,28.5877806 120.471268,29.2700442 Z M205.50791,29.6152292 C203.719764,31.9853361 202.126622,35.275245 202.124731,36.4701017 C203.146096,35.6177907 205.115441,31.7362976 205.50791,29.6152292 Z M188.279361,35.7934938 C188.346128,35.9260253 188.412896,36.0585567 188.479852,36.1910881 C188.909204,35.9618446 189.568174,35.8370426 189.728755,35.4858249 C190.476622,33.8507678 191.118191,32.1644326 191.729875,30.4718761 C191.962898,29.8267516 191.532979,29.6076883 190.900678,29.6465239 C190.021357,31.7083963 189.150359,33.7510393 188.279361,35.7934938 Z M124.220058,26.315517 C121.823442,27.5458159 120.04986,31.9913688 120.941852,34.884249 C121.76235,31.7119782 123.40429,29.2954947 124.220058,26.315517 Z M190.652524,36.0187784 C192.019073,36.0148194 192.03307,36.0212292 192.315837,35.3832685 C192.843921,34.1923709 193.415696,33.0150468 193.842968,31.7885184 C194.025489,31.2646139 193.891199,30.6309893 193.90406,29.8493743 C193.95702,29.8128009 194.25681,29.6050489 194.72834,29.2789047 C193.32888,29.1542912 193.266653,29.1297833 193.009987,29.7815061 C192.217294,31.7936085 191.476614,33.8256943 190.652524,36.0187784 Z M186.256301,35.9260253 L186.786465,36.1252937 C188.475123,34.2657062 189.126717,31.9344349 189.741806,29.4702552 C188.419326,29.5535822 188.370528,29.5341644 188.113862,30.1762726 C187.468889,31.7898381 186.859663,33.4181083 186.269351,35.0525998 C186.175726,35.3118184 186.256301,35.6334381 186.256301,35.9260253 Z M212.134304,36.7591069 C213.85871,36.9193512 214.584447,36.5860431 214.764888,35.2396143 C214.925281,34.0402331 214.798367,32.8023933 214.798367,31.4075141 C213.605449,32.7382956 212.309639,35.416637 212.134304,36.7591069 Z M126.536856,26.6250712 C125.508492,26.23219 125.258447,26.910306 124.945606,27.388965 C123.082181,30.2411244 122.142335,33.3230929 122.757046,35.2115244 C124.331652,32.309595 125.298734,29.4399031 126.536856,26.6250712 Z M149.05589,35.8672062 C150.232352,36.2806364 150.523252,35.6051597 150.782188,34.9760596 C151.426405,33.4109444 152.028254,31.8284852 152.656961,30.2571488 C153.015007,29.3626088 153.392723,28.4759867 153.86274,27.3416459 C153.244625,27.4287433 152.784821,27.3729406 152.702166,27.5230047 C151.239154,30.1813627 150.09617,32.9737604 149.05589,35.8672062 Z M128.606446,26.444278 C127.784057,26.5102609 127.390642,27.0711158 127.112036,27.6719376 C126.270734,29.4855256 125.456856,31.3124987 124.681564,33.1547421 C124.425088,33.7640474 124.296471,34.43877 124.802237,35.0524113 C126.004611,34.218764 128.267504,29.0504153 128.606446,26.444278 Z M155.700253,27.3465474 C153.339952,29.8412678 152.569199,33.0359729 151.167659,35.9352629 C151.937087,36.389414 152.386299,36.194293 152.696303,35.4526449 C153.684758,33.0874395 154.709906,30.7376931 155.683797,28.3668321 C155.804281,28.0734908 155.700253,27.6887161 155.700253,27.3465474 Z M203.653942,36.3539717 C203.748135,36.5162897 203.842327,36.6782307 203.93652,36.8401717 C204.393108,36.6823782 205.100688,36.6569276 205.26562,36.3454882 C206.371153,34.2587308 207.361122,32.1110807 208.445093,29.8667184 C208.061703,29.7783013 207.833976,29.7000644 207.600953,29.6789498 C207.307784,29.6521796 207.010264,29.67254 206.845899,29.67254 C205.739231,31.988541 204.696492,34.1712563 203.653942,36.3539717 Z M146.823639,35.8832306 C147.408087,35.7567319 147.793936,35.7763383 147.855786,35.6445609 C149.090503,33.0163665 150.287771,30.370828 151.46934,27.779961 C150.635414,27.0626323 150.105438,27.3435311 149.796191,27.9724427 C148.596843,30.412303 147.634679,32.9434082 146.823639,35.8832306 Z M209.227384,36.7849345 C209.33406,36.9136955 209.440357,37.042645 209.546844,37.1712175 C209.993408,36.9365067 210.64746,36.8164178 210.852679,36.447856 C212.027628,34.3375333 213.09609,32.1680145 214.259502,29.9040459 C213.464728,29.8112927 212.719698,29.5228531 212.311908,30.2758126 C211.167222,32.3900942 209.924939,34.4678025 209.227384,36.7849345 Z M140.206702,27.3987682 C138.704538,27.1700902 138.530149,27.2786793 138.159053,28.416225 C137.542829,30.3042795 136.907123,32.1863012 136.291277,34.0743557 C136.183845,34.4037048 136.133344,34.7517176 136.053904,35.1023698 C137.097211,35.5448324 137.546801,35.0921895 137.831081,34.260239 C138.59389,32.0275651 139.373721,29.8005469 140.206702,27.3987682 Z M207.999853,36.8863597 C209.160617,34.4630894 210.245534,32.1978011 211.341989,29.9087589 C210.338214,29.5038123 209.753955,29.7125069 209.381345,30.433606 C208.380028,32.3723731 207.39006,34.3169844 206.414089,36.2685709 C206.349402,36.398086 206.438488,36.6039528 206.458726,36.7994508 C206.680589,36.8326308 206.859707,36.8754254 207.040148,36.8827778 C207.348449,36.8955973 207.657507,36.8863597 207.999853,36.8863597 Z M204.00707,29.6695237 C203.077627,29.3239616 202.320871,29.1955777 201.909109,30.0550525 C200.921221,32.1169249 200.00899,34.2146165 199.056472,36.319095 C200.537642,36.5947152 200.546531,36.5996167 201.038489,35.6881097 C201.806594,34.2647636 202.577158,32.8423601 203.313298,31.4026125 C203.585473,30.8694704 203.762888,30.2882551 204.00707,29.6695237 Z M141.43688,35.2946629 C142.835395,35.2761877 142.879654,35.2969251 143.190225,34.6337024 C143.933174,33.0476613 144.665342,31.4546448 145.329986,29.8350466 C145.622777,29.1212998 145.740613,28.3361029 145.949804,27.5371439 C144.584389,27.5116933 144.583065,27.5079228 144.270414,28.1965961 C143.545622,29.7920634 142.777896,31.3690555 142.092824,32.9813013 C141.80495,33.6586632 141.682575,34.4057785 141.43688,35.2946629 Z M197.434203,29.5249268 C196.418322,29.1088573 195.785076,29.2214053 195.395822,30.229436 C194.764845,31.8635504 194.043269,33.4625996 193.39073,35.0887961 C193.239605,35.4654644 193.213315,35.8919027 193.13501,36.2691365 C194.162239,36.7892705 194.751416,36.6048954 195.149937,35.5996925 C195.772781,34.0285447 196.52235,32.5079209 197.16827,30.945068 C197.347198,30.512597 197.349278,30.0073563 197.434203,29.5249268 Z M143.977433,35.2022868 C145.66401,35.5657585 145.737208,35.5962991 146.282315,34.3035992 C147.201922,32.1240887 148.018448,29.901218 148.886608,27.6749539 C147.230294,27.388965 147.210623,27.3808586 146.749495,28.4810768 C145.812487,30.7171441 144.89931,32.9630146 143.977433,35.2022868 Z M163.25817,36.8224505 C163.662177,36.5151586 164.278212,36.2900625 164.4352,35.8873781 C165.388474,33.4426162 166.254366,30.9631662 167.092453,28.4761752 C167.170379,28.2448579 166.849973,27.8800666 166.714548,27.5772992 C166.418541,27.7533793 165.997511,27.8600832 165.851683,28.1198674 C165.518415,28.7140908 165.298065,29.3756169 165.070149,30.0231922 C164.317364,32.1612277 163.02685,34.127142 163.25817,36.8224505 Z M176.597396,28.6190754 C175.62672,31.2668762 174.244283,33.6043687 173.72698,36.4363561 C174.765558,36.1545147 175.655659,36.3556684 176.021838,35.3091791 C176.739631,33.257864 177.546699,31.2378437 178.298537,29.198217 C178.350551,29.0573906 178.25163,28.861327 178.210776,28.6190754 L176.597396,28.6190754 Z M170.489629,36.3486931 C172.47732,36.5424944 172.482994,36.5449452 173.060823,35.2132211 C173.385579,34.4649746 173.721495,33.7188019 173.994616,32.9511377 C174.530454,31.4455957 175.026006,29.925726 175.538202,28.4117005 C175.427743,28.304054 175.317095,28.1965961 175.206636,28.0887612 C174.760073,28.2789805 174.062328,28.3506191 173.906854,28.678083 C172.734364,31.1458447 171.668739,33.6639418 170.489629,36.3486931 Z M131.850984,35.0818208 C132.839439,32.3957499 133.774367,29.8552185 134.712322,27.3065806 C133.442045,26.7617501 132.844735,27.1502953 132.456616,28.1285394 C131.746956,29.9172425 130.984904,31.6850195 130.263517,33.4690094 C130.087237,33.9050623 129.983966,34.3705248 129.804659,34.962863 C130.511293,35.0039609 131.053373,35.0356327 131.850984,35.0818208 Z M159.921141,36.601502 C160.874794,36.9921209 161.232272,36.6893535 161.49953,36.0760893 C162.274633,34.2968124 163.133337,32.5522237 163.859263,30.753906 C164.265161,29.7481376 164.472461,28.6626241 164.769224,27.6131185 C164.649119,27.517349 164.529203,27.4213909 164.409098,27.3258099 C163.982772,27.558824 163.420643,27.692298 163.159816,28.0465321 C162.68526,28.6909025 162.333834,29.4436735 162.031396,30.1917315 C161.422549,31.6982161 160.857961,33.2237414 160.323635,34.7581274 C160.123523,35.3325559 160.05808,35.9535496 159.921141,36.601502 Z M195.682939,36.747607 C196.646238,36.6409032 197.249601,36.5737891 197.819107,36.510634 C198.426063,35.3423591 199.044178,34.2623128 199.556942,33.1347587 C200.060626,32.0268111 200.457635,30.8706016 200.97664,29.543025 C200.062707,29.4713864 199.46256,29.4242557 198.766707,29.3697727 C197.762742,31.7719284 196.784123,34.1131914 195.682939,36.747607 Z M182.668659,36.1580967 C183.506179,36.1049333 184.216028,36.0600649 185.014396,36.0095408 C185.793471,33.7369001 186.546066,31.5415537 187.362402,29.1597584 L185.281842,29.1597584 C184.480448,31.1264268 183.679054,33.0744315 182.89771,35.0305426 C182.786873,35.3078595 182.773443,35.6238234 182.668659,36.1580967 Z M134.943264,35.1182057 C135.932854,32.5137651 137.192349,30.0886096 137.538289,27.3062036 C136.691312,26.918224 135.981841,26.8539377 135.607719,27.7695923 C134.65766,30.0952079 133.756588,32.4406183 132.763404,34.9622974 C133.656154,35.0262066 134.248357,35.0686242 134.943264,35.1182057 Z M143.500985,27.526021 C142.562652,27.3755799 141.971395,27.2805645 141.242442,27.1636805 C140.294653,29.842776 139.386205,32.4110202 138.395858,35.2105818 C139.213329,35.2920236 139.785483,35.3489574 140.236019,35.3938258 C140.852621,33.9844304 141.396971,32.7901393 141.899332,31.5785042 C142.423255,30.3150253 142.90689,29.0349564 143.500985,27.526021 Z M128.976029,34.6174895 C129.958242,32.0196472 130.89771,29.5345415 131.847012,27.0237966 C129.878046,26.6414727 129.885233,26.644489 129.265794,28.0576549 C128.516793,29.7660473 127.746985,31.4653906 127.001767,33.1752911 C126.788793,33.6643189 126.630292,34.176912 126.376275,34.871618 C127.342222,34.7771682 128.06323,34.7068492 128.976029,34.6174895 Z M161.892756,27.4206368 C160.9043,26.9657317 160.48119,27.2424829 160.182535,27.9456725 C159.160791,30.3506561 158.104056,32.7409349 157.077962,35.1440333 C156.920217,35.5131606 156.85345,35.9209352 156.72124,36.3950697 C157.465135,36.4996997 158.056581,36.5828382 158.640462,36.6650341 C160.021008,33.6335897 161.20409,30.6473907 161.892756,27.4206368 Z M159.188973,27.4355301 C158.215839,27.0260589 157.611342,27.068288 157.239678,27.8738453 C156.06662,30.4145652 154.884295,32.9515147 153.732421,35.5020378 C153.620071,35.7508877 153.693269,36.0828761 153.67757,36.4316431 C154.932715,36.7059435 155.662235,36.3042017 156.094046,35.1913525 C157.08269,32.6440342 158.116729,30.1142486 159.188973,27.4355301 Z M179.60721,28.5704366 C178.63956,31.0617635 177.719764,33.4296082 176.802047,35.7923627 C177.670208,36.2570711 178.259196,36.1667687 178.613269,35.357818 C179.16405,34.0988636 179.688919,32.828975 180.24197,31.5713403 C180.575048,30.8136677 180.754166,29.9453323 181.516785,29.4086083 C181.682474,29.6288028 181.8353,29.7536048 181.812981,29.8133665 C181.079489,31.7792808 180.329164,33.7389739 179.528337,35.8381737 C180.159504,35.9137713 180.69591,35.9780575 181.393654,36.0617616 C182.287349,33.7508508 183.73523,31.6878473 184.068308,28.994424 C182.499377,28.8453026 181.088568,28.711263 179.60721,28.5704366 Z M169.593097,36.6152641 C170.438371,33.640188 172.236921,31.136607 172.786756,27.9952539 L170.749321,27.9952539 C170.191352,29.4811895 169.746491,30.9252731 169.111542,32.2809396 C168.515367,33.5540331 168.416824,35.1018042 167.154302,36.05686 C167.55585,33.2288315 168.978575,30.720349 169.76427,27.6887161 C169.129321,27.9147547 168.691836,27.9334185 168.543927,28.1494655 C168.157889,28.7133367 167.836915,29.3409287 167.600299,29.9832254 C166.828411,32.0780892 166.1057,34.1906742 165.356888,36.3170213 C166.712278,37.192709 168.079584,36.7589184 169.593097,36.6152641 Z M185.432399,27.2160898 C185.59298,27.3239247 185.982423,27.8050346 186.384161,27.8154033 C187.872328,27.8538619 189.340069,28.507847 190.864173,27.912681 C191.361616,27.7185027 191.985784,27.7952314 192.547914,27.8252065 C195.103409,27.9620739 197.65531,28.1784979 200.21194,28.2684233 C204.041872,28.4024629 207.874831,28.4507247 211.706087,28.5464942 C212.204476,28.5591252 212.707593,28.6009772 213.197281,28.690714 C214.66767,28.9599244 215.975396,28.3166851 216.575165,26.9363221 C218.097378,23.432817 219.579493,19.9119677 221.112109,16.4131757 C222.493412,13.2599456 223.940914,10.1355595 225.314462,6.97893607 C225.697663,6.09834672 225.921985,5.14894659 226.249957,4.13601433 C224.934854,3.94824575 223.889657,3.696568 222.838217,3.66923221 C220.354218,3.60475746 217.874758,3.76877218 215.380167,3.71542027 C210.098571,3.60230667 204.808086,3.9951879 199.521383,3.99481085 C196.51138,3.99443381 193.503458,3.50031591 190.490997,3.45299672 C184.261044,3.35496494 178.028632,3.40756276 171.797355,3.39757106 C170.289139,3.39493174 168.779787,3.4245298 167.273083,3.37758766 C163.00037,3.24467918 158.727089,3.11026252 154.456835,2.91589566 C151.889235,2.79901161 149.274727,2.82615887 146.775975,2.32242632 C143.847114,1.73178482 140.896502,1.85055409 137.970667,1.5070658 C137.351795,1.4346731 136.708524,1.4887791 136.084167,1.55645874 C134.026115,1.77966957 131.961821,1.97479053 129.91909,2.30055769 C128.556134,2.51811284 127.412015,2.96000996 126.74529,4.51060886 C125.977753,6.29591847 125.27528,8.06784297 124.725256,9.93666812 C123.612724,13.7152278 122.298756,17.4345914 121.111323,21.1918481 C120.759898,22.3035662 120.554301,23.4610954 120.237677,24.7826392 C121.272472,24.9187526 122.12361,25.0795624 122.981558,25.1344225 C125.92763,25.321814 128.875595,25.4830009 131.823937,25.6308027 C133.003425,25.6899988 134.186129,25.6920726 135.367509,25.7122445 C136.548321,25.7322279 137.756559,25.5883851 138.904082,25.7904814 C141.07978,26.173748 143.236375,26.3552953 145.430042,26.0478148 C145.799436,25.9961596 146.18415,26.0534705 146.561866,26.0591262 C149.074237,26.0960766 151.586608,26.1643218 154.098978,26.1609284 C156.796708,26.1569694 159.501057,25.9458241 162.190465,26.0755277 C166.578555,26.2870501 170.957944,26.6880378 175.338846,27.035485 C177.966972,27.2441796 180.588288,27.5452503 183.218494,27.7102077 C183.871222,27.7511171 184.547215,27.4253499 185.432399,27.2160898 Z M178.212289,37.8227518 C177.995532,37.691163 177.644863,37.2977162 177.29514,37.2984703 C176.002923,37.300921 174.701628,37.3648302 173.420381,37.5314843 C170.78469,37.874407 168.162239,38.0297497 165.496096,37.8334976 C163.627942,37.6960645 161.731418,37.9971352 159.852294,37.9409555 C157.101415,37.8587596 154.351483,37.6723107 151.607413,37.4536244 C149.447036,37.2813147 147.295926,36.9941947 145.141222,36.7532627 C144.955485,36.7325252 144.735702,36.5883054 144.595927,36.6490097 C142.407178,37.5980328 140.21805,36.3715043 137.961967,36.6948207 C135.765085,37.0096535 133.429562,36.4855605 131.171209,36.2012684 C130.082887,36.0642124 129.451531,36.6150756 128.728631,37.4994354 C128.494474,36.9334904 128.343917,36.5692646 128.196197,36.2122027 C128.06342,36.1716703 127.948611,36.1219003 127.828884,36.1024825 C126.668688,35.9149024 125.661886,36.8115162 124.332408,36.2964723 C123.245032,35.8753127 121.836115,36.1424493 120.594021,36.2970379 C119.60027,36.4208973 119.341524,36.0299013 119.341334,35.1896558 C119.340956,32.9920471 119.372165,30.7936843 119.321096,28.5972068 C119.301236,27.7396172 118.988774,26.885044 119.000312,26.0314133 C119.015443,24.9189411 119.106799,23.7812069 119.370084,22.7039884 C119.771821,21.061956 120.324115,19.4544232 120.857117,17.8468905 C121.763295,15.1142545 122.830812,12.4274295 123.584163,9.65482674 C124.06099,7.89986927 124.750601,6.23200928 125.261095,4.50910067 C125.911553,2.31450836 127.307798,1.24709305 129.430158,1.13831547 C133.119747,0.949227245 136.743326,-0.235260641 140.48266,0.393085392 C142.707156,0.766925831 144.961349,0.754483335 147.204381,1.16150376 C150.014461,1.67145756 152.951833,1.72348982 155.820547,1.61565486 C159.670528,1.47086945 163.473792,1.76006321 167.287647,2.13616593 C168.349868,2.24098453 169.423626,2.26454986 170.492088,2.26605804 C178.174082,2.27661531 185.856266,2.23872225 193.537882,2.29000042 C196.364228,2.30885268 199.188115,2.59257929 202.015028,2.63480837 C204.524751,2.67194733 207.037311,2.55619442 209.547979,2.48040831 C211.118424,2.43308912 212.689246,2.24664021 214.256854,2.2773694 C218.145609,2.3539096 222.033608,2.49435898 225.919905,2.66025893 C227.559008,2.73020083 227.275295,2.86141261 227.694811,4.47233875 C228.076689,5.93829098 228.242755,7.37558775 228.356051,8.8534169 C228.460647,10.2158702 228.403147,11.6354458 228.783701,12.922113 C229.510384,15.3793174 228.272072,17.2357 227.055512,18.9970673 C225.264339,21.590762 223.971366,24.4252003 222.597818,27.2196717 C220.666869,31.1479184 218.883262,35.1483693 217.033455,39.1163943 C216.902002,39.3986127 216.744257,39.6685772 216.569301,40 C215.588601,39.1376973 215.02893,38.0704706 213.808398,38.7576357 C213.733309,38.8000533 213.532251,38.7404801 213.466997,38.6633743 C212.364679,37.3593631 211.51581,38.2280755 210.58807,39.0319361 C209.299258,37.7573344 207.599251,38.4839008 206.082523,38.1811334 C205.864821,38.1375846 205.532877,38.4428028 205.373809,38.3594758 C203.411841,37.3303306 201.273782,38.2293952 199.266231,37.7733588 C199.085978,37.7326379 198.885488,37.7324494 198.702021,37.7611049 C194.665356,38.3951066 190.7261,37.0222846 186.704378,37.1940287 C184.516574,37.2875359 182.31799,37.1022182 180.125836,37.138226 C179.568625,37.1474636 179.017655,37.5220581 178.212289,37.8227518 Z" id="Fill-4-Copy"></path>
                    </g>
                </g>
            </g>
            <g id="Group-9" transform="translate(145.000000, 264.000000)" fill="#174EA6">
                <g id="Group-10">
                    <path d="M9.36106944,6.93477059 C9.25237584,6.92324178 9.20824624,6.9051625 9.17885549,6.91891847 C9.14403006,6.93516362 9.12185656,6.97883337 9.09420491,7.01062495 C9.10811769,7.02634606 9.12203047,7.04206717 9.13598673,7.05778828 C9.19146394,7.02748147 9.24694116,6.997131 9.36106944,6.93477059 M7.48636569,7.54239152 C7.60179829,7.28666145 7.52675623,7.22587316 7.30693429,7.19408158 C7.37097656,7.31845303 7.41036712,7.3948751 7.48636569,7.54239152 M5.44544768,8.66064287 C5.4226655,8.69339518 5.39988332,8.72619116 5.37705766,8.75894348 C5.48244698,8.87148043 5.56188026,9.03065668 5.86035289,8.94716011 C5.68409535,8.82545251 5.56479325,8.74304769 5.44544768,8.66064287 M4.83567658,2.00292713 C4.69876612,2.29782897 4.76441705,2.80915809 4.90763174,3.00951492 C4.88367567,2.67400021 4.85967612,2.33844184 4.83567658,2.00292713 M0.494715016,7.20015167 C0.53201866,6.90389608 0.582365536,6.63759793 0.595060948,6.36946565 C0.610625872,6.04229187 0.763622985,5.88027709 1.08796469,5.95412264 C1.32813407,6.00879717 1.53026069,5.99587092 1.75569122,5.88984076 C1.88734091,5.82791705 2.06690274,5.8522411 2.22329109,5.86285285 C2.80049759,5.90198095 3.37553022,5.93709143 3.94982373,5.81883374 C4.255731,5.75581829 4.3096865,5.7370403 4.2761654,5.4295179 C4.1929061,4.66507889 4.32981656,3.89229896 4.14186358,3.12816563 C4.05030009,2.75579366 4.07895173,2.3516301 4.06964755,1.96148454 C4.0637781,1.71623521 4.08795156,1.48823543 3.91686783,1.26172043 C3.77774002,1.07756508 3.94704117,0.847818516 4.17190649,0.715542837 C5.20714783,0.106655482 6.37399537,0.221201242 7.49432206,0.0801042728 C7.66544926,0.0585314152 7.83831557,0.0477886562 8.00800802,0.018573592 C8.3884791,-0.0468873665 8.53904147,0.0521556314 8.59251873,0.452607259 C8.63856134,0.797292613 8.6540393,1.14599558 8.69073426,1.49207837 C8.73968986,1.95353664 8.79777572,2.41399051 8.84899215,2.87523043 C8.92568635,3.56612958 9.00585875,4.25681038 9.07150969,4.94880127 C9.09290059,5.17387517 9.19111613,5.28711084 9.41080763,5.32667564 C9.57958706,5.35706978 9.74006229,5.43624305 9.9090591,5.46253224 C10.0461435,5.48379941 10.200184,5.48982583 10.3297468,5.44868892 C10.8172594,5.29387965 11.2969894,5.30466608 11.7769804,5.46541444 C11.9468902,5.52227246 12.133278,5.60498297 12.105409,5.81407374 C12.0485405,6.24112025 11.9755418,6.66384345 12.1106697,7.05888003 C12.0434971,7.11220079 12.0211497,7.14547715 11.9985414,7.14565182 C11.5098985,7.14910173 11.3156847,7.48815369 11.1283839,7.86947797 C11.0229946,8.08402746 10.8509978,8.27019161 10.6893922,8.45150842 C10.2480092,8.94694176 9.81149572,9.44835786 9.34415672,9.91841907 C8.88746968,10.3777375 8.41656552,10.8247411 7.85114141,11.1591641 C7.5934941,11.3115715 7.37797643,11.535772 7.12058998,11.6888345 C6.79772651,11.8808067 6.70351089,11.8586225 6.47325437,11.5528469 C6.11739152,11.0800781 5.67053039,10.7360915 5.14184471,10.478571 C4.5185956,10.1750225 3.90212898,9.856146 3.29387958,9.52342616 C3.01840652,9.37272185 2.79019344,9.12162077 2.5044597,9.00624529 C2.02025145,8.81064847 1.7478218,8.35805515 1.31456911,8.10808949 C1.22783162,8.05804396 1.17644128,7.93162002 1.12939869,7.8307429 C1.08083439,7.72667788 1.06370428,7.60833285 1.0218355,7.5005559 C0.926359044,7.25478253 0.763666462,7.11870759 0.494715016,7.20015167" id="Fill-6"></path>
                    <path d="M8.47109602,16.384159 C8.48922807,16.1688671 8.39582185,16.1301225 8.25730344,16.140797 C8.24069692,16.1420709 8.22679277,16.1783117 8.19427712,16.2211855 C8.2747381,16.2685401 8.35206084,16.3140496 8.47109602,16.384159 M5.47817427,15.3582609 C5.20026572,15.1375659 4.96672838,15.1569382 4.72399426,15.2216443 C4.94436842,15.289733 5.12821696,15.5135908 5.47817427,15.3582609 M12.2795242,15.2217761 C12.2419089,15.3635762 12.1933098,15.5034874 12.1693371,15.6475717 C12.1358626,15.8484552 12.1216097,16.0525893 12.0974627,16.2550981 C12.0838201,16.3694431 12.1068774,16.5178763 12.0443742,16.5914559 C11.7997222,16.8795368 11.8735144,17.1876488 11.9394175,17.5019987 C11.9542369,17.572723 11.9853142,17.6427445 11.9857501,17.7132053 C11.9870577,17.9238407 11.8821882,18.0042732 11.6761976,17.9370631 C11.2932016,17.8121315 10.9160027,17.6691453 10.5330938,17.5438183 C10.3970599,17.4992751 10.2527444,17.4727865 10.1101289,17.457763 C9.48030159,17.3913437 8.83600355,17.392969 8.22321867,17.2529261 C7.62172273,17.1155188 7.02933641,17.0794977 6.42117171,17.074446 C6.13864296,17.0720739 5.85859866,16.9554007 5.57437004,16.9102865 C5.2483418,16.8584952 4.91856512,16.8307326 4.59092418,16.7886494 C4.14821445,16.7318503 3.70472017,16.6795319 3.26384108,16.6105208 C2.5788331,16.5033361 1.89587369,16.3831047 1.21182461,16.2696383 C0.941369373,16.2247876 0.664506896,16.2055471 0.401156283,16.134691 C0.0549474259,16.0415633 -0.0304388452,15.876042 0.00878915071,15.5156115 C0.054424386,15.0962295 0.108253914,14.677067 0.132967551,14.2562353 C0.176902907,13.5087978 0.550527774,13.257397 1.24499406,13.460389 C2.3392808,13.7802299 3.44119521,13.7632736 4.55282944,13.7862041 C5.63652462,13.8085196 6.71917372,13.8782775 7.80278172,13.9089393 C8.26336198,13.9219421 8.72612158,13.9016473 9.18617879,13.870634 C9.43052562,13.8542049 9.654779,13.8763886 9.82594382,14.0539462 C10.071206,14.3082463 10.3710822,14.3882394 10.6988103,14.3476498 C11.1324976,14.2939257 11.5264774,14.3945211 11.9058993,14.5896061 C12.1552586,14.7177884 12.3626004,14.870307 12.2795242,15.2217761" id="Fill-9"></path>
                </g>
            </g>
            <g id="Group-2" transform="translate(46.000000, 81.000000)"></g>
        </g>
    </g>
</svg>