<?xml version="1.0" encoding="UTF-8"?>
<svg width="16px" height="15px" viewBox="0 0 16 15" version="1.1" xmlns="http://www.w3.org/2000/svg" xmlns:xlink="http://www.w3.org/1999/xlink">
    <!-- Generator: Sketch 49.3 (51167) - http://www.bohemiancoding.com/sketch -->
    <title>noun_669115_cc</title>
    <desc>Created with Sketch.</desc>
    <defs></defs>
    <g id="Design-mocks" stroke="none" stroke-width="1" fill="none" fill-rule="evenodd">
        <g id="game-result" transform="translate(-27.000000, -267.000000)" fill="#174EA6">
            <g id="Group-3" transform="translate(14.000000, 258.000000)">
                <g id="Group-2">
                    <g id="Group-4-Copy-2">
                        <g id="noun_669115_cc" transform="translate(13.000000, 9.000000)">
                            <path d="M2.93811169,2.61561559 C3.08134549,2.54440432 3.17180183,2.5177677 3.23945253,2.46296206 C4.11661309,1.75265221 5.08652859,1.17967192 6.12837647,0.774804318 C6.98755394,0.440967698 7.89950887,0.214624036 8.80758774,0.045655022 C9.35650042,-0.0564745554 9.94268633,0.043942346 10.5121962,0.0488099516 C10.7170413,0.0505676981 10.9284215,0.00527192344 11.1252441,0.0426353037 C11.3375708,0.082883191 11.5650863,0.155716994 11.7361286,0.281959247 C12.5392835,0.874770515 13.3134582,1.49579587 13.9795089,2.25599868 C14.3402075,2.66771699 14.6223032,3.11580713 14.9084553,3.56953108 C14.9788553,3.68117051 15.018968,3.81259587 15.0678694,3.93694516 C15.1280384,4.09009446 15.155892,4.26334516 15.244861,4.39634798 C15.5412441,4.83952544 15.6832159,5.34517051 15.8667427,5.83468037 C16.0223258,6.24977897 15.9447596,6.67145784 15.8602525,7.07839868 C15.7747089,7.49034235 15.73383,7.89687756 15.7065173,8.3169339 C15.6710018,8.86318742 15.5046018,9.40335643 15.3685342,9.93955925 C15.3065624,10.183886 15.1787877,10.411086 15.0868441,10.6483818 C14.7178525,11.600224 14.0029004,12.2406747 13.1796441,12.7888212 C13.0065286,12.9041114 12.8503596,13.0477057 12.6974356,13.1901283 C12.295768,13.5642128 11.8470469,13.8569001 11.3135032,14.0018015 C11.1709455,14.0405621 11.0158131,14.0794578 10.8729399,14.0627367 C10.231768,13.9876043 9.61565535,14.1277733 9.00423,14.2744776 C8.64979619,14.3595254 8.33966661,14.3826015 8.02741873,14.1446297 C7.72301309,13.9126522 7.33486661,13.8025001 7.0807145,13.4879987 C6.97858492,13.3617114 6.83891169,13.3647311 6.67359338,13.4316156 C6.27287225,13.5936888 6.11634267,13.4898015 6.17335676,13.0761902 C6.22802718,12.6797057 6.33732295,12.2886747 6.44797084,11.9025114 C6.59913704,11.3745564 6.87857366,10.8794578 6.77450605,10.2937226 C6.73367225,10.064179 6.85247788,9.92851699 7.08643845,9.96624094 C7.55472014,10.0417339 8.04684408,10.0122578 8.48407225,10.251086 C8.76030887,10.4019818 9.03595957,10.5597733 9.32706943,10.6765508 C10.0701004,10.9746015 10.7967708,10.8704888 11.5033399,10.5360663 C11.5979877,10.4912663 11.6830807,10.4005846 11.7794413,10.3892269 C12.4363877,10.3114353 12.6098187,9.7842015 12.739892,9.28761559 C13.0000384,8.29462404 13.0682751,7.27504094 12.9300441,6.25342967 C12.9014244,6.04191418 12.7796441,5.8398184 12.6839145,5.64150854 C12.6130638,5.49462404 12.5225624,5.35535643 12.4271934,5.22244375 C12.2098638,4.91970573 11.9860892,4.62147474 11.7608272,4.32450573 C11.6886694,4.22936206 11.5831596,4.15499587 11.5276779,4.05232544 C11.2241737,3.49079305 10.717492,3.18440432 10.1610075,2.93629164 C10.1473061,2.93016206 10.1305399,2.92826911 10.1194525,2.91920995 C9.70205535,2.57744094 9.29966661,2.66010009 8.88483845,2.93732826 C8.81583563,2.9834353 8.64420746,2.95508601 8.56817366,2.89748601 C8.27746943,2.67718178 8.00371169,2.6730353 7.70119901,2.86927192 C7.57896802,2.94859587 7.42608915,2.98014516 7.28808352,3.03571699 C7.10762154,3.10841559 6.9123314,3.15880432 6.75124971,3.26219587 C6.38324971,3.49840995 5.98059056,3.63979587 5.58004971,3.80434798 C5.16310323,3.97561559 4.80321591,4.2954353 4.43580183,4.5733846 C4.27192577,4.69732826 4.26043281,4.89789164 4.40555957,5.05342967 C4.79965535,5.47591981 5.06638211,6.01973953 5.6446807,6.26884375 C5.96643845,6.4074353 5.97513704,6.69786911 5.70092859,6.95549164 C5.61781873,7.03350854 5.50009478,7.07817333 5.39305253,7.12666911 C4.66246098,7.45775643 3.87855112,7.5890015 3.09820183,7.73282122 C2.46608915,7.84932826 1.83415676,7.96709728 1.20123281,8.07923249 C1.08490605,8.09982967 0.962179291,8.1138015 0.845987742,8.10019023 C0.543339854,8.06476488 0.45117084,7.96948601 0.454010277,7.66192544 C0.457435629,7.28761559 0.510393375,6.91294516 0.500748305,6.53944657 C0.482269432,5.82151981 0.432286333,5.10440432 0.400331404,4.38674798 C0.383069432,3.99792544 0.41060746,3.60364939 0.354855347,3.22104657 C0.297075066,2.82510291 0.17912577,2.43510854 0.0547314036,2.05318178 C1.59106315e-05,1.88511418 -0.0353193006,1.75026347 0.0567145022,1.58661277 C0.128691967,1.45861277 0.170517319,1.31217897 0.215091967,1.1705677 C0.33592577,0.786702909 0.61216239,0.624584599 0.975655347,0.795221219 C1.22674267,0.913080374 1.44785816,1.10643249 1.65986943,1.29185221 C1.81621873,1.42859587 1.93583563,1.60725502 2.07262436,1.76657897 C2.11174549,1.81214516 2.1455483,1.87082685 2.19562154,1.89674235 C2.35025816,1.97692263 2.54158211,2.01225784 2.66187507,2.1253846 C2.78297929,2.23927756 2.83607225,2.42550854 2.93811169,2.61561559" id="Fill-4"></path>
                        </g>
                    </g>
                </g>
            </g>
        </g>
    </g>
</svg>