
<svg width="56px" height="69px" viewBox="0 0 56 69" version="1.1" xmlns="http://www.w3.org/2000/svg" xmlns:xlink="http://www.w3.org/1999/xlink">
    <!-- Generator: Sketch 49 (51002) - http://www.bohemiancoding.com/sketch -->
    <desc>Created with Sketch.</desc>
    <defs></defs>
    <g id="Design-mocks" stroke="none" stroke-width="1" fill="none" fill-rule="evenodd">
        <g id="Leaderboard" transform="translate(-50.000000, -230.000000)" fill="#B06000">
            <g id="Group-11" transform="translate(50.000000, 230.000000)">
                <g id="Page-1" transform="translate(0.000000, 15.000000)">
                    <g id="Group-3">
                        <path d="M49.9560935,40.534404 C50.0273161,40.5179299 50.0986175,40.501373 50.16984,40.4848161 C50.1281949,40.3219792 50.0865499,40.1590595 50.0448259,39.9962226 C49.9927696,40.0075641 49.9407921,40.0189055 49.8887358,40.0303298 C49.9111358,40.1982993 49.9336146,40.3663516 49.9560935,40.534404 Z M46.9675076,43.299734 C46.9129273,43.2665375 46.858347,43.2333409 46.8037668,43.2001444 C46.6986287,43.3905485 46.5935696,43.5811182 46.4884315,43.7716051 L46.6443639,43.8656482 C46.7521048,43.6769825 46.8598456,43.4883997 46.9675076,43.299734 Z M49.3539752,42.9060942 C49.3931752,42.9353999 49.4322963,42.9647056 49.4714963,42.9940112 C49.5490287,42.932668 49.6562963,42.8871366 49.695733,42.8055939 C49.7344597,42.7256242 49.7041724,42.6088982 49.7041724,42.3442365 C49.5289161,42.6254551 49.4414456,42.7657747 49.3539752,42.9060942 Z M28.2503358,1.10551942 C28.1771414,1.22845425 28.1028428,1.30180123 28.0973217,1.38044641 C28.0934569,1.43442183 28.1852654,1.49593064 28.2343245,1.5539625 C28.2946625,1.47697301 28.3693555,1.40668906 28.4071358,1.3189376 C28.4192823,1.29054255 28.3343358,1.21620216 28.2503358,1.10551942 Z M46.7696146,16.2500973 C46.8103921,16.2238547 46.8511696,16.1975292 46.8918682,16.1712866 C46.8176485,16.0176387 46.7433499,15.8639081 46.6691301,15.7101775 C46.610133,15.7461059 46.5511358,15.7819515 46.4921386,15.81788 C46.584578,15.9619248 46.6770963,16.1060525 46.7696146,16.2500973 Z M47.3564315,11.0171299 C47.4043076,10.9784696 47.4522625,10.9397265 47.5001386,10.9010662 C47.4047808,10.7770551 47.3094231,10.6531269 47.2140654,10.5291987 C47.1711583,10.5638025 47.1282513,10.5984064 47.0854231,10.6330103 C47.175733,10.7610778 47.2661217,10.8890624 47.3564315,11.0171299 Z M30.2293442,51.8232985 C30.1187639,51.9887845 30.0081837,52.1541877 29.8320597,52.4179388 C30.3362963,52.3966632 30.3602738,52.1608933 30.2293442,51.8232985 Z M34.5095583,51.1364363 C34.2588992,51.2692225 34.0106851,51.4059823 34.0313499,51.8710651 C34.3924315,51.6903468 34.4801386,51.4337151 34.5095583,51.1364363 Z M25.4000146,52.068837 C25.2322513,52.068837 25.0640935,52.0632077 24.8975921,52.0785228 C24.8830006,52.0799301 24.8454569,52.2479825 24.8769273,52.2878018 C25.0536034,52.5116508 25.2264935,52.4253894 25.4000146,52.068837 Z M32.6606907,50.3170364 C32.8249837,50.0613154 32.9275977,49.9015415 33.0627076,49.6911035 C32.4839358,49.7696659 32.4839358,49.7696659 32.6606907,50.3170364 Z M46.9648259,44.7490405 C47.1524654,44.4064786 47.2744034,44.1839542 47.3962625,43.9614297 C47.1671358,44.1212036 46.6722062,44.0698773 46.9648259,44.7490405 Z M36.2808146,7.51841286 C36.3692315,7.87521362 36.5601837,8.00021806 36.8590344,7.90418816 C36.9035189,7.88994924 36.9515527,7.76254405 36.9394851,7.69995905 C36.8724428,7.35110559 36.5925217,7.46948728 36.3815358,7.44084388 C36.3633161,7.43844313 36.3408372,7.47081183 36.2808146,7.51841286 Z M13.5585386,3.44351641 C12.9583132,3.40063409 12.9583132,3.40063409 12.9654907,4.32790214 C13.2122851,3.95992548 13.385333,3.70172094 13.5585386,3.44351641 Z M11.2602513,45.775981 C11.3774569,45.5936897 11.4534118,45.4916993 11.5120146,45.3797748 C11.5675414,45.2736452 11.6049273,45.1569192 11.6607696,45.0188348 C10.9014569,45.074466 10.8571301,45.1459917 11.2602513,45.775981 Z M15.7287358,5.07503133 C15.6721837,5.02825815 15.6155527,4.98148496 15.5589217,4.93471178 C15.1086344,5.10723447 15.0924654,5.58788068 14.9092428,5.94997964 C14.9563301,5.98532858 15.0035752,6.02067752 15.0506625,6.05610924 L15.7287358,5.07503133 Z M16.8079583,4.92295639 C16.8521273,4.96575593 16.8961386,5.00847268 16.9402287,5.05118943 C17.5656146,4.82195943 17.5656146,4.82195943 17.3457161,4.21755053 C17.1394625,4.48817273 16.9737499,4.70556456 16.8079583,4.92295639 Z M4.74453296,11.4346944 C5.03107944,11.1077788 5.31762592,10.7807804 5.60425127,10.4537821 C4.98825127,10.458418 4.78744,10.8680352 4.74453296,11.4346944 Z M49.1106513,12.4616349 C48.8622006,11.9478749 48.8622006,11.9478749 48.2356315,11.8563981 C48.6329161,12.4770328 48.6329161,12.4770328 49.1106513,12.4616349 Z M47.782347,41.8872666 C48.1257611,41.5390754 48.4846344,41.1946923 48.5726569,40.6689286 C48.2588203,41.0388093 47.7875527,41.2903083 47.782347,41.8872666 Z M33.5114175,6.36828921 C33.6802062,6.08988528 33.7798231,5.93425061 33.8707639,5.77331774 C33.9666738,5.60327858 34.054302,5.42818958 34.1731639,5.20301602 C33.5790118,5.2874561 33.3499639,5.67124457 33.5114175,6.36828921 Z M27.2095245,1.09748933 C26.8130287,0.972981595 26.4804203,0.893177434 26.1422118,1.17505831 C26.5858738,1.67052294 26.5858738,1.67052294 27.2095245,1.09748933 Z M48.2155189,39.3766642 L48.3590682,39.5098642 C48.6366231,38.895604 49.2492315,38.5156236 49.2914287,37.733725 C48.9327921,38.2814266 48.5741555,38.8290454 48.2155189,39.3766642 Z M51.0629217,19.329263 C50.3294006,19.7455858 50.1617161,20.2746609 50.5326569,20.9091205 C50.7247132,20.3368319 50.8938175,19.8330889 51.0629217,19.329263 Z M28.9030907,1.36181992 C29.3835865,1.75504581 29.724871,2.03444315 30.1141104,2.35308031 C30.2474062,1.44005117 30.1584372,1.36819431 28.9030907,1.36181992 Z M49.2849611,39.6592901 C49.3131189,39.6821386 49.3413555,39.7049871 49.3695921,39.7278356 C49.8107301,39.3718627 50.251947,39.015807 50.7200597,38.6380617 C50.5734344,38.4976594 50.4435301,38.3731517 50.2655921,38.2026986 C49.9235189,38.7107464 49.60424,39.1850183 49.2849611,39.6592901 Z M34.1988766,2.94945911 C33.5439132,2.5324741 32.9865949,2.42071516 32.3821104,2.50507246 C32.5120935,2.64406747 32.6643189,2.69762897 32.8183583,2.74440216 C32.9557555,2.78620828 33.1627189,2.77321113 33.2221104,2.86642636 C33.4589668,3.23845945 33.7324203,3.13299213 34.1988766,2.94945911 Z M25.6218851,1.16429634 C25.3032372,1.1130528 25.0369611,1.07017048 24.7554625,1.02480463 C24.7161048,1.28896964 24.6993048,1.50429187 24.6485893,1.71034223 C24.6051301,1.88716971 24.5227865,2.05348357 24.4576372,2.22435057 C24.5088259,2.25133828 24.5600146,2.27824321 24.6112823,2.30523092 C24.934978,1.9397378 25.2587527,1.57424468 25.6218851,1.16429634 Z M46.7282851,15.0176032 C47.3876654,14.4369534 47.4457161,14.2145117 47.1467076,13.4190364 C46.8791696,13.9296506 46.5325217,14.3685735 46.7282851,15.0176032 Z M37.2988315,6.81275865 C37.7423358,6.14377792 38.0843301,5.62794833 38.4294006,5.1075656 C37.9545048,4.79348159 37.8137161,4.80879671 37.6797104,5.26667722 C37.5498062,5.71048438 37.4561837,6.16604693 37.2988315,6.81275865 Z M52.6930738,39.1967737 C53.1850851,38.9716829 53.4586963,38.2320871 53.2773668,37.6174957 C52.6877893,38.1670185 52.5662456,38.4955898 52.6930738,39.1967737 Z M5.59762592,39.9551615 C5.65386254,39.991835 5.71002028,40.0285913 5.7662569,40.0652648 C6.10683155,39.4851945 6.45150761,38.9076905 6.78411606,38.3224876 C6.84137803,38.2216562 6.84753014,38.0887873 6.87734423,37.9707367 C6.82883718,37.9483849 6.78033014,37.9260331 6.7318231,37.9036813 C6.31198085,38.5625624 5.64084845,39.0713553 5.59762592,39.9551615 Z M11.7758456,44.3705502 C11.8183583,44.4039951 11.860871,44.4373572 11.9033048,44.4708021 C12.1862231,44.0683044 12.4691414,43.6658066 12.763733,43.246752 C12.5106287,43.002538 12.4338062,42.6541813 12.1265161,42.7087362 C12.0022907,43.2973333 11.8891076,43.8339417 11.7758456,44.3705502 Z M25.3778513,3.88484003 C25.5049161,3.38647795 25.6097386,2.97545341 25.7286794,2.50904611 C24.9967358,2.88463893 24.5615921,3.52174766 24.7819639,3.88484003 L25.3778513,3.88484003 Z M51.5207808,33.6650373 C50.4825724,35.1361989 50.0688034,35.5800061 50.0602062,36.5923765 C50.344702,36.1137999 50.6459977,35.6682542 50.884747,35.1884359 C51.128702,34.6981039 51.3113724,34.1741614 51.5207808,33.6650373 Z M54.9757442,27.3149773 C54.5169386,27.4320344 54.4360935,27.738585 54.3346625,28.0614442 C54.2296034,28.3959759 54.0496935,28.7037683 53.916871,29.0297733 C53.810471,29.2907925 53.4911921,29.4870743 53.6667639,29.959111 C54.1442625,29.0570921 54.8486006,28.4064068 54.9757442,27.3149773 Z M15.1128146,49.6165976 C15.2160597,48.9563092 15.3033724,48.3981768 15.4119808,47.7036985 C14.7944034,48.2774771 14.7944034,48.2774771 14.5479245,49.3525981 C14.7060654,49.4265246 14.8689386,49.5026862 15.1128146,49.6165976 Z M5.87675831,29.7323645 C5.15806535,30.1673137 4.87412169,30.7397678 4.63884282,31.3378851 C4.60855549,31.4149574 4.77347944,31.5766353 4.88595268,31.7615757 C5.38372169,31.1705778 5.67271324,30.5726261 5.87675831,29.7323645 Z M49.5315977,40.8846648 C48.3576485,41.9659118 47.8127921,42.7810898 47.8283301,43.4542925 C48.5965555,42.8477312 48.9502231,41.9357783 49.5256823,41.214395 C49.570009,41.1588467 49.5315977,41.0306964 49.5315977,40.8846648 Z M27.2133104,50.2181918 C26.8945048,50.3353317 26.634933,50.3641407 26.4623583,50.5081028 C26.1093217,50.8025669 25.7556541,51.8148545 25.7948541,52.3229023 C26.379147,51.7316562 26.9124879,51.1635896 27.2133104,50.2181918 Z M3.11374986,34.8082071 C3.78969352,34.0528823 4.30986254,33.3995478 4.50168225,32.4588687 C4.10558085,32.5756774 3.93592451,32.798533 3.82384563,33.1351344 C3.69520338,33.521572 3.52759775,33.9143012 3.03866254,33.9414545 C3.00593014,33.9432757 2.97698366,34.0189407 2.91120338,34.1076027 C2.95939493,34.2744133 3.01673577,34.4727647 3.11374986,34.8082071 Z M20.1500541,1.47937376 C19.3890062,1.71009388 18.6102118,1.71630271 18.3718569,2.69034395 C18.6333217,2.77958553 18.8508541,2.85384313 19.0634963,2.92636227 C19.4140879,2.45937547 19.7443301,2.01962475 20.1500541,1.47937376 Z M5.82959211,27.2466801 C5.20452169,27.8059715 4.73333296,28.2275097 4.32374423,28.594079 C4.43621746,29.0134648 4.50278648,29.261818 4.59924845,29.621599 C5.22289915,28.9464094 5.62673014,28.2623619 5.82959211,27.2466801 Z M20.9891865,3.61670137 C21.129502,3.93500738 21.3176935,4.0102584 21.4925555,3.7821046 C22.1196766,2.96361525 22.7230569,2.12517486 23.3586963,1.26264421 C23.2280823,1.2244806 23.1137161,1.16222673 23.0907639,1.1883866 C22.3822456,1.99536892 21.6827189,2.8110436 20.9891865,3.61670137 Z M30.7277442,5.17048175 C30.7693893,5.11162204 30.8111132,5.05276233 30.8526794,4.99390262 C30.4326006,4.51863739 30.5060315,4.04626961 30.7512485,3.53524152 C30.8673499,3.29326272 30.9975696,2.99979203 30.8578851,2.67610503 C30.1800485,2.72147088 30.4170625,3.48209393 30.0321611,3.77564741 C29.8307189,3.92929526 29.8551696,4.40919642 29.7587076,4.82278727 C30.133671,4.95731192 30.4307076,5.06393823 30.7277442,5.17048175 Z M41.633547,6.95357491 C41.3860428,7.44473475 41.1856259,7.87628982 40.9558682,8.28996346 C40.6514963,8.83783061 40.4207921,9.40093009 40.4535245,10.1841533 C41.2793273,9.24148734 41.5379527,8.11586787 42.1399132,7.09190764 C41.8558907,7.01433866 41.693333,6.96996622 41.633547,6.95357491 Z M28.7028315,50.2999 C28.2783358,50.1678589 28.1203527,50.1552756 28.0855696,50.3388914 C27.9480935,51.0640828 27.463733,51.6078107 27.2312146,52.2774537 C27.2243527,52.297322 27.247147,52.3285317 27.2708879,52.3973255 L28.0559132,52.3973255 C28.2762062,51.6830617 28.4895583,50.9912325 28.7028315,50.2999 Z M20.0108428,48.9002642 C19.4240259,48.611181 19.4007583,48.6052206 19.1245442,49.0554021 C18.7246569,49.7071637 18.3455921,50.3729158 17.9303245,51.0790668 C18.1213555,51.3812298 18.441502,51.2535763 18.6038231,51.0327075 C19.0944146,50.3649685 19.5245104,49.6481384 20.0108428,48.9002642 Z M11.5385161,47.544918 C12.0252428,47.7780389 12.1951358,47.3661865 12.2884428,47.1423375 C12.6941668,46.1692896 13.180578,45.2554327 13.9255358,44.4028361 C13.3099301,44.3177338 12.9656485,44.5869486 12.7500879,45.0079901 C12.3284315,45.8316121 11.9489724,46.679076 11.5385161,47.544918 Z M35.2618513,51.8306663 C35.9174456,52.0702444 36.1479921,51.6039198 36.3703358,51.2396685 C36.8712597,50.4195234 37.3263583,49.5684998 37.8062231,48.7191319 C37.1742907,48.7240162 37.1862794,48.7311356 37.0152034,49.0492761 C36.724871,49.5894443 36.4346963,50.131351 36.1120259,50.6502436 C35.8654682,51.0466153 35.568747,51.4085487 35.2618513,51.8306663 Z M2.67584563,33.3986372 C3.2718907,32.2219397 3.79229634,31.1946681 4.37706254,30.0403225 C3.34571606,30.4615295 3.12589634,31.4623101 2.46864563,32.0258235 C2.38369915,32.0987565 2.38922028,32.3417287 2.4165893,32.4932242 C2.46438648,32.7579687 2.56171606,33.0128619 2.67584563,33.3986372 Z M49.2286456,43.2450135 C47.9065724,44.3746067 47.2547639,45.9663023 46.4130287,47.4415203 C46.6078456,47.4472324 46.8014794,47.4325796 46.8674963,47.3286024 C47.7104146,46.001734 48.5629555,44.6798327 49.2286456,43.2450135 Z M18.6336372,48.2523935 C18.2350118,47.8584225 17.9707076,47.8247293 17.7300654,48.1643936 C17.348871,48.7022439 16.9884992,49.2571477 16.6377499,49.8175981 C16.3394513,50.2942707 16.3565668,50.3133111 17.0598794,50.5599258 C17.5780766,49.8001306 18.1073161,49.0241924 18.6336372,48.2523935 Z M32.2305949,52.272735 C32.9544146,52.2589928 33.0287132,52.2017888 33.3219639,51.6704785 C33.6352485,51.1027431 33.9473499,50.5320274 34.2991245,49.9907003 C34.6090175,49.5136138 34.7775696,49.5044247 35.1639696,49.8796864 C35.2510456,49.9641265 35.2647696,50.1316821 35.3122513,50.2609085 C35.375902,50.2152116 35.4393949,50.1695973 35.5029668,50.1239831 C35.6519583,49.8248003 35.8009499,49.5256175 36.031733,49.0620249 C35.1604203,49.1762673 34.4726456,49.2664196 33.8612992,49.3466376 C33.7136485,49.8903656 33.6774456,50.3812771 33.4567583,50.751075 C33.1438682,51.2752658 32.6951583,51.7101322 32.2305949,52.272735 Z M8.13411042,43.9512472 C8.45473014,43.2892204 8.74316958,42.6853082 9.03933859,42.0857008 C9.21656676,41.7268304 9.39994704,41.3709403 9.59208225,41.0207623 C9.73318648,40.7635512 9.91175549,40.5270362 10.0332992,40.2609671 C10.0703696,40.1798384 10.0020654,39.9649301 9.9306062,39.9310713 C9.84842028,39.8922454 9.65833577,39.9482904 9.60336113,40.0292536 C9.34741746,40.4061709 9.11482028,40.8014664 8.88719211,41.1985004 C8.53833577,41.8072969 8.20454423,42.4256136 7.85639775,43.0348239 C7.65795268,43.3818561 7.7197893,43.654548 8.13411042,43.9512472 Z M9.06457803,45.1887912 C9.27587944,44.8208146 9.45365972,44.5237014 9.61976676,44.2195515 C10.047102,43.4370733 10.4547977,42.6421775 10.8991696,41.8706269 C11.1462006,41.441721 11.0111696,41.2283028 10.5458963,41.0302825 C10.4057386,41.3079414 10.2789893,41.5633313 10.1482175,41.8164032 C10.0530175,42.000764 9.94906254,42.180075 9.85528225,42.3651809 C9.7357893,42.6010337 9.60959211,42.8345685 9.50997521,43.0797759 C9.34828507,43.4776377 9.19456113,43.8800527 9.05937239,44.2885109 C8.97253296,44.5508546 8.75484282,44.8176688 9.06457803,45.1887912 Z M42.0096935,11.467891 C42.9071132,10.7963439 42.746133,9.46260447 43.5582118,8.72317422 C43.3842963,8.56878131 43.2028879,8.40760009 42.9673724,8.19840391 C42.5230006,9.02128084 42.1099414,9.7723009 41.7103696,10.5311027 C41.440702,11.0431242 41.4491414,11.0480085 42.0096935,11.467891 Z M49.4036654,19.3220608 C49.9418175,18.368964 50.4642738,17.4586668 50.969378,16.5378559 C51.0849273,16.3272524 51.1438456,16.0816311 51.2225611,15.849752 C51.3130287,15.5834346 51.2127808,15.4364095 50.9450851,15.3888084 C50.515147,16.0004196 50.2502907,16.7419194 49.6225386,17.1894519 C49.5668541,17.2291884 49.5023358,17.3518749 49.5222907,17.396744 C49.7500766,17.9098417 49.3867865,18.2782323 49.2419752,18.6958796 C49.1660992,18.9147615 49.0865949,19.1113745 49.4036654,19.3220608 Z M43.7999583,13.2106681 C44.4681724,12.0977974 45.05704,11.1171335 45.64504,10.1378768 C44.973671,9.68860587 44.5422344,9.7436575 44.4595752,10.317105 C44.3853555,10.8321068 44.1201048,11.2216074 43.9423245,11.6696365 C43.7654118,12.1158444 43.5869217,12.4604759 43.0187189,12.4879603 C43.2814456,12.7309325 43.5440146,12.9739047 43.7999583,13.2106681 Z M37.0617386,4.40903085 C36.055947,3.94187849 35.7804428,4.02259327 35.3675414,4.87419638 C35.1147527,5.39540696 34.8935132,5.93499567 34.6897837,6.47930309 C34.647271,6.59304885 34.7354513,6.8841188 34.7782006,6.88751296 C34.9388654,6.90017897 35.172409,6.88651955 35.2593273,6.77765806 C35.8584485,6.02754863 36.4275189,5.2508654 37.0617386,4.40903085 Z M39.5539752,5.6238919 C38.956747,6.52367553 38.3651977,7.41493236 37.7258513,8.37821163 C38.0459189,8.56770512 38.3453217,8.74494651 38.6866062,8.94702323 C39.1498287,8.02447389 39.5879696,7.19497422 39.9813104,6.34270883 C40.1019076,6.08144127 40.0110456,5.80088494 39.5539752,5.6238919 Z M14.5770287,2.70441729 C14.7437668,3.33217139 14.5334118,3.87995576 14.1158569,4.17036343 C13.5070344,4.59388841 13.3099301,5.22172529 13.0713386,5.84914825 C12.9591808,6.14402628 12.8539639,6.38608786 12.516702,6.45993154 C12.3003527,6.50728422 12.1012766,6.68320106 12.26904,6.93536234 C12.4288372,7.17568545 12.6402175,7.02940542 12.8088485,6.88420158 C12.8889048,6.81532496 12.9672259,6.73990838 13.0304034,6.65447488 C13.6359132,5.83482655 14.2478907,5.01997971 14.8362851,4.18692031 C15.0669893,3.86041864 15.2652766,3.50270725 15.4361949,3.13746248 C15.5623132,2.86808205 15.4514963,2.64199786 15.1532766,2.61111928 C14.9842513,2.59356898 14.8068654,2.66385294 14.5770287,2.70441729 Z M54.3632935,24.435322 C54.2764541,24.5436039 54.2098062,24.5941852 54.1857499,24.6615717 C53.8387076,25.6345368 53.5013668,26.6113927 53.1532203,27.5839438 C52.9289837,28.210125 52.6396766,28.8161068 52.4717555,29.4576859 C52.2512259,30.3000999 51.5502794,31.0240495 51.8974006,32.0351781 C52.1881273,31.200463 52.4334231,30.3655824 52.7665048,29.571266 C53.2490513,28.420894 53.6330062,27.2262324 54.2915977,26.151277 C54.5697837,25.6972873 54.7250062,25.0849311 54.3632935,24.435322 Z M49.972578,13.5651509 C49.00504,14.7655247 48.1499752,15.9663124 48.0979977,17.6062713 C48.3746062,17.402125 48.6146963,17.1666862 48.7869555,16.8854676 C49.2654794,16.1043968 49.7090625,15.2998152 50.1800935,14.513529 C50.3962851,14.1527546 50.4065386,13.855393 49.972578,13.5651509 Z M52.3537611,17.6933605 C52.1865499,19.3504558 51.5932654,20.7438 50.9429555,22.1148753 C50.78024,22.4579338 50.8541442,22.7084394 51.1731076,23.0113475 C51.4170625,22.4711793 51.6292315,22.0077522 51.8361161,21.5416761 C52.0443414,21.0727852 52.1878907,20.5579491 52.4644992,20.1396395 C53.0883865,19.1960629 53.1010851,18.5720341 52.3537611,17.6933605 Z M20.7651076,49.2020133 L20.7439696,49.3977156 C20.9066851,49.4506148 21.0694006,49.5035141 21.3342569,49.5896099 C21.1918907,49.848725 21.088409,50.0839983 20.9442287,50.2874823 C20.7728372,50.5294611 20.5575132,50.7366705 20.3776034,50.9727716 C20.1748203,51.2387579 20.0357668,51.5280065 20.2364203,51.9107188 C20.4987527,51.9728899 20.7709442,52.037379 21.0406118,52.1012885 C21.4601386,51.3200521 21.8521386,50.5907216 22.2431921,49.8608115 C22.268747,49.8131277 22.3169386,49.7497977 22.3040823,49.7134553 C22.2467414,49.5513635 22.2042287,49.2958908 22.0960935,49.2565682 C21.6618963,49.0985328 21.2059301,49.0338782 20.7651076,49.2020133 Z M1.41702873,24.1310893 C1.76683155,23.5866163 2.00155831,23.1289841 2.31878648,22.7467686 C2.97201465,21.9598201 3.63470761,21.1921603 4.14083718,20.279214 C4.45238648,19.7174391 4.89281465,19.2349716 5.26438648,18.7084628 C5.33584563,18.6071347 5.35635268,18.4661529 5.40036394,18.3435492 C5.35572169,18.3123395 5.31107944,18.2811298 5.26651606,18.24992 C4.75636394,18.7875219 4.20472451,19.2891126 3.74615549,19.8714181 C3.11737803,20.6698736 2.56321465,21.5329009 1.96803718,22.3610761 C1.79869634,22.5966805 1.62414986,22.842964 1.40543437,23.0216956 C1.00901746,23.3455481 1.11983437,23.6487046 1.41702873,24.1310893 Z M12.7359696,48.3803781 C12.9956203,48.4934616 13.2476992,48.6032337 13.5823583,48.7488515 C14.1268992,47.7556043 14.6468315,46.8075573 15.1819076,45.8316949 C14.9276203,45.6501487 14.7417949,45.5174453 14.5060428,45.3491446 C14.2186287,45.6237404 13.868747,45.827804 13.7061893,46.1394873 C13.3417161,46.8383531 13.0703132,47.5906978 12.7359696,48.3803781 Z M5.60598648,25.1169687 C5.5578738,25.0931268 5.50968225,25.0692021 5.46156958,25.045443 C5.38214423,25.1119188 5.28473577,25.1642386 5.2262907,25.2469402 C4.5602062,26.1883644 3.92574986,27.1560312 3.22835268,28.0709644 C2.83043718,28.5930028 2.69887662,29.4258966 1.7598907,29.4236615 C2.03279211,29.8614254 1.6706062,30.4261805 2.26546817,30.7111244 C2.66953577,30.0784861 3.05009915,29.4632324 3.44998648,28.8619693 C3.86951324,28.231235 4.32240338,27.6245909 4.73317521,26.9878133 C5.10727099,26.407743 5.47347944,25.814924 5.60598648,25.1169687 Z M22.1650287,52.0317496 C22.2215808,52.1341539 22.2365668,52.1971528 22.2742682,52.221657 C22.3388654,52.2636287 22.4159245,52.2977359 22.490933,52.3071733 C23.1903808,52.3951731 23.7243527,52.1935931 24.1369386,51.5191486 C24.4597668,50.9913981 24.6032372,50.2326791 25.4070344,50.1049427 C24.8408823,49.9638781 24.2953949,49.8536093 23.7487245,49.8467382 C23.4676992,49.8432612 23.2526907,50.0746436 23.1511808,50.4066091 C23.0357893,50.7839404 22.8841161,51.1579603 22.6900879,51.4967968 C22.5664146,51.7127813 22.3371301,51.8622072 22.1650287,52.0317496 Z M5.92849915,15.6336019 C5.88330479,15.5980874 5.83803155,15.5625729 5.79283718,15.5270584 C5.67089915,15.5963489 5.51441465,15.6356715 5.43238648,15.7396487 C4.72126535,16.6406741 4.01984563,17.5503091 3.32513014,18.4654078 C3.2014569,18.6283275 3.16517521,18.9078077 3.01492169,18.9976287 C2.34126535,19.3999609 2.08334986,20.1663789 1.58968225,20.7234351 C1.38240338,20.9573838 1.27134986,21.3268506 1.55347944,21.6988837 C1.72518648,21.4521861 1.85288225,21.247212 2.0006907,21.0597053 C3.13260056,19.6237271 4.28115268,18.2019051 5.39318648,16.7492872 C5.63611606,16.4318091 5.75340056,16.0082841 5.92849915,15.6336019 Z M50.8561949,37.1766688 C51.0917104,37.0751751 51.2237442,37.0635853 51.2675189,36.9923079 C51.5917668,36.4638951 51.93384,35.9422706 52.2017724,35.3823997 C52.528071,34.700339 52.7732879,33.9761411 53.0812879,33.2837324 C53.2574118,32.8876918 53.4931639,32.5212053 53.6934231,32.1364234 C53.845333,31.8446084 54.0463808,31.8364955 54.2710907,32.0196974 C54.3724428,32.1023163 54.4449273,32.2239265 54.5966006,32.4081218 C54.6707414,31.5956757 54.7333668,30.9103865 54.7959132,30.2250972 C54.7306851,30.2029938 54.6654569,30.1808076 54.6001499,30.1586214 C53.4558569,31.710746 52.68424,33.519254 51.6273386,35.1333842 C51.2728034,35.674877 51.1467639,36.3811935 50.8561949,37.1766688 Z M46.0728485,44.5199761 C46.0171639,44.4804051 45.9614794,44.4408342 45.9057161,44.4012632 C44.6737161,46.3038971 42.9661104,47.8257227 41.88184,49.9916937 C42.4173104,49.7538541 42.865547,49.5959015 43.2733217,49.3607938 C43.6112935,49.1660021 43.8908203,48.9247683 43.8696823,48.3964383 C43.8578513,48.1029676 44.13304,47.7855722 44.3098738,47.5000488 C44.3903245,47.3699946 44.6462682,47.2956542 44.6507639,47.1882 C44.6826287,46.4240172 45.3058851,46.0227612 45.5915639,45.4195941 C45.7371639,45.1119673 45.9114738,44.8194072 46.0728485,44.5199761 Z M4.92254986,38.7888949 C5.34696676,38.1901981 5.73944,37.6828126 6.08174986,37.1405748 C6.41033577,36.6200265 6.6374907,36.0233993 6.99857239,35.5325706 C7.46392451,34.9001806 7.27313014,34.3509889 6.96686535,33.6518746 C6.8346738,33.8538686 6.74294423,33.966207 6.68047662,34.0943572 C6.43746817,34.5930505 6.28319211,35.1145922 5.91256676,35.5749562 C5.57956394,35.9884643 5.09993577,36.4852535 5.36936676,37.1453763 C4.60563718,37.8314106 4.50807099,38.1469847 4.92254986,38.7888949 Z M6.48061183,31.4518792 C6.41562028,31.4543628 6.35070761,31.4568463 6.28571606,31.4593298 C6.06337239,31.8890636 5.9277893,32.425341 5.59699493,32.7217919 C5.17249915,33.1024346 4.98943437,33.5852332 4.72607662,34.0479152 C4.33399775,34.736847 4.31207099,35.6501244 3.51434704,36.0984847 C3.73219493,36.384836 3.90689915,36.6142316 4.14304563,36.9245903 C4.96151324,35.3552464 5.75537239,33.8761376 6.49614986,32.3683025 C6.61359211,32.1292212 6.49181183,31.7605823 6.48061183,31.4518792 Z M52.1302344,27.907548 C52.2570625,27.5788111 52.3509217,27.373423 52.4167808,27.1586803 C52.8552372,25.7285798 53.2219189,24.2713261 54.0384146,22.9985987 C54.1643752,22.8023169 54.143947,22.4890607 54.1545161,22.2282071 C54.1656372,21.9563431 54.1444203,21.6756212 53.7941442,21.5588125 C53.7461104,21.7186691 53.7309668,21.8924336 53.6499639,22.0203355 C52.8048372,23.3542405 52.49384,24.9128224 51.9690963,26.381252 C51.7993611,26.8561861 51.7605555,27.3160535 52.1302344,27.907548 Z M1.48273014,26.0507767 C1.55245408,26.0723834 1.62217803,26.0939074 1.69190197,26.1155141 C2.43370479,25.1711925 3.28892732,24.3244736 3.84372169,23.2190536 C3.98916394,22.9293082 4.1850062,22.6665505 4.36562592,22.3973356 C4.78657239,21.7698299 5.24033014,21.1640137 5.62428507,20.5125832 C5.80861183,20.199741 6.02756394,19.8298603 5.80932169,19.254012 C5.51031324,19.6058457 5.23165408,19.8320127 5.08061183,20.1295398 C4.49584563,21.2814019 3.66396958,22.2368995 2.91877521,23.2630949 C2.43094423,23.9348903 1.99209352,24.6484918 1.56941183,25.3680538 C1.4645893,25.5464542 1.50765408,25.8206361 1.48273014,26.0507767 Z M2.02159211,17.6213381 C2.51951887,17.0745471 3.01255549,16.5227891 3.51647662,15.982207 C4.46902873,14.9605647 5.39563155,13.9087062 6.39590197,12.9409565 C7.01363718,12.343336 7.3725893,11.5704608 7.88203155,10.9042948 C7.91500056,10.8612469 7.87666817,10.7582631 7.86941183,10.6527958 C7.52071324,10.5593322 7.38954704,10.8263119 7.24307944,11.0335212 C7.08848789,11.2521548 6.99123718,11.5236049 6.8125893,11.7137606 C6.1730062,12.3949934 5.50676394,13.0485763 4.85590197,13.718302 C4.15542873,14.4391886 3.45755831,15.162807 2.76505127,15.8922204 C2.32588507,16.3547368 1.92173859,16.8425853 2.02159211,17.6213381 Z M1.81557521,28.5245401 C1.88861183,28.5406003 1.96164845,28.5566605 2.03468507,28.5728034 C2.63009915,27.6833678 3.23016676,26.7973264 3.81950761,25.9034205 C4.26151324,25.2329496 4.60524282,24.4616474 5.1493893,23.9034322 C5.63035831,23.4102027 5.74543437,22.8836112 5.85877521,22.23632 C5.34972732,22.191782 5.11563155,22.5457681 4.94147944,22.8348512 C4.19186817,24.0791835 3.38325972,25.269292 2.45042592,26.3731392 C2.09746817,26.7908692 1.86526535,27.3210205 1.53131606,27.8776628 C1.60537803,28.0461291 1.71043718,28.285376 1.81557521,28.5245401 Z M7.20498366,42.2518491 C7.93385127,41.0945232 8.56767662,39.8866988 9.20292169,38.6593373 C8.92552451,38.2224013 8.66918648,37.8186618 8.35361465,37.3216242 C7.65235268,38.4919473 7.10994141,39.6384284 6.70216676,40.8691841 C6.50324845,41.4695365 6.61800901,41.8679778 7.20498366,42.2518491 Z M20.2631583,47.5923534 C20.3914062,47.6644587 20.4983583,47.7563493 20.6195865,47.787973 C21.7595414,48.0849206 22.8901104,48.4508277 24.0467076,48.6393277 C25.2555189,48.8363546 26.4902794,48.8563056 27.7132879,48.9597034 C29.2147189,49.0866946 30.6561273,48.575501 32.1433611,48.5101841 C33.2611527,48.4610929 34.325547,48.0196865 35.4471245,47.8769662 C37.027271,47.6759657 38.549209,47.2156844 39.9887245,46.4046457 C40.9624935,45.8560335 41.9267189,45.3177693 42.7464485,44.549199 C44.0861893,43.2931113 45.3139301,41.9229467 46.3387301,40.3640337 C46.9634851,39.413586 47.5999132,38.4715823 48.2306625,37.5255222 C49.1199583,36.1915344 49.6800372,34.672689 50.3867414,33.2375387 C50.8420766,32.312837 51.0320823,31.2852342 51.0057386,30.2250972 C50.9940654,29.7579449 51.0033724,29.2843353 51.0642625,28.8223984 C51.160409,28.0944752 50.983102,27.4095998 50.8496485,26.7136314 C50.6848823,25.8542465 50.5795865,24.9777253 50.3521161,24.1373809 C50.0742456,23.1111855 49.8306062,22.0339949 49.3330738,21.1227042 C48.3425048,19.308153 46.9299639,17.809921 45.5483414,16.3199673 C44.30664,14.9808469 42.9403189,13.7691317 41.6307865,12.4991362 C41.3814682,12.257323 41.1610175,11.9772634 40.8916654,11.7645902 C40.1815696,11.2038915 39.4635076,10.6522991 38.7257273,10.132827 C38.2513837,9.79887469 37.7380766,9.52518947 37.2395189,9.22964917 C36.3661555,8.71199832 35.2729724,8.68443112 34.522178,7.88862469 C34.4719358,7.83539433 34.37784,7.83009612 34.3078794,7.79441605 C34.006978,7.64051985 33.7097837,7.47817964 33.4066738,7.32908494 C33.0084428,7.13321706 32.6142344,6.92360696 32.2028315,6.76383307 C31.8668315,6.63344764 31.4377611,6.66523685 31.1726682,6.45479891 C30.3896146,5.83333643 29.4518118,5.59988442 28.561333,5.35947853 C27.6180879,5.10483372 26.4945386,4.45323772 25.7013893,5.78606654 C25.5620992,6.0202636 25.2609611,6.04576119 25.0778175,5.84434675 C24.9619527,5.71702435 24.9363977,5.46585648 24.9337161,5.26924353 C24.9318231,5.12379135 25.0319921,4.97684904 25.1047921,4.78214013 C24.7355865,4.78214013 24.4238006,4.78718998 24.1122513,4.78048444 C23.8866738,4.77560016 23.627102,4.82568473 23.4426963,4.72725408 C23.0075527,4.49496105 22.730471,4.62021385 22.4105611,4.9685706 C21.9625611,5.45625349 21.8569499,5.43241158 21.3464034,5.03165231 C21.2456034,4.95259321 21.1504823,4.86542124 21.0287808,4.76152682 C20.8898851,4.89861778 20.7914513,5.02941713 20.6647808,5.11336051 C20.45064,5.25541854 20.165671,5.52132203 20.0053217,5.46030993 C19.6820992,5.33737509 19.4900428,5.38307208 19.2394625,5.59367559 C19.1303808,5.68531792 18.8993611,5.67207242 18.7401949,5.63274983 C18.1940766,5.49789404 17.6765893,5.61205373 17.2263808,5.90072293 C16.7263245,6.2213469 16.2877104,6.64619644 15.8108428,7.00895767 C15.695609,7.09654357 15.5132541,7.19447751 15.3992034,7.15813516 C14.8445668,6.98155604 14.4316654,7.26145009 14.0339865,7.57950775 C13.3911696,8.09384722 12.7821104,8.65661556 12.1235977,9.14694755 C11.0585724,9.93993931 10.1352034,10.8809496 9.32320338,11.9458881 C9.01938366,12.3443294 8.7554738,12.77605 8.46537803,13.1864123 C8.30920901,13.4073638 8.10658366,13.5971885 7.97644282,13.8324617 C7.69202592,14.3465529 7.40847662,14.8460739 7.44270761,15.5032165 C7.47323155,16.0900751 7.5054907,16.7728808 7.25869634,17.2571695 C6.88184,17.9965998 6.98981746,18.5399138 7.45477521,19.0998675 C7.65385127,19.3395283 7.63744563,19.6277836 7.45666817,19.7618115 C6.88751887,20.1838464 6.84240338,20.7333692 6.96505127,21.3687395 C6.98997521,21.4981315 6.95101183,21.6404379 6.94659493,21.7769493 C6.92490479,22.4473374 6.90171606,23.1175599 6.88751887,23.7881135 C6.88531042,23.8948226 6.89485408,24.0281055 6.95235268,24.1055089 C7.24205408,24.4959201 7.29765972,24.8320248 6.84398085,25.1438736 C6.78048789,25.187501 6.79768225,25.3968627 6.81353577,25.5246819 C6.8794738,26.0578134 7.0477893,26.5951669 7.01497803,27.1197716 C6.95077521,28.1462982 7.09053859,29.1314325 7.28511887,30.1277428 C7.44712451,30.9578219 7.85190197,31.7158787 7.86436394,32.5985259 C7.86846535,32.8860362 8.16968225,33.2181672 8.41032451,33.4396154 C8.67809915,33.685899 8.83213859,33.8685214 8.67234141,34.2672111 C8.57887662,34.5004147 8.55308507,34.8330424 8.63921465,35.0619413 C8.84649352,35.6127059 9.14707944,36.1238996 9.3926907,36.6598458 C9.73894423,37.4155017 10.6240597,37.8363776 10.5939301,38.8399729 C10.58904,39.0033893 10.8400146,39.1783127 10.9786738,39.3423914 C11.1168597,39.5058906 11.3239808,39.6372694 11.3942569,39.8264318 C11.7104597,40.6771243 12.4678006,41.1365777 12.9705386,41.8231915 C13.5518344,42.6170939 14.3053893,43.2702628 14.9657161,44.0029047 C15.3902907,44.4740307 15.8066625,44.9084005 16.5055583,44.6684913 C16.5618738,44.6492025 16.6460315,44.7194037 16.7555076,44.7632794 C16.7903696,44.9914332 16.826809,45.2295211 16.85544,45.416945 C17.1430907,45.6679473 17.3922513,45.9052074 17.6608935,46.1149003 C17.9964992,46.3769129 18.3335245,46.6438926 18.6976034,46.8565657 C18.9913273,47.0281778 19.3169949,47.1767758 19.5861893,46.7483665 C19.7496935,46.4880096 20.0072935,46.4587867 20.3251527,46.6280808 C20.3066963,46.914432 20.2879245,47.2069921 20.2631583,47.5923534 Z M10.4178062,5.37471086 C10.0675301,5.74500547 9.70494986,6.1035447 9.36989634,6.48840937 C8.87575549,7.05622756 8.68756394,7.74251023 8.80989634,8.49344751 C8.83521465,8.64891661 9.06915268,8.88170634 9.2022907,8.87831218 C9.45634141,8.871855 9.62371042,8.64254221 9.54594141,8.34989936 C9.49214986,8.14765708 9.37100056,7.96511748 9.25750197,7.72661563 C9.54396958,7.30052433 9.86585127,6.86896925 10.13544,6.40405207 C10.3150344,6.09427285 10.6281611,5.79359992 10.4066851,5.36179649 C10.974178,5.27934323 11.0644879,5.17420704 11.0242625,4.64471803 C10.571609,4.65829467 10.6042625,5.11650632 10.4178062,5.37471086 Z M39.9826513,49.1456371 C40.2411189,48.8086218 40.4990344,48.4712754 40.758133,48.1348396 C40.8667414,47.993775 40.9758231,47.7378884 41.0882175,47.735736 C41.5120034,47.7276232 41.7476766,47.4983932 41.9673386,47.16055 C42.1610513,46.8625262 42.4114738,46.6051495 42.6368146,46.3297258 C42.602347,46.2872574 42.5679583,46.2447062 42.5334907,46.202155 C41.73064,46.718978 40.9278682,47.235801 40.1250175,47.7525413 C40.1758118,47.7947613 40.2266851,47.8368986 40.2774794,47.8791186 C40.1863808,48.3081074 40.0952823,48.7370961 40.0036315,49.1657537 C39.4653217,49.5881197 39.4653217,49.5881197 39.4974231,50.0481526 C39.7940654,49.8070017 39.98344,49.5353861 39.9826513,49.1456371 Z M24.8046794,0.066492429 C26.0278456,0.10076517 27.2511696,0.133961714 28.4743358,0.170552418 C28.6310569,0.175271129 28.7954287,0.16964179 28.9426851,0.216166622 C29.764702,0.475861281 30.5819076,0.752443957 31.4021104,1.01876137 C32.1517217,1.26223028 32.9243639,1.4446871 33.6488935,1.75247949 C35.0029104,2.32783106 36.3073161,3.03671387 37.6734006,3.57530917 C39.2836766,4.21026551 40.6544146,5.27321719 42.1425949,6.12440637 C42.6428879,6.41050925 43.169209,6.64677593 43.6851977,6.90241415 C45.2348992,7.67007388 46.623147,8.68128531 47.8703696,9.9145245 C48.1931189,10.2337411 48.5515977,10.5181883 48.9159132,10.785168 C50.1859301,11.7158302 50.8949217,13.107022 51.6730062,14.4427483 C51.7823245,14.6305033 51.8396654,14.8658594 51.9817161,15.0161959 C52.7199696,15.7976806 53.1353161,16.7879476 53.5546851,17.7580979 C54.1354287,19.1014404 54.6484203,20.4791383 55.1403527,21.8617206 C55.3209724,22.3692717 55.3832823,22.9290598 55.4564766,23.4714632 C55.5838569,24.4143775 55.6139076,25.3766633 55.8045442,26.3037658 C55.9756203,27.1355007 55.934133,27.9521688 55.8716654,28.7706581 C55.7694456,30.1091991 55.5553048,31.439296 55.4781668,32.778582 C55.3548879,34.9204628 54.8868541,36.9634161 54.0731977,38.9238335 C53.4783358,40.3569142 52.918809,41.8097804 52.2463358,43.2021312 C51.9342344,43.8483462 51.3934006,44.3737788 50.9513949,44.9498754 C50.5464597,45.4777916 50.1604541,46.0255759 49.7178175,46.5165702 C49.3994062,46.8697284 49.0110344,47.1572386 48.6368597,47.4502126 C48.0731527,47.8915363 47.4062006,48.2280548 46.9454231,48.7630076 C46.3986738,49.3977984 45.7388203,49.638701 45.0116879,49.839122 C44.8195527,49.892104 44.64824,50.0359833 44.4731414,50.1479906 C44.0097611,50.4446071 43.571778,50.7244184 42.9993949,50.8473532 C42.1410175,51.0317141 41.3268879,51.4442287 40.4948541,51.7623692 C40.3716541,51.8094735 40.2581555,51.8994601 40.1324315,51.9218119 C38.9744146,52.1276139 37.9033161,52.6411256 36.7766118,52.955044 C36.0735358,53.1509119 35.364071,53.3212822 34.6567358,53.4998481 C34.5052992,53.5380117 34.3402963,53.6145045 34.1990344,53.5840399 C33.038178,53.334031 31.9076879,53.6633473 30.7630006,53.7370254 C29.9095132,53.7919943 29.0475865,53.6828017 28.18984,53.6913285 C27.3826513,53.6992758 26.5760935,53.7684835 25.7689837,53.8043292 C25.5685668,53.8132699 25.3653893,53.8135182 25.1667076,53.7888485 C24.909502,53.7569765 24.6475639,53.6279156 24.4017161,53.6599532 C23.5141555,53.7756858 22.6573555,53.5221999 21.7887245,53.4489357 C20.0561949,53.3030696 18.4162625,52.7658817 16.8711358,51.9104705 C16.2709104,51.5781739 15.629671,51.3287445 15.017378,51.0192136 C14.4289048,50.7216865 13.8349104,50.4275535 13.2783808,50.0715806 C12.8117668,49.7731429 12.4045442,49.4006131 11.7924879,49.46593 C11.6282738,49.4834803 11.3871583,49.3041692 11.2730287,49.1434019 C10.6065499,48.2057858 9.73310761,47.5474015 8.76927662,46.9972992 C8.65869634,46.9341347 8.51514704,46.8425751 8.48359775,46.7332997 C8.1898738,45.7192736 7.32739493,45.1261234 6.84106254,44.256225 C6.61595831,43.8533961 6.3630907,43.4655512 6.09768225,43.0904551 C5.91722028,42.8353963 5.69077521,42.6165144 5.48964845,42.3771019 C5.38947944,42.2579751 5.22084845,42.1303216 5.21887662,42.004241 C5.20775549,41.2752416 4.76212169,40.7737337 4.36988507,40.2827394 C3.66570479,39.4013339 3.24570479,38.3918609 2.88414986,37.3275019 C2.63877521,36.6050425 2.28163718,35.9252998 2.00936676,35.2117811 C1.57406535,34.0711776 1.21093296,32.9020963 1.00736113,31.6907122 C0.86207662,30.8261947 0.834628732,29.9383321 0.666234366,29.0800234 C0.417783662,27.8134221 0.353344225,26.5257936 0.177851268,25.2584472 C-0.0174388732,23.8480494 -0.110982535,22.5068594 0.21247662,21.110121 C0.381265352,20.3811216 0.270606197,19.5857291 0.380713239,18.8356197 C0.514955493,17.9205209 0.645727324,16.9793451 0.963428732,16.125424 C1.42704563,14.8795188 2.03507944,13.6900726 2.61929352,12.496901 C3.40920901,10.8835987 4.34322592,9.37319732 5.59234141,8.09459228 C5.84623437,7.83473205 5.99270197,7.4630301 6.22813859,7.17883126 C6.5302231,6.81400041 6.85210479,6.4606766 7.20332732,6.14932448 C7.47851606,5.90527607 7.89859493,5.80088494 8.10114141,5.51486485 C8.59804282,4.81334985 9.34749634,4.53221403 9.99906817,4.08799295 C10.1072034,4.01423205 10.2259076,3.92912969 10.3480034,3.9109999 C11.2723977,3.77399172 11.9175808,3.10451429 12.6603301,2.61492736 C13.0337949,2.36872656 13.4396766,2.14727829 13.8595977,2.01358149 C14.9081386,1.67971201 15.9654344,1.36695255 17.0338513,1.11371507 C17.8718794,0.915198085 18.7297048,0.802694087 19.5824034,0.680338745 C20.8492654,0.498544206 22.1183358,0.33280984 23.3885104,0.179079211 C23.8566231,0.122371898 24.3305724,0.119060522 24.8019189,0.091410533 C24.8028654,0.0830493088 24.803733,0.0747708689 24.8046794,0.066492429 Z" id="Fill-1"></path>
                    </g>
                    <g id="Group-20" opacity="0.5" transform="translate(1.000000, 1.000000)">
                        <path d="M5.84022223,41.1105073 C5.26500763,40.7252141 5.15254629,40.32538 5.34747927,39.7227207 C5.74708414,38.4874062 6.27862819,37.3367615 6.96584037,36.1620203 C7.27501242,36.6608989 7.52621471,37.0661339 7.79813153,37.5046885 C7.1756136,38.7366793 6.55448695,39.9488945 5.84022223,41.1105073" id="Fill-4"></path>
                        <path d="M0.467252337,27.5480718 C0.361507251,27.3039712 0.255841495,27.0598706 0.181351896,26.8878426 C0.517229384,26.3197109 0.750772918,25.7787015 1.10576861,25.3523492 C2.04398851,24.2256335 2.85726579,23.0109605 3.61120524,21.7409445 C3.78636289,21.4458945 4.02181032,21.0846019 4.5337974,21.1301437 C4.41980213,21.7907109 4.30406164,22.3281716 3.82031555,22.8316661 C3.27302722,23.4013187 2.92731298,24.188541 2.48275525,24.8728508 C1.89001161,25.7852074 1.28647927,26.6895373 0.687627316,27.5973313 C0.61416899,27.5809396 0.540710663,27.5644635 0.467252337,27.5480718" id="Fill-6"></path>
                        <path d="M0.741004751,16.3680724 C0.639448912,15.604558 1.05024108,15.1262047 1.49654172,14.6726093 C2.20029884,13.9574741 2.90950647,13.2478587 3.6213592,12.5410843 C4.28279471,11.8843125 4.95986036,11.2434507 5.60983376,10.5754771 C5.79130371,10.3890224 5.89021445,10.1228558 6.0473174,9.90847754 C6.19616444,9.70530121 6.32946149,9.44351789 6.68382484,9.53516234 C6.69119906,9.6385769 6.73007403,9.73955627 6.69664957,9.78176629 C6.17885105,10.4350476 5.81414776,11.1927987 5.18637717,11.7787875 C4.16985692,12.7277013 3.22812089,13.759087 2.26017431,14.7608445 C1.74798661,15.290905 1.24702055,15.832005 0.741004751,16.3680724" id="Fill-8"></path>
                        <path d="M0.181351896,24.868116 C0.205907625,24.6383024 0.163479055,24.3645101 0.266752991,24.1863633 C0.683190176,23.4678238 1.1155575,22.7552364 1.5961815,22.0843957 C2.330289,21.0596586 3.14995301,20.105519 3.72608014,18.9552937 C3.87489096,18.6581894 4.14935563,18.4323439 4.44402437,18.0810102 C4.65904241,18.6560401 4.443325,19.0253951 4.26164369,19.3378755 C3.88343884,19.9882975 3.4363847,20.5932528 3.02157939,21.2198668 C2.84362806,21.4886991 2.6507568,21.7510834 2.50746324,22.040417 C1.96078744,23.1442662 1.11827728,23.9897817 0.387433518,24.9327614 C0.318739644,24.9111853 0.25004577,24.889692 0.181351896,24.868116" id="Fill-10"></path>
                        <path d="M50.8883119,27.026352 C50.5113253,26.4234494 50.550898,25.9547971 50.724069,25.4706186 C51.2591051,23.9739519 51.57625,22.3853099 52.438083,21.0255936 C52.520687,20.8953093 52.53613,20.7181091 52.5851133,20.5552536 C52.9423135,20.6742309 52.9639499,20.9603671 52.9526089,21.2374744 C52.9418309,21.5033591 52.9627434,21.822657 52.8342124,22.0228089 C52.0015764,23.3199988 51.6276463,24.8054428 51.1805227,26.263041 C51.1133617,26.4820099 51.0176471,26.6912749 50.8883119,27.026352" id="Fill-12"></path>
                        <path d="M5.37319845,30.4522276 C5.38458482,30.763568 5.50839154,31.1353563 5.38899504,31.3764802 C4.63589094,32.8971972 3.82882187,34.3889426 2.99673486,35.9716939 C2.75665888,35.6586837 2.57904755,35.4272448 2.35757465,35.1384472 C3.16857282,34.6862564 3.19086444,33.7652599 3.58946756,33.0704424 C3.85720761,32.6038075 4.04331862,32.1168842 4.47487806,31.7329896 C4.81117688,31.434006 4.9490161,30.8931471 5.17505959,30.4597419 C5.24113261,30.4572371 5.30712544,30.4547324 5.37319845,30.4522276" id="Fill-14"></path>
                        <path d="M3.68242359,37.6846317 C3.27738492,37.0424974 3.37267,36.7268131 4.11914686,36.0404565 C3.85587943,35.3801861 4.32459567,34.8832235 4.65007592,34.4695711 C5.01232882,34.0090464 5.16311977,33.4873226 5.40063863,32.9884553 C5.46169509,32.8602604 5.55142958,32.7478827 5.68063491,32.5458183 C5.97998115,33.2451766 6.16638837,33.79456 5.71162569,34.4271707 C5.35870087,34.9181707 5.13660029,35.5150062 4.81551425,36.0357362 C4.4809372,36.5781633 4.09732997,37.0857259 3.68242359,37.6846317" id="Fill-16"></path>
                        <path d="M44.7939183,43.5156719 C44.6333105,43.8214962 44.4598289,44.1203028 44.3149208,44.4344978 C44.0306779,45.0505433 43.4103831,45.4603665 43.3786698,46.240781 C43.3741953,46.3506139 43.1193894,46.4265416 43.039321,46.5593727 C42.8634059,46.8509923 42.5894463,47.1751645 42.6012211,47.4749011 C42.6222587,48.0145116 42.3441387,48.260896 42.0077728,48.4598467 C41.6018574,48.6999742 41.1558292,48.8612993 40.6228247,49.1042171 C41.7019429,46.892 43.4015128,45.3376817 44.6276586,43.3944244 C44.6830785,43.4348402 44.7384984,43.475256 44.7939183,43.5156719" id="Fill-18"></path>
                        <path d="M49.6904195,35.9716939 C49.9712969,35.1734948 50.0931324,34.4647599 50.4358425,33.921413 C51.4574922,32.3017559 52.2033728,30.4870555 53.3094991,28.9296162 C53.3726279,28.9518784 53.4356805,28.9741406 53.4988093,28.9963197 C53.4382727,29.6839555 53.3778124,30.3715912 53.3060682,31.1868191 C53.1594539,31.0019932 53.089387,30.8799665 52.9914154,30.7970648 C52.7742767,30.6132356 52.5798583,30.6213762 52.4330152,30.9141904 C52.2394355,31.3002898 52.0115466,31.6680312 51.8412971,32.0654279 C51.5436463,32.7602074 51.3066083,33.4868851 50.9911168,34.1712811 C50.732121,34.7330691 50.4015334,35.2564796 50.0880242,35.7867018 C50.0457096,35.8582232 49.9180796,35.8698527 49.6904195,35.9716939" id="Fill-20"></path>
                        <path d="M4.5337974,14.5732324 C4.35911048,14.9545286 4.24210172,15.3855297 3.99974329,15.7086121 C2.89032397,17.1868719 1.74447219,18.6337923 0.615223546,20.0951188 C0.467762605,20.2859354 0.340367053,20.4945278 0.169063708,20.7455801 C-0.112402559,20.3669798 -0.00161013413,19.9909911 0.20518141,19.7529126 C0.697688362,19.1860231 0.954997475,18.4060761 1.62706999,17.9966419 C1.77697025,17.9052353 1.81316664,17.6208217 1.93654912,17.4550261 C2.62963128,16.5237738 3.3294019,15.5980817 4.03885112,14.6811512 C4.12068644,14.5753385 4.27680304,14.5353218 4.39845438,14.4648081 C4.44362118,14.5009495 4.48870929,14.537091 4.5337974,14.5732324" id="Fill-22"></path>
                        <path d="M20.855468,50.9036044 C21.0287547,50.7344508 21.2596184,50.5853677 21.3841434,50.3698786 C21.5795079,50.0318192 21.7323052,49.6586572 21.848412,49.2821914 C21.950621,48.9509873 22.1671103,48.720053 22.4500711,48.7236046 C23.0005066,48.73046 23.5497508,48.8404759 24.1198022,48.9812169 C23.310469,49.1086603 23.1660105,49.865639 22.8409589,50.3921791 C22.4255314,51.0650767 21.887882,51.2661943 21.1836168,51.1783964 C21.1080918,51.1689806 21.0305813,51.1349516 20.9654598,51.0929936 C20.9274988,51.0686282 20.9124096,51.0057738 20.855468,50.9036044" id="Fill-24"></path>
                        <path d="M4.17109361,23.8628854 C4.03988562,24.5663582 3.67726737,25.1637093 3.30683912,25.7482959 C2.90009437,26.3900312 2.45164423,27.0013984 2.03623038,27.6371269 C1.64026343,28.2429878 1.26343098,28.863115 0.863324728,29.5005955 C0.274294603,29.2135166 0.632929757,28.6443644 0.362703792,28.2031088 C1.29248417,28.2053613 1.42275496,27.3659829 1.81676941,26.83988 C2.50732952,25.9178235 3.13556584,24.9426227 3.79512025,23.9938689 C3.85299235,23.9105234 3.94944584,23.8577963 4.02801443,23.7908028 C4.07573352,23.8148304 4.12345261,23.8388579 4.17109361,23.8628854" id="Fill-26"></path>
                        <path d="M11.6065213,47.2103704 C11.9535647,46.4145088 12.2352765,45.6564381 12.6136758,44.9521756 C12.7824082,44.6380856 13.1454979,44.4323629 13.443911,44.1557301 C13.6885361,44.3253303 13.8815017,44.4590585 14.1454479,44.6419231 C13.5899656,45.6254045 13.0503659,46.5807721 12.4850593,47.5816057 C12.1377704,47.4348635 11.8760346,47.3242437 11.6065213,47.2103704" id="Fill-28"></path>
                        <path d="M0.262838095,23.0294971 C-0.0287546177,22.5455581 -0.137482792,22.2414249 0.251539651,21.9165288 C0.466055309,21.7372214 0.637311857,21.4901443 0.80346089,21.2537807 C1.38749757,20.4229371 1.93113844,19.557129 2.54806442,18.7561007 C2.99799012,18.171919 3.53923201,17.6687121 4.03976854,17.129378 C4.08356936,17.1606883 4.12729279,17.1919986 4.17109361,17.2233089 C4.12791188,17.3463076 4.10779137,17.4877437 4.03767911,17.5893983 C3.67311083,18.1176036 3.24098405,18.6016256 2.93538436,19.1652106 C2.43871716,20.0810986 1.78851493,20.8512318 1.14767649,21.640716 C0.836427582,22.0241631 0.606047671,22.4832698 0.262838095,23.0294971" id="Fill-30"></path>
                        <path d="M19.4895912,48.0628316 C19.9321059,47.8920603 20.3899042,47.9577286 20.8259252,48.1182419 C20.9344949,48.158181 20.9770992,48.4176593 21.0346705,48.5822927 C21.0475785,48.6192048 20.9991933,48.6835279 20.9736149,48.7319593 C20.5809109,49.4732298 20.1874149,50.2139957 19.7661233,51.0074813 C19.4953721,50.9426537 19.2221661,50.8771536 18.9587004,50.8140077 C18.7572406,50.4252948 18.8968529,50.1315109 19.1004508,49.8613541 C19.2811627,49.6215511 19.4972727,49.4110929 19.6694321,49.16532 C19.8141917,48.9586455 19.9180892,48.7196833 20.0610274,48.4565054 C19.7951069,48.3690597 19.6317376,48.315331 19.4683683,48.2616024 L19.4895912,48.0628316 Z" id="Fill-32"></path>
                        <path d="M51.1343776,16.5583988 C51.8563959,17.4388459 51.844126,18.0642761 51.2413009,19.0097633 C50.9740306,19.4290396 50.8354037,19.9448806 50.634208,20.414845 C50.4343078,20.881823 50.2293015,21.3462291 49.9935824,21.8875386 C49.6853871,21.5840735 49.6139779,21.3329557 49.771124,20.9892553 C50.3994796,19.6152832 50.9727351,18.2189952 51.1343776,16.5583988" id="Fill-34"></path>
                        <path d="M48.6199688,12.5615439 C49.0438644,12.8486126 49.0337716,13.142723 48.8225943,13.4995529 C48.3624881,14.2772422 47.9291931,15.072945 47.4618447,15.8455578 C47.2935809,16.1237017 47.0589821,16.3565664 46.7887892,16.5583988 C46.8396381,14.9363704 47.6747941,13.7487934 48.6199688,12.5615439" id="Fill-36"></path>
                        <path d="M53.1100363,23.2198236 C53.4649747,23.8705682 53.3125818,24.4839947 53.0396833,24.9387779 C52.3933487,26.0156122 52.0165847,27.212362 51.543153,28.3647447 C51.216232,29.1604494 50.9756076,29.9967893 50.6902483,30.8328805 C50.3496283,29.8199845 51.0375245,29.0948525 51.2539239,28.250966 C51.4187001,27.6081826 51.7025889,27.0012245 51.9225485,26.3739488 C52.2641747,25.3996978 52.5951977,24.4211345 52.9358178,23.4463859 C52.9593462,23.3788816 53.0248232,23.3282948 53.1100363,23.2198236" id="Fill-38"></path>
                        <path d="M13.2395832,1.61700648 C13.4683227,1.57706445 13.6447229,1.50808108 13.8129622,1.52532692 C14.1095782,1.55566985 14.2198283,1.77783211 14.0944335,2.04253954 C13.9243894,2.40144833 13.7270377,2.75287307 13.4975135,3.0737922 C12.9121286,3.89240034 12.3032812,4.69303051 11.7008683,5.49846023 C11.638014,5.58249304 11.5600934,5.65652001 11.4804465,5.72420182 C11.312678,5.86696812 11.1023789,6.0107106 10.943399,5.77455643 C10.7764937,5.52676944 10.9745516,5.35390426 11.1897943,5.30737302 C11.5253313,5.23481032 11.63001,4.99694783 11.7415941,4.70710377 C11.9790438,4.0906462 12.1750615,3.47361919 12.7807701,3.05752253 C13.1961894,2.77215263 13.4054684,2.23387079 13.2395832,1.61700648" id="Fill-40"></path>
                        <path d="M38.3223841,4.56783414 C38.7901079,4.75021864 38.8831684,5.03945639 38.7596796,5.30889386 C38.3572515,6.18753139 37.9088178,7.04269877 37.4347985,7.99370975 C37.0855594,7.78538006 36.7791781,7.60273952 36.4517311,7.40738242 C37.1059794,6.41429584 37.7113165,5.49537497 38.3223841,4.56783414" id="Fill-42"></path>
                        <path d="M35.9076754,3.14741212 C35.2802872,4.01637697 34.7174246,4.81809083 34.124679,5.59245994 C34.0387749,5.70474432 33.8076689,5.71884395 33.6487347,5.70576974 C33.6064459,5.7022662 33.5192154,5.40181577 33.5612702,5.28448971 C33.7628053,4.72255511 33.9817396,4.16557676 34.2317274,3.62765427 C34.6401812,2.74852059 34.9127178,2.66520456 35.9076754,3.14741212" id="Fill-44"></path>
                        <path d="M42.5201245,12.1808911 C42.2550244,11.9403256 41.9829803,11.6934516 41.7109361,11.4465776 C42.2994665,11.4186519 42.4843422,11.0684861 42.6675839,10.6151128 C42.8517243,10.1598889 43.1263828,9.76413355 43.2033394,9.24086164 C43.2889557,8.6582054 43.7358271,8.60226972 44.4312145,9.05875528 C43.8221787,10.0537373 43.2122442,11.0501493 42.5201245,12.1808911" id="Fill-46"></path>
                        <path d="M48.2785681,18.0810102 C47.9746636,17.877192 48.0508665,17.6868335 48.1236676,17.4750036 C48.2624657,17.0708925 48.6105952,16.7142908 48.3922677,16.2177244 C48.3731414,16.1743009 48.4350563,16.0555672 48.488353,16.0171911 C49.0901142,15.5839974 49.3439727,14.8663876 49.7559826,14.2744817 C50.0125627,14.3205491 50.1086479,14.4628372 50.0220124,14.7205743 C49.9464899,14.9449826 49.8900181,15.1826903 49.7793424,15.3865085 C49.2952119,16.2776521 48.7943742,17.1586208 48.2785681,18.0810102" id="Fill-48"></path>
                        <path d="M40.7260682,10.2776268 C40.1726092,9.86210281 40.1642766,9.85726923 40.4305319,9.3505626 C40.8250476,8.5996373 41.2328799,7.85641295 41.6716287,7.04207764 C41.904164,7.24910232 42.083277,7.40852853 42.2549918,7.56140073 C41.4531888,8.29315557 41.6121321,9.61305056 40.7260682,10.2776268" id="Fill-50"></path>
                        <path d="M7.78206009,43.9654036 C7.4636565,43.6087874 7.68743901,43.3522656 7.77670877,43.1001199 C7.91568095,42.7075397 8.07370708,42.3207678 8.23992235,41.9383721 C8.34232717,41.7027762 8.47205617,41.4782401 8.5948933,41.2515556 C8.69121708,41.0736454 8.79816242,40.9013047 8.89602673,40.7241901 C9.03037731,40.4809559 9.16067387,40.2354938 9.30483521,39.9685488 C9.78312979,40.1588714 9.92193981,40.3639934 9.66799531,40.7762265 C9.21110602,41.5178641 8.79208137,42.2817803 8.35278657,43.0338412 C8.18203079,43.3261678 7.99927507,43.6118109 7.78206009,43.9654036" id="Fill-52"></path>
                        <path d="M6.92552112,42.6331187 C6.50020118,42.3390619 6.43662994,42.0688809 6.64038184,41.7248575 C6.99791945,41.121073 7.34055629,40.5083454 7.69874176,39.9049712 C7.93245717,39.5113914 8.17127448,39.1196166 8.4340626,38.7460562 C8.49050738,38.6658142 8.68567514,38.6102683 8.77005888,38.6487484 C8.843429,38.6823056 8.91355982,38.8952998 8.87557904,38.975706 C8.75070407,39.2394053 8.56735975,39.4738138 8.42248211,39.7287341 C8.22520881,40.0758753 8.03700554,40.4285136 7.85503793,40.7841877 C7.55086776,41.3784547 7.25471487,41.9769882 6.92552112,42.6331187" id="Fill-54"></path>
                        <path d="M31.0111742,51.1978077 C31.4766142,50.6308525 31.9262498,50.1926217 32.2397304,49.6643756 C32.4607551,49.2917168 32.4971053,48.7970075 32.6449556,48.2490731 C33.2574557,48.1683179 33.9465282,48.0773848 34.819564,47.9622585 C34.5882664,48.4294376 34.4389937,48.730935 34.289721,49.0324324 C34.2261082,49.0783995 34.1624165,49.1243666 34.0987247,49.1704171 C34.0511534,49.0401909 34.0373245,48.871339 33.9501632,48.7862457 C33.562955,48.4081643 33.3941639,48.417341 33.0836071,48.8981184 C32.7311687,49.4436335 32.4185573,50.0187644 32.1046817,50.590892 C31.8108776,51.126396 31.7363598,51.1839592 31.0111742,51.1978077" id="Fill-56"></path>
                        <path d="M17.409782,46.9554155 C16.8841333,47.7376983 16.3555699,48.5243449 15.8380348,49.2945435 C15.1356206,49.044552 15.1185269,49.0252509 15.4164445,48.5419676 C15.7667457,47.9738433 16.1266571,47.4113416 16.5073645,46.8661269 C16.7476993,46.5218956 17.0116659,46.5559663 17.409782,46.9554155" id="Fill-58"></path>
                        <path d="M48.0582524,42.0621394 C47.3722263,43.4934092 46.4935602,44.812123 45.6249731,46.135709 C45.5569395,46.2393464 45.3573904,46.253963 45.1566221,46.248265 C46.0240712,44.7767789 46.6957103,43.1890208 48.0582524,42.0621394" id="Fill-60"></path>
                        <path d="M8.99283976,4.1871813 C9.20766341,4.63426916 8.90834246,4.94315695 8.73678506,5.26139983 C8.47914744,5.73901927 8.17153505,6.18236511 7.89776682,6.62009789 C8.00623391,6.86511598 8.12201255,7.05264285 8.1733441,7.26041071 C8.24774092,7.56104902 8.08779152,7.79662699 7.84492774,7.80334564 C7.71769184,7.80683253 7.49419988,7.56759758 7.47000395,7.40796587 C7.35309466,6.63642676 7.53294351,5.93139377 8.00517864,5.3480619 C8.32537893,4.95268213 8.6718857,4.58434704 9.0066337,4.2039354 L8.99283976,4.1871813 Z" id="Fill-62"></path>
                        <path d="M1.36764624,32.3554919 C1.25264898,31.9619557 1.1544321,31.7019347 1.10623823,31.4318642 C1.07864207,31.2773211 1.07307512,31.0294609 1.15880613,30.9550606 C1.82151163,30.3802107 2.04307619,29.3592969 3.08298223,28.9296162 C2.49336282,30.1071845 1.96871766,31.1551222 1.36764624,32.3554919" id="Fill-64"></path>
                        <path d="M34.0941564,50.7502964 C34.4004741,50.3204248 34.6964815,49.951843 34.9425116,49.5481903 C35.2644915,49.019766 35.5540451,48.467905 35.8437561,47.9178143 C36.0144661,47.5938299 36.002503,47.5865797 36.633083,47.5816057 C36.1542452,48.4465758 35.7001205,49.313232 35.2003473,50.1484424 C34.9784008,50.5193848 34.7483477,50.9942753 34.0941564,50.7502964" id="Fill-66"></path>
                        <path d="M10.1557062,46.3702135 C10.5610214,45.5021019 10.9358777,44.6524166 11.3522548,43.8265527 C11.5651563,43.4044906 11.9051911,43.13457 12.5132808,43.2198124 C11.7774346,44.0747268 11.2970235,44.9909793 10.8963043,45.9665777 C10.8041483,46.1910135 10.636351,46.6039455 10.1557062,46.3702135" id="Fill-68"></path>
                        <path d="M18.6792453,47.7773226 C18.2129158,48.500373 17.8005099,49.193253 17.3300964,49.8388366 C17.1745271,50.0522705 16.8674727,50.1756733 16.6843744,49.8835721 C17.0824864,49.2009356 17.4459603,48.5573527 17.8294002,47.9273745 C18.0942536,47.4921038 18.1166398,47.4979458 18.6792453,47.7773226" id="Fill-70"></path>
                        <path d="M38.8312943,48.1525849 C38.9246649,47.7117574 39.0180356,47.2710149 39.1114062,46.8302724 C39.059345,46.7869806 39.0072838,46.7436889 38.9551418,46.700312 C39.7780159,46.1693288 40.6008092,45.6383455 41.4236833,45.1073622 C41.4590105,45.1510792 41.4942569,45.1947962 41.5295842,45.2385133 C41.2986232,45.5213982 41.0419551,45.7858266 40.8434111,46.092016 C40.6182707,46.4391156 40.3768005,46.6747112 39.9423644,46.6829613 C39.8271668,46.6852577 39.7154454,46.9480702 39.6040474,47.0929998 C39.3384868,47.4386535 39.0741388,47.7852428 38.8093057,48.1314919 L38.8312943,48.1525849 Z" id="Fill-72"></path>
                        <path d="M27.3841363,49.0083315 C27.1740547,49.6673502 26.9638954,50.3266846 26.7468991,51.0074813 L25.9736216,51.0074813 C25.950236,50.9419108 25.9277828,50.9121634 25.9345421,50.8932261 C26.1635807,50.2549595 26.6406929,49.7367082 26.7761116,49.045496 C26.8103742,48.8704836 26.9659931,48.8824772 27.3841363,49.0083315" id="Fill-74"></path>
                        <path d="M40.3149673,5.70979268 C40.3727275,5.72612672 40.5297774,5.77056857 40.8041766,5.8482589 C40.2226119,6.87390386 39.9727493,8.00120127 39.1750029,8.94534187 C39.1433795,8.16097636 39.3661907,7.59691308 39.6602497,7.0482718 C39.8822228,6.63395103 40.0758491,6.20172086 40.3149673,5.70979268" id="Fill-76"></path>
                        <path d="M29.5329719,3.99685488 C29.2078305,3.89117132 28.8826891,3.78540564 28.4722477,3.6519668 C28.5778366,3.24171422 28.5510724,2.76568655 28.7715746,2.61327887 C29.1929807,2.32209479 28.9334546,1.56761106 29.6754263,1.52261138 C29.8283274,1.84368576 29.6857866,2.13478772 29.5587,2.37489552 C29.2902814,2.88171676 29.2099025,3.35027185 29.6697281,3.821701 C29.6242291,3.88008563 29.5785573,3.93847025 29.5329719,3.99685488" id="Fill-78"></path>
                        <path d="M19.5860048,2.56479231 C20.2760438,1.77901737 20.9721256,0.983472735 21.6770751,0.196405938 C21.6999116,0.170891668 21.8137017,0.231609172 21.9435794,0.26883094 C21.3111417,1.10999445 20.7108006,1.9278237 20.0868383,2.72611355 C19.9129356,2.948556 19.7256135,2.87524285 19.5860048,2.56479231" id="Fill-80"></path>
                        <path d="M4.5337974,26.0747199 C4.33841498,27.051517 3.94924603,27.7093762 3.34843178,28.358637 C3.25549024,28.0127096 3.1912747,27.7737848 3.08298223,27.3704549 C3.4776228,27.0179991 3.93153926,26.6125992 4.5337974,26.0747199" id="Fill-82"></path>
                        <path d="M18.8605972,0.190326423 C18.446814,0.687751426 18.1100119,1.09264288 17.7524563,1.52261138 C17.5355901,1.45584088 17.3137367,1.38746971 17.0470782,1.30530236 C17.2901678,0.408397666 18.084432,0.402681014 18.8605972,0.190326423" id="Fill-84"></path>
                        <path d="M1.81692746,33.4974504 C1.72850436,33.171418 1.6761268,32.9785027 1.63216706,32.816412 C1.69217102,32.7302159 1.71857564,32.6565749 1.74843373,32.6548847 C2.19443438,32.6284062 2.34732217,32.2465998 2.46466805,31.87091 C2.56690501,31.5436703 2.72166342,31.3270129 3.08298223,31.2135333 C2.90800666,32.1279694 2.43351491,32.763133 1.81692746,33.4974504" id="Fill-86"></path>
                        <path d="M25.7519692,48.9138906 C25.4833677,49.854339 25.0069575,50.4192996 24.4851816,51.0074813 C24.4501007,50.5020551 24.7659699,49.4951554 25.0812755,49.2022586 C25.2354062,49.0591451 25.4672361,49.0304071 25.7519692,48.9138906" id="Fill-88"></path>
                        <path d="M48.22492,39.7782223 C48.22492,39.9188333 48.2613914,40.0423064 48.2193782,40.0957131 C47.6729064,40.7903187 47.3370999,41.66842 46.6077469,42.2524658 C46.5929187,41.6042523 47.1103332,40.8193336 48.22492,39.7782223" id="Fill-90"></path>
                        <path d="M4.5337974,28.5489634 C4.32516738,29.3370726 4.0296821,29.8979112 3.52072807,30.4522276 C3.40572752,30.278766 3.23709769,30.1271229 3.26806558,30.0548343 C3.50863124,29.4937626 3.7989552,28.9569167 4.5337974,28.5489634" id="Fill-92"></path>
                        <path d="M13.8314964,48.3429114 C13.5755676,48.2294963 13.4046448,48.1537216 13.2386884,48.0801706 C13.4973487,47.0105935 13.4973487,47.0105935 14.1454479,46.4396471 C14.0314718,47.1305976 13.939844,47.6859772 13.8314964,48.3429114" id="Fill-94"></path>
                        <path d="M53.6801612,26.0747199 C53.5615408,27.174536 52.9044192,27.8302709 52.4589305,28.7392898 C52.2951284,28.26359 52.5930039,28.0657849 52.6922712,27.8027401 C52.8161898,27.4742886 52.9840391,27.1640242 53.0820554,26.8268963 C53.1766868,26.5015316 53.2521123,26.192602 53.6801612,26.0747199" id="Fill-96"></path>
                        <path d="M50.2344752,32.5458183 C50.0263989,33.0755158 49.8450372,33.6204559 49.6027254,34.1305191 C49.3655843,34.6296456 49.0663179,35.0932063 48.78366,35.591041 C48.7922776,34.5379324 49.2031813,34.0761801 50.2344752,32.5458183" id="Fill-98"></path>
                        <path d="M24.2836812,2.66456992 L23.6379449,2.66456992 C23.3991379,2.3129602 23.8706835,1.69599979 24.6638578,1.33228496 C24.534967,1.78402247 24.4213756,2.18196835 24.2836812,2.66456992" id="Fill-100"></path>
                        <path d="M10.51841,43.1070352 C10.6431727,42.5870676 10.7678485,42.0670197 10.9046009,41.4966757 C11.2431804,41.4438929 11.3277167,41.7814467 11.6065213,42.0180071 C11.2821036,42.4240663 10.9704575,42.8141623 10.6588114,43.2040979 C10.6120689,43.1717704 10.5652394,43.1393627 10.51841,43.1070352" id="Fill-102"></path>
                        <path d="M4.3524455,38.7198742 C4.39532167,37.8639009 5.06107594,37.371131 5.47755378,36.7329996 C5.52567211,36.7546475 5.57379044,36.7762953 5.62190877,36.7979432 C5.59241185,36.9122761 5.58630903,37.0410409 5.52942769,37.1386167 C5.1994846,37.7053903 4.85764885,38.2647074 4.5198034,38.8265902 C4.46401744,38.7909915 4.40823147,38.7553927 4.3524455,38.7198742" id="Fill-104"></path>
                        <path d="M51.3706234,37.8749581 C51.2365013,37.1989337 51.365035,36.882152 51.9885193,36.3523467 C52.1802772,36.9448858 51.8909304,37.6579439 51.3706234,37.8749581" id="Fill-106"></path>
                        <path d="M36.0890273,5.70979268 C36.265723,5.06832792 36.3707661,4.61654359 36.5166397,4.17633717 C36.6672075,3.72208946 36.8253036,3.7068986 37.3584906,4.01843436 C36.9710886,4.53459507 36.5870523,5.04623959 36.0890273,5.70979268" id="Fill-108"></path>
                        <path d="M45.5834788,13.8938289 C45.3645506,13.2756376 45.7522176,12.85757 46.0514136,12.3712175 C46.3858039,13.1289749 46.3207959,13.3408473 45.5834788,13.8938289" id="Fill-110"></path>
                        <path d="M24.482506,0.145141279 C24.0865297,0.571692977 23.733557,0.951988968 23.3804983,1.33228496 C23.3246798,1.30429035 23.2688612,1.2762096 23.2130427,1.24812886 C23.2839985,1.07034156 23.3737898,0.897291809 23.4212656,0.713388765 C23.4764821,0.498906994 23.4948016,0.274863988 23.5377191,0 C23.8446781,0.047203217 24.1350377,0.0918223163 24.482506,0.145141279" id="Fill-112"></path>
                        <path d="M33.0060451,1.8942459 C32.5403437,2.11340835 32.2674577,2.23944901 32.0310247,1.79509392 C31.9717393,1.68378272 31.7651459,1.69930302 31.6279943,1.64938104 C31.4741514,1.59352773 31.3222769,1.52966713 31.1925261,1.36359003 C31.7959302,1.26285636 32.3522523,1.39631117 33.0060451,1.8942459" id="Fill-114"></path>
                        <path d="M48.0582524,38.5677492 C48.3810279,38.0942627 48.7038831,37.6207763 49.0496229,37.1136524 C49.2295096,37.2837406 49.3608365,37.4080421 49.5090676,37.5482946 C49.0358284,37.9254143 48.5898592,38.2807977 48.1438103,38.6362638 C48.1152644,38.6133705 48.0867185,38.5905598 48.0582524,38.5677492" id="Fill-116"></path>
                        <path d="M27.5654882,0.190326423 C28.8334619,0.197669901 28.9232461,0.280450927 28.7886892,1.33228496 C28.3954549,0.965206421 28.0508171,0.643333191 27.5654882,0.190326423" id="Fill-118"></path>
                        <path d="M49.6904195,18.0810102 C49.5202309,18.5665001 49.3500422,19.0520698 49.1566749,19.6036215 C48.7834347,18.9921515 48.9521945,18.4822475 49.6904195,18.0810102" id="Fill-120"></path>
                        <path d="M46.9701411,38.1272245 C47.3328183,37.5990673 47.6954955,37.0709101 48.0582524,36.5426732 C48.0155001,37.2967842 47.3959897,37.6631807 47.1153874,38.255611 L46.9701411,38.1272245 Z" id="Fill-122"></path>
                        <path d="M25.9333211,0.123266106 C25.2974369,0.744900917 25.2974369,0.744900917 24.8452097,0.207426172 C25.1900089,-0.0984062984 25.5290988,-0.011821129 25.9333211,0.123266106" id="Fill-124"></path>
                        <path d="M32.1505215,5.32913983 C31.9860365,4.53219188 32.219385,4.09339726 32.8246932,3.99685488 C32.7035994,4.25430125 32.6142455,4.45448473 32.5165348,4.64889459 C32.4239668,4.83289303 32.3224795,5.0108339 32.1505215,5.32913983" id="Fill-126"></path>
                        <path d="M46.4260854,40.7298545 C46.432058,40.0770647 46.9727654,39.8020439 47.3328448,39.3975695 C47.2318525,39.9725061 46.8201004,40.3490981 46.4260854,40.7298545" id="Fill-128"></path>
                        <path d="M47.8769005,11.2550154 C47.381881,11.2701949 47.381881,11.2701949 46.9701411,10.6582797 C47.6194609,10.7484592 47.6194609,10.7484592 47.8769005,11.2550154" id="Fill-130"></path>
                        <path d="M3.44568602,10.4679532 C3.49094496,9.80831559 3.70268025,9.33148768 4.3524455,9.32599471 C4.05019234,9.70674392 3.74793918,10.0873004 3.44568602,10.4679532" id="Fill-132"></path>
                        <path d="M15.5962631,3.85047174 C15.7754285,3.60231028 15.9545939,3.35414882 16.1776766,3.04522276 C16.4153415,3.73517967 16.4153415,3.73517967 15.7391861,3.99685488 C15.6916019,3.948092 15.6439325,3.89932912 15.5962631,3.85047174" id="Fill-134"></path>
                        <path d="M14.5081517,3.9494208 L13.7579437,4.94848699 C13.7057599,4.91240562 13.653576,4.87640855 13.6013922,4.84041148 C13.8041063,4.47167336 13.8219954,3.98221438 14.3202724,3.80652845 C14.3828407,3.85415924 14.4454962,3.90179002 14.5081517,3.9494208" id="Fill-136"></path>
                        <path d="M9.89162518,44.5363829 C9.44347356,43.9029326 9.49276147,43.831014 10.3370581,43.7750772 C10.2748781,43.9139202 10.2333079,44.0312875 10.1715665,44.1380001 C10.1064047,44.2505395 10.0219487,44.3530902 9.89162518,44.5363829" id="Fill-138"></path>
                        <path d="M12.5132808,2.29853625 C12.301994,2.57208018 12.0907071,2.84562411 11.789515,3.23554919 C11.7807555,2.25319408 11.7807555,2.25319408 12.5132808,2.29853625" id="Fill-140"></path>
                        <path d="M9.26386676,4.1871813 C9.47935665,3.91798747 9.44161858,3.44003462 9.96475584,3.42587561 C10.0112448,3.97816326 9.90687256,4.08780924 9.24909969,4.17198627 C9.24718544,4.17017322 9.26386676,4.1871813 9.26386676,4.1871813" id="Fill-142"></path>
                        <path d="M35.0009159,6.37510514 C35.0668331,6.31730981 35.0915196,6.27800899 35.111442,6.28092389 C35.3432349,6.3157016 35.6505598,6.17196714 35.7242727,6.59543097 C35.7374389,6.67151977 35.6847744,6.82621021 35.6359212,6.84349855 C35.3077211,6.96009434 35.098016,6.80831879 35.0009159,6.37510514" id="Fill-144"></path>
                        <path d="M45.7945708,43.5847508 C45.489306,42.9281907 46.0056231,42.9778828 46.2447335,42.8234451 C46.1175261,43.0385376 45.9903187,43.25363 45.7945708,43.5847508" id="Fill-146"></path>
                        <path d="M31.4851902,49.2945435 C31.294963,48.6287912 31.294963,48.6287912 31.9179337,48.5332378 C31.7724409,48.7890872 31.6620056,48.983416 31.4851902,49.2945435" id="Fill-148"></path>
                        <path d="M38.786933,47.9622585 C38.7877616,48.3732183 38.5888178,48.6596158 38.2771863,48.9138906 C38.2434628,48.4288219 38.2434628,48.4288219 38.8093048,47.9837318 C38.8094705,47.9839064 38.786933,47.9622585 38.786933,47.9622585" id="Fill-150"></path>
                        <path d="M24.1198022,51.0092501 C23.9434453,51.6333794 23.7677297,51.7843761 23.5881663,51.3925382 C23.5561816,51.3228363 23.5943388,51.0286681 23.609249,51.0262046 C23.7783913,50.9993962 23.9493773,51.0092501 24.1198022,51.0092501" id="Fill-152"></path>
                        <path d="M33.3687489,50.0558492 C33.3353624,50.3638374 33.2358297,50.6297882 32.8260626,50.8171549 C32.8026115,50.3351833 33.0842928,50.1934573 33.3687489,50.0558492" id="Fill-154"></path>
                        <path d="M29.1186923,50.6268284 C29.2719688,50.9678346 29.2438989,51.2058451 28.6535996,51.227414 C28.8598765,50.961063 28.9892382,50.7939457 29.1186923,50.6268284" id="Fill-156"></path>
                        <path d="M46.2341764,9.92658031 C46.11676,9.76894442 45.9994461,9.61141043 45.8820297,9.45377455 C45.9377666,9.41118127 45.9935035,9.36858799 46.0492404,9.32599471 C46.1731116,9.47853571 46.2969829,9.63107671 46.4208541,9.78361771 C46.3586623,9.83130587 46.2963681,9.87889214 46.2341764,9.92658031" id="Fill-158"></path>
                        <path d="M45.712004,15.2557201 C45.5872919,15.0954657 45.4625798,14.9351192 45.337974,14.7748648 C45.4173942,14.7348933 45.4970271,14.6950139 45.5765537,14.6551345 C45.6765998,14.8260726 45.7767522,14.9971027 45.8767984,15.1680407 C45.8219378,15.1973286 45.7669709,15.2265244 45.712004,15.2557201" id="Fill-160"></path>
                        <path d="M27.1053628,0 C27.2508821,0.148123013 27.398041,0.24779561 27.3768621,0.285824198 C27.3115492,0.403346947 27.1821532,0.497365147 27.0774887,0.6005856 C26.9926366,0.522754496 26.8335902,0.440488571 26.8402855,0.368200993 C26.8497135,0.262874 26.9785629,0.16464272 27.1053628,0" id="Fill-162"></path>
                        <path d="M48.2396043,41.7688054 C48.3699928,41.6044006 48.5003814,41.4399958 48.7616287,41.1105073 C48.7616287,41.420597 48.8067767,41.5573585 48.7490484,41.6510547 C48.6902618,41.7465938 48.5303625,41.7999405 48.4147882,41.871813 C48.3563544,41.8374771 48.2980381,41.8031413 48.2396043,41.7688054" id="Fill-164"></path>
                        <path d="M45.8820297,42.1761459 C45.7596955,42.3918492 45.6374509,42.6076471 45.5151167,42.8234451 L45.337974,42.7157828 C45.4573528,42.4979017 45.5767316,42.2800206 45.6961104,42.0621394 C45.7580835,42.10011 45.8200566,42.1381753 45.8820297,42.1761459" id="Fill-166"></path>
                        <path d="M48.7314204,39.4271758 C48.6883325,39.2396372 48.6452447,39.0520985 48.6023081,38.8646523 C48.7020904,38.8519033 48.8017215,38.8392468 48.9015038,38.8265902 C48.9814808,39.0083087 49.0613067,39.1901196 49.1411325,39.3718381 C49.0046122,39.3903148 48.8679407,39.4087915 48.7314204,39.4271758" id="Fill-168"></path>
                    </g>
                </g>
                <g id="Page-1" transform="translate(13.000000, 0.000000)">
                    <path d="M6.94495913,18.6648598 C6.90630051,18.6543351 6.86764188,18.6438104 6.82904663,18.6332857 C6.79976748,18.7313759 6.77048832,18.8294661 6.74127254,18.9276164 C6.78100854,18.9382013 6.82080791,18.9487861 6.86060728,18.9593709 C6.88868231,18.8612206 6.91682072,18.7630101 6.94495913,18.6648598 Z M15.0637773,18.7397355 C15.1019923,18.7704676 15.1401439,18.8012599 15.1783589,18.831992 C15.2504795,18.7349844 15.3225366,18.6379767 15.3946571,18.540969 C15.3614487,18.5179951 15.328177,18.4949611 15.2950319,18.471927 C15.2179682,18.5612366 15.1409044,18.6504861 15.0637773,18.7397355 Z M15.6165956,17.7116829 C15.6595638,17.6321763 15.704243,17.5865292 15.7017714,17.5433478 C15.6993631,17.5013092 15.6485999,17.4617964 15.6191306,17.421141 C15.586049,17.4618566 15.5304059,17.5005875 15.5261598,17.5437688 C15.5221672,17.5856872 15.5709024,17.6322364 15.6165956,17.7116829 Z M7.98164402,16.6675726 C7.94514014,16.6340739 7.90869963,16.6005753 7.87225912,16.5670767 C7.80349747,16.6627011 7.73473582,16.7582654 7.66603754,16.8538898 C7.69449283,16.8751798 7.72301148,16.8965299 7.75159352,16.91788 C7.82827702,16.8344041 7.90489714,16.7509883 7.98164402,16.6675726 Z M18.2680069,16.4762636 C18.3004548,16.4842624 18.3329027,16.492201 18.3653506,16.5001998 C18.4062274,16.3722796 18.4470407,16.2443594 18.4878541,16.116379 C18.4467239,16.1054935 18.4057204,16.0945478 18.3645901,16.0836622 C18.3323957,16.2145294 18.3002013,16.3453965 18.2680069,16.4762636 Z M13.8342429,9.39428361 C13.8696061,9.41701696 13.9049058,9.43981045 13.940269,9.4625438 C14.0078265,9.36770122 14.0754474,9.27285865 14.1430683,9.17801607 C14.1090994,9.15612469 14.0751939,9.13417318 14.041225,9.1122818 C13.9722099,9.2062824 13.9032581,9.300283 13.8342429,9.39428361 Z M15.9190835,14.0081915 C15.8798545,13.9801056 15.8406255,13.9519596 15.8014599,13.9238135 C15.7501897,14.0076502 15.6990463,14.0914269 15.647776,14.1752636 C15.6753441,14.1933661 15.7028487,14.2114686 15.7304168,14.2295711 C15.7932846,14.1557779 15.8561524,14.0819847 15.9190835,14.0081915 Z M14.7980468,13.425905 C14.7931669,13.4743186 14.7882871,13.5227322 14.7834072,13.5710857 C14.8691533,13.5880455 14.9549628,13.6143873 15.0407089,13.6142671 C15.0583905,13.6142069 15.0760087,13.5157559 15.0936268,13.4626512 C14.995079,13.4503825 14.8965946,13.4381738 14.7980468,13.425905 Z M13.3902391,15.0096618 C13.3449261,15.0183822 13.2995498,15.0271027 13.2543002,15.0358232 C13.2868748,15.1300643 13.3194495,15.2242454 13.3520875,15.3184264 C13.3701493,15.3109087 13.4040548,15.3031505 13.4039281,15.2959336 C13.4021536,15.2004295 13.395626,15.1051058 13.3902391,15.0096618 Z M12.777088,17.2360266 C12.4988093,17.3633454 12.4988093,17.3633454 12.5374045,17.6765604 C12.6378536,17.4919271 12.7075025,17.3640069 12.777088,17.2360266 Z M6.34980643,18.4614023 C6.37794484,18.4807076 6.40601988,18.5000731 6.43403154,18.5193784 L6.62048018,18.0810697 C6.58689154,18.0685604 6.5533029,18.056051 6.51977763,18.0435417 C6.46312057,18.1828286 6.4064635,18.3221154 6.34980643,18.4614023 Z M13.4418896,14.7970027 C13.5392333,14.614775 13.5982986,14.5094679 13.6457663,14.3997103 C13.6482379,14.3939368 13.5385995,14.3162946 13.50368,14.3288039 C13.3160272,14.3960417 13.26425,14.5205339 13.4418896,14.7970027 Z M10.4340584,18.9716397 C10.4531343,18.8036054 10.4673302,18.6791132 10.4948349,18.437406 C10.213831,18.6586652 10.0557743,18.7721516 10.4340584,18.9716397 Z M12.2947424,18.276769 C12.5878508,18.0999541 12.5878508,18.0999541 12.6014764,17.7869796 C12.4691499,17.9982554 12.3819461,18.1374821 12.2947424,18.276769 Z M21.4837708,14.2770224 C21.4338314,14.5818177 21.4656456,14.7428155 21.8216218,14.7662706 C21.702794,14.5941466 21.6155903,14.4678502 21.4837708,14.2770224 Z M21.0770313,14.8047609 C20.9152355,15.0068953 20.791211,15.2114353 21.0241767,15.5375205 C21.0466114,15.227072 21.0618214,15.0159766 21.0770313,14.8047609 Z M22.4803394,16.2076131 C22.9044435,16.1561924 22.7984175,15.9536972 22.7754758,15.7935414 C22.7720536,15.7698458 22.7152064,15.7530664 22.6477122,15.711148 C22.5982799,15.8578323 22.5522698,15.9941722 22.4803394,16.2076131 Z M4.93337978,18.7047935 C5.28517326,18.9318864 5.28517326,18.9318864 5.60699047,18.7818343 C5.3486748,18.7522449 5.1409956,18.7284891 4.93337978,18.7047935 Z M8.48585389,18.6082068 C8.01580303,18.5778356 7.99045312,18.7462909 8.05699665,19.1183841 C8.22354561,18.9202792 8.32044567,18.8049886 8.48585389,18.6082068 Z M15.1189134,9.73648669 C15.0819025,9.71387362 15.0448283,9.69132069 15.007754,9.66876776 C14.9067346,9.84101199 14.6142599,9.93411047 14.8099613,10.3244866 C14.9386121,10.0795919 15.0287311,9.90806936 15.1189134,9.73648669 Z M19.8215766,11.7462231 C19.8688542,11.77046 19.9161952,11.7946368 19.9634728,11.8188135 C20.0117644,11.7235499 20.0651894,11.6300305 20.1011862,11.5307374 C20.105369,11.5191302 20.0132854,11.4760691 19.9658177,11.4475622 C19.9177162,11.5470958 19.8696147,11.6466895 19.8215766,11.7462231 Z M15.9007049,10.6123221 C15.8393581,10.5986099 15.7779479,10.5848977 15.7166011,10.5712457 C15.6800972,10.7882951 15.6435933,11.0054046 15.6070894,11.2225141 C15.6368756,11.2290695 15.6667251,11.235685 15.6965746,11.2423005 C15.7646392,11.0322877 15.8327037,10.822335 15.9007049,10.6123221 Z M23.327597,17.1922438 C23.2862767,17.3517382 23.2448929,17.5112926 23.1783494,17.7681554 C23.4449672,17.5797934 23.5876872,17.458188 23.327597,17.1922438 Z M20.6222538,16.8962292 C20.2824382,17.1266299 20.5445563,17.2859437 20.6432942,17.477794 C20.8618739,17.2757198 20.7969781,17.0952963 20.6222538,16.8962292 Z M14.5891001,15.1709603 C14.3908637,14.9997385 14.3927016,14.7375231 14.0395773,14.7431764 C14.1123315,14.9984154 14.0575757,15.2885964 14.5891001,15.1709603 Z M6.5155949,16.9001383 C6.57079434,16.9193835 6.62599379,16.9385685 6.68119324,16.9578137 C6.77574843,16.7554989 6.87030362,16.5531841 6.99249023,16.2917506 C6.42148333,16.3519519 6.68125661,16.7265109 6.5155949,16.9001383 Z M5.76878632,13.8704683 C6.00612492,13.6320688 6.2918185,13.4175454 6.27261593,12.9523537 C5.90738699,13.2282812 5.84033646,13.5504573 5.76878632,13.8704683 Z M10.5647373,15.6049989 C10.6085926,15.6190719 10.6523846,15.633145 10.6961132,15.6472781 L11.0598845,14.6080392 C11.0177403,14.5944473 10.9755327,14.5807953 10.9333251,14.5671433 C10.8104414,14.9130751 10.687621,15.2590671 10.5647373,15.6049989 Z M23.1967281,15.2694715 C23.2159306,14.9465136 23.2289225,14.7275397 23.2436254,14.4804197 C22.8179369,14.7007769 22.8179369,14.7007769 23.1967281,15.2694715 Z M18.8485834,14.9690064 C18.5231539,14.9771856 18.5183374,15.150813 18.5232172,15.3381527 C18.5270197,15.482732 18.4576243,15.6580434 18.7121375,15.695812 C18.7576406,15.4533831 18.7988976,15.2335672 18.8485834,14.9690064 Z M8.29002577,15.0637888 C7.9731518,15.2777108 7.73727081,15.4369044 7.44783813,15.632303 C8.09128241,15.6360919 8.11980107,15.6169069 8.29002577,15.0637888 Z M15.2800121,13.6490888 C15.1923014,13.9684984 15.1045273,14.2878478 15.0167532,14.6071973 C15.38382,14.2502596 15.4021353,14.1857883 15.2800121,13.6490888 Z M16.3300691,12.2493639 C16.8910628,11.6984109 16.8910628,11.6984109 16.5537187,11.5258059 C16.4784929,11.7693775 16.404281,12.0093406 16.3300691,12.2493639 Z M6.05137453,14.9794108 C5.99015448,15.2250272 5.9501016,15.3856642 5.91169648,15.5394451 C6.04776216,15.5889412 6.13762762,15.621658 6.24929401,15.6623736 C6.33542036,15.4904902 6.40272439,15.3559544 6.4773799,15.2069848 C6.33599073,15.1315077 6.23154907,15.0756967 6.05137453,14.9794108 Z M23.0265668,15.5236279 C23.1000815,15.85687 23.1736597,16.1901722 23.2725243,16.6380433 C23.5322976,16.1142741 23.438186,15.7776641 23.0265668,15.5236279 Z M7.39663129,13.5906316 C6.98235026,13.4773858 6.7991971,13.6711004 6.69279082,14.4262326 C6.96257732,14.1059209 7.17982612,13.8480357 7.39663129,13.5906316 Z M5.31578329,12.4185409 C5.01044353,12.7936412 4.95898319,13.2057884 4.83083936,13.6829482 C5.2963906,13.1149753 5.43169579,12.7714491 5.31578329,12.4185409 Z M9.93124283,15.0471898 C9.88263436,15.0350413 9.83389914,15.0230131 9.7852273,15.0109247 C9.36416516,15.3810934 9.35903181,15.8741906 9.43641243,16.3945318 L9.93124283,15.0471898 Z M13.3057605,15.76311 C12.7615612,16.4284514 12.7420417,16.4863673 12.8789313,16.9545059 C13.357918,16.4625514 13.3787683,16.4090258 13.3057605,15.76311 Z M9.96895083,18.2142824 C10.2408921,17.9233797 10.3172587,17.6322364 10.1326479,17.5856872 C9.75493415,17.4903635 9.73085173,17.1117149 9.39090933,16.9160156 C9.31055009,17.0292614 9.14362088,17.1584445 9.16079545,17.2593012 C9.22157188,17.6156976 8.78986278,17.2863046 8.79594676,17.553211 C8.93334331,17.7052478 9.08607657,17.8743045 9.29863563,18.1095165 C9.35928531,17.8698541 9.39673981,17.721546 9.47393031,17.4166304 C9.68294038,17.7534208 9.81412621,17.9648169 9.96895083,18.2142824 Z M5.88210045,16.1288884 C5.69710942,16.2366011 5.51611101,16.3073271 5.38771368,16.4283311 C5.29505973,16.5155959 5.20671526,16.6838708 5.23219193,16.791343 C5.28796175,17.0266753 5.41724633,17.2463107 5.55698775,17.5647581 C5.60369498,17.1919431 5.76396983,17.025292 6.11627032,17.1248858 C6.11322833,16.8214136 6.0818578,16.5712264 6.40525938,16.4020494 C6.54816954,16.3273541 6.56997047,16.0441495 6.64678072,15.8555469 C6.60565048,15.8381661 6.56458361,15.8207853 6.52351675,15.8034045 C6.40392851,15.9948338 6.28434027,16.186263 6.16969527,16.3698739 C6.12089668,16.3593492 6.09415251,16.361394 6.08280842,16.3497868 C6.02760898,16.2937352 5.97659227,16.2339549 5.88210045,16.1288884 Z M16.7709042,15.4785822 C16.4476293,16.4475161 16.1244179,17.4165102 15.7917002,18.4137104 C15.9237733,18.4478104 16.0305598,18.4754152 16.1381702,18.5032004 C16.4681628,17.4893411 16.8030986,16.5239555 16.7709042,15.4785822 Z M10.6445261,17.7109612 C11.0444845,17.3683371 12.0132316,14.7341552 11.9799598,14.2115889 C11.5057262,15.3693058 10.9792718,16.5087999 10.6445261,17.7109612 Z M15.2362201,11.4086509 C14.710146,11.496878 14.5824458,11.9145582 14.4463801,12.2177297 C14.2207658,12.7206299 14.1386321,13.2830698 14.0128965,13.8239792 C13.9710691,14.0039215 13.9058564,14.2168211 14.2233642,14.3623627 C14.2907949,14.1122958 14.3452339,13.8874281 14.4127281,13.6661689 C14.4824403,13.4380535 14.5210356,13.0508649 14.6503202,13.0195313 C14.971567,12.9415884 14.888039,12.7927391 14.8366421,12.6285538 C14.7199691,12.2554983 14.7950048,11.9438469 15.1047174,11.6785042 C15.1684725,11.6239562 15.1845697,11.5193106 15.2362201,11.4086509 Z M8.27760431,18.0258 C8.31341107,17.9147795 8.34021861,17.8294994 8.36842039,17.7446402 C8.53547635,17.2431834 8.65728271,16.7217597 8.8888542,16.2488098 C9.00920294,16.0028927 8.98283903,15.8184398 8.94709564,15.4687191 C8.64150238,15.8449019 8.27950555,16.1038095 8.20782866,16.4216554 C8.09489478,16.9222101 7.79170976,17.4759897 8.27760431,18.0258 Z M21.5811778,13.9366236 C21.5756008,13.852426 21.5488567,13.7127181 21.5603275,13.575897 C21.6046899,13.0477977 21.5545604,12.4816891 21.7473465,12.0054916 C21.8985588,11.631955 21.8907003,11.3647479 21.7363193,11.0148467 C21.2562552,11.3074334 21.7777031,11.8134008 21.4345285,12.1030405 C21.0597934,12.4192626 21.2623392,12.8612399 21.1622704,13.2379038 C21.062265,13.6141468 21.0187899,14.0039215 20.9375434,14.4612347 C21.1785577,14.2648138 21.3399733,14.1332851 21.5811778,13.9366236 Z M15.1605506,17.4918069 C15.2262703,17.5115332 15.2919266,17.5313196 15.3576462,17.5510459 C15.7771874,16.1597408 16.1967285,14.7684357 16.6162063,13.3771305 L16.4864781,13.3399032 C15.7051302,14.6239165 15.492888,16.0755432 15.1605506,17.4918069 Z M21.8687093,15.4294469 C21.1480111,16.6177155 20.9211927,17.9506838 20.6645882,19.3274347 C20.8001468,19.2918312 20.8947654,19.2925529 20.910926,19.2591144 C21.4942276,18.0511796 21.6621708,16.7432902 21.8687093,15.4294469 Z M14.3306577,16.192638 C14.3750834,16.2095978 14.4194458,16.2266177 14.4639349,16.2436377 C14.3557541,16.7085888 14.2475733,17.17354 14.1394559,17.6384911 C14.1922471,17.6499179 14.2451017,17.6614049 14.2978929,17.6728918 C14.4979671,16.9898689 14.6980414,16.306846 14.8980522,15.6238231 C14.8629426,15.6074647 14.827833,15.5911063 14.7926599,15.5748081 C14.7026044,15.7219133 14.6125488,15.8690786 14.5224932,16.0161839 C14.4925169,16.0041556 14.4624139,15.9920673 14.4323742,15.9799789 L14.4323742,15.4856187 C14.2991604,15.5736052 14.2045419,15.6583441 14.0923051,15.7056752 C13.8147235,15.8228301 13.7817052,16.0531105 13.7557216,16.2943366 C13.7287239,16.5455462 13.7190909,16.8008453 13.6625606,17.0462212 C13.5600202,17.491446 13.428264,17.9305966 13.3087391,18.372213 C13.5571049,18.1750102 13.7484335,17.9565174 13.8417212,17.7051876 C13.9692946,17.3617216 14.0113755,16.9904102 14.1123949,16.6367803 C14.1567573,16.4814357 14.2561923,16.3402243 14.3306577,16.192638 Z M13.1705821,13.3586071 C13.1041653,13.4638541 13.0087229,13.5616436 12.9761482,13.675611 C12.8399558,14.1534925 12.7055378,14.6329978 12.602934,15.1180962 C12.4993163,15.6083668 12.2995589,16.0588239 12.0944781,16.5157763 C11.8513724,17.0573473 11.6755073,17.6262825 11.4751162,18.1848734 C11.4075587,18.373476 11.3339805,18.5638828 11.304131,18.7591009 C11.2918363,18.8395097 11.3877224,18.9348334 11.5100991,19.1669782 C12.3861289,17.2184654 12.9032038,15.3312966 13.1705821,13.3586071 Z M17.8255875,17.2364476 C17.8783787,16.167499 18.5163728,15.2590671 18.5391877,14.1430881 C17.9461897,14.8524528 16.8645087,18.3053962 16.9731965,19.0740601 C17.2974853,19.0925234 17.6281116,19.1114077 17.9587379,19.1302319 C17.968561,19.0905388 17.9784475,19.0507855 17.9882706,19.0110322 C17.8894693,18.9588898 17.7838235,18.9155882 17.6937045,18.8523799 C17.5834324,18.7750383 17.4345016,18.6990801 17.3924208,18.5909463 C17.2235903,18.1576294 17.508967,17.5930845 17.9786376,17.362744 C18.1639455,17.2718106 18.3543868,17.1778701 18.2242149,16.9092798 C18.0922686,17.0174737 17.9707791,17.117308 17.8255875,17.2364476 Z M19.0392782,19.1933801 C19.9660712,16.917038 20.6507091,14.576405 21.0737358,12.0929969 C20.5095734,12.7771625 19.1165954,17.5633147 19.0392782,19.1933801 Z M9.53584748,13.8103272 C9.88383848,13.3592686 10.2204854,12.9817627 10.4886241,12.5646238 C11.4222616,11.1124558 12.436702,9.71928632 13.651977,8.46341905 C13.8077523,8.30248137 13.9410928,8.12139639 14.0785528,7.945243 C14.4358599,7.48750879 15.0827898,7.51421145 15.3624627,8.02450902 C16.1427332,9.44810992 17.196656,10.6836495 18.2718094,11.9068 C18.4033121,12.0564311 18.5062962,12.2286754 18.6647965,12.4492731 C18.8125865,12.272398 18.9684885,12.1197597 19.0830702,11.9430651 C19.7651731,10.891377 20.4339039,9.83187053 21.1168941,8.78078384 C21.2368626,8.59615055 21.3848427,8.41993701 21.5518353,8.27253108 C21.843803,8.01488644 22.1800063,7.80114483 22.461327,7.53441888 C22.7165373,7.29235079 22.9949427,7.19913203 23.3185344,7.31971501 C23.5964329,7.42333819 23.5859127,7.68260664 23.6195013,7.92786221 C23.6748275,8.33086798 23.8257229,8.72449174 23.8569033,9.12755765 C23.8949282,9.61921147 23.8378275,10.1168193 23.8473337,10.6113598 C23.8530375,10.9076151 23.8563963,11.2181839 23.9486066,11.4960961 C24.3620638,12.7420401 24.3448892,14.0013956 24.1556521,15.2740422 C24.1234577,15.4906706 24.1022271,15.7151173 24.1242182,15.931445 C24.2088869,16.7620543 24.3195393,17.5901978 24.4048418,18.4207469 C24.4222699,18.5903449 24.3784145,18.7671599 24.3491987,18.9385621 C24.339946,18.9932304 24.2666847,19.0379153 24.2566715,19.0927038 C24.0486754,20.2312358 22.9960835,20.234303 22.1480654,20.4514125 C21.793927,20.5420452 21.3729916,20.4004729 20.982793,20.3612609 C20.3392853,20.2964287 19.6962847,20.2259433 19.0524601,20.1634567 C18.3414583,20.0945349 17.6310902,20.0100366 16.9180604,19.9720876 C15.9968444,19.9230124 15.0733469,19.8942048 14.1506733,19.8915586 C12.9738033,19.8882508 11.79687,19.9255985 10.61981,19.9341987 C9.88960559,19.9395512 9.15921108,19.9191634 8.42894332,19.9206068 C8.1582062,19.921148 7.88734233,19.9669154 7.61679533,19.9645098 C6.98995523,19.959037 6.36330527,19.9280041 5.73646517,19.9242754 C5.29543998,19.9216292 4.85143617,19.9221704 4.41376983,19.965893 C3.85638852,20.0216439 3.5386273,19.7934684 3.61733879,19.2825694 C3.75346785,18.3992765 3.53482481,17.5379953 3.49394807,16.6663697 C3.48932171,16.5668361 3.46422529,16.4682648 3.45769768,16.3687312 C3.41561682,15.731175 3.36440999,15.0938594 3.33880657,14.4556416 C3.31149203,13.7770691 3.31808301,13.0972938 3.2901981,12.4187815 C3.282403,12.2299985 3.23202004,12.0327957 3.15375217,11.8586871 C2.98764683,11.4893603 3.0279532,11.1730781 3.31123853,10.8623288 C3.56663896,10.5821312 3.86640173,10.6004743 4.168953,10.7555783 C4.57157307,10.9619225 4.96804579,11.1805957 5.35615303,11.4105754 C6.37078349,12.0117463 7.37559086,12.6280727 8.39275631,13.2253343 C8.74309218,13.4310771 9.11846109,13.5983297 9.53584748,13.8103272 Z" id="Fill-11"></path>
                    <path d="M14.1910225,2.61038187 C14.0414405,2.7827298 14.0063909,2.82314323 13.9714035,2.86349758 C14.0456663,2.90934674 14.1199912,2.95513681 14.1943783,3.00098597 C14.2160046,2.9544278 14.2568958,2.90710155 14.2549072,2.86148872 C14.2517999,2.78887453 14.2201062,2.71732385 14.1910225,2.61038187 M11.671432,3.40287511 C11.6381225,2.54273073 11.9187054,1.90326496 12.3608642,1.31667934 C12.3961002,1.26982576 12.4397878,1.20873293 12.4911192,1.19579355 C12.9984677,1.06793584 13.5030818,0.918571576 14.019317,0.840167153 C14.2719348,0.801762575 14.5546305,0.874908525 14.8111634,0.941318903 C15.4503827,1.10663584 16.0545525,1.87271855 16.0909692,2.52016065 C16.1074376,2.81238995 16.1799603,3.10881421 16.1455322,3.3944261 C16.1169457,3.63200273 16.0284518,3.91152897 15.8610342,4.07460072 C15.581135,4.34709597 15.2394018,4.58254558 14.8824433,4.7574932 C14.5075871,4.94124434 14.1845595,5.24044554 13.7070404,5.23412356 C13.049302,5.22543822 12.4579962,5.13474433 11.9878102,4.62289993 C11.6124568,4.21421613 11.8069072,3.71690639 11.671432,3.40287511" id="Fill-13"></path>
                    <path d="M2.86570911,6.91196024 C2.89073257,6.8914141 2.91588083,6.87086795 2.94096669,6.85026138 C2.89453913,6.75889147 2.84804917,6.66746112 2.80162161,6.57609121 C2.76711295,6.60400979 2.7326667,6.63198881 2.69815805,6.65996782 C2.7540084,6.7439653 2.80979635,6.82796277 2.86570911,6.91196024 M3.20936041,6.71985379 C3.25447751,6.74124595 3.29959461,6.76263812 3.34477412,6.78403028 C3.42308942,6.63265354 3.50140472,6.48139766 3.57965762,6.33008134 C3.53285565,6.30820574 3.48605367,6.28633014 3.4391893,6.26451497 C3.36262127,6.41631472 3.28599084,6.56811447 3.20936041,6.71985379 M0.74776379,6.23164114 C0.687420446,5.69925428 0.717810527,5.17671748 1.06682845,4.73702999 C1.22320944,4.54002872 1.43750008,4.36454047 1.66246157,4.24392252 C2.65634828,3.71099179 4.19881653,4.34623023 4.61310761,5.19901609 C4.65660224,5.28857311 4.70602513,5.38097033 4.77435601,5.45276097 C5.39925596,6.10993545 5.26914647,6.81678325 4.89242179,7.5152313 C4.75151664,7.7762882 4.53154737,8.00761361 4.30870757,8.21283334 C4.18727205,8.3247494 3.98995493,8.38252032 3.81697483,8.41430642 C3.39332336,8.49214005 2.96318202,8.53577039 2.53709685,8.60224321 C2.04005989,8.67977469 1.61996537,8.53528695 1.33104119,8.14702525 C1.00317776,7.70637088 0.727857351,7.23302397 0.770790362,6.65259538 C0.781086796,6.5134859 0.756312951,6.37201965 0.74776379,6.23164114" id="Fill-15"></path>
                    <path d="M23.6337169,3.47018503 C24.1190845,3.68500784 24.1190845,3.68500784 24.4300389,3.2971131 C24.173359,3.35288207 23.9665838,3.39784922 23.6337169,3.47018503 M25.7901955,4.3904641 C25.7244581,4.53750242 25.6718935,4.71421542 25.5741106,4.8637418 C25.0439048,5.67497098 24.3024906,6.17573873 23.2612049,5.69020277 C23.1207371,5.62472429 22.9401808,5.60087532 22.7827404,5.61283015 C22.1786274,5.65882893 21.7358182,5.41512034 21.6187828,4.85821952 C21.4462062,4.03800905 21.5789477,3.25869987 22.1717877,2.60379373 C22.3493674,2.40766172 22.5715953,2.24878993 22.7724174,2.07189488 C23.0945814,1.78825595 23.4441677,1.80555101 23.8239628,1.95865777 C24.3735478,2.18015587 24.767149,2.5902611 25.2136948,2.94332299 C25.7002657,3.32800146 25.6126158,3.87719537 25.7901955,4.3904641" id="Fill-17"></path>
                </g>
            </g>
        </g>
    </g>
</svg>