<?xml version="1.0" encoding="UTF-8"?>
<svg width="20px" height="16px" viewBox="0 0 20 16" version="1.1" xmlns="http://www.w3.org/2000/svg" xmlns:xlink="http://www.w3.org/1999/xlink">
    <!-- Generator: Sketch 48.2 (47327) - http://www.bohemiancoding.com/sketch -->
    <title>Shape</title>
    <desc>Created with Sketch.</desc>
    <defs></defs>
    <g id="iPhone-8-Copy-11" stroke="none" stroke-width="1" fill="none" fill-rule="evenodd" transform="translate(-18.000000, -220.000000)">
        <g id="Group-Copy" transform="translate(0.000000, 202.000000)" fill="#FFC107" fill-rule="nonzero">
            <path d="M37.8990107,18.9010742 C37.8079631,18.7824747 37.6668915,18.7130219 37.517374,18.7131855 L27.9502858,18.7131855 C27.8655254,18.7137472 27.782454,18.7369424 27.7096633,18.7803723 L27.6932572,18.7659194 L19.6261534,27.2923934 L19.5406075,27.3884861 L19.5507636,27.4005954 C19.533614,27.4314773 19.5204866,27.4644268 19.5117015,27.4986412 L18.0160139,33.0798333 C17.9778085,33.2241665 18.0088154,33.3780583 18.0999328,33.4963349 C18.1910501,33.6146116 18.3319393,33.6838528 18.4812435,33.6837333 L28.0514566,33.6837333 C28.20458,33.6837333 28.3412974,33.6184996 28.4811397,33.4774854 L36.3501986,25.1416344 C36.4106221,25.0696195 36.457594,24.9873194 36.4888691,24.8986682 L37.9314322,19.5131772 L37.9845567,19.3178668 C38.0220358,19.1731825 37.9904512,19.0192979 37.8990107,18.9010742 Z M28.919807,28.1025412 L27.681148,32.7247589 L19.1058463,32.7247589 L20.3437241,28.1025412 L28.919807,28.1025412 Z M36.4787129,19.6725506 L29.4135519,27.1416137 L21.0933257,27.1416137 L28.156143,19.6725506 L36.4763692,19.6725506 L36.4787129,19.6725506 Z" id="Shape"></path>
        </g>
    </g>
</svg>