<?xml version="1.0" encoding="UTF-8"?>
<svg width="46px" height="39px" viewBox="0 0 46 39" version="1.1" xmlns="http://www.w3.org/2000/svg" xmlns:xlink="http://www.w3.org/1999/xlink">
    <!-- Generator: Sketch 49.3 (51167) - http://www.bohemiancoding.com/sketch -->
    <title>ic_tick</title>
    <desc>Created with Sketch.</desc>
    <defs></defs>
    <g id="Page-1" stroke="none" stroke-width="1" fill="none" fill-rule="evenodd">
        <g id="ic_tick" transform="translate(-3.000000, -7.000000)" fill="#34A853" fill-rule="nonzero">
            <path d="M7.7985291,32.4575727 C7.87629449,33.0187399 8.44037718,32.7272727 8.79253487,32.9911916 C8.80606372,32.1574899 8.14588103,32.5660658 7.7985291,32.4575727 Z M35.3635176,24.7648296 C35.4314195,24.7844416 35.4993214,24.8040537 35.5670983,24.8237796 C35.7704253,24.3692916 36.1383887,23.9629848 36.0881887,23.4341261 C36.0111829,23.4117934 35.9341753,23.3895744 35.8570426,23.3671279 C35.6926599,23.8330658 35.5280253,24.2988899 35.3635176,24.7648296 Z M7.87831756,33.9933554 C7.75149064,33.3600882 6.58399641,32.7654779 5.73350987,32.7762468 C6.45653872,33.1865227 7.0962368,33.5496365 7.87831756,33.9933554 Z M25.4010733,34.547833 C24.8278868,34.4328796 24.2764464,34.322233 23.7250079,34.2115865 L23.6477483,34.3701882 C24.2160041,34.6610865 24.7843887,34.9517606 25.4010733,35.2676003 L25.4010733,34.547833 Z M17.9192829,34.7209451 C17.9637926,34.8512037 18.0299253,34.9830485 18.0516753,35.1206761 C18.111106,35.4954675 18.617781,35.8438451 19.008506,35.7313848 C19.1073868,35.7029296 19.1550579,35.531633 19.2262483,35.4258606 C18.7863368,35.1986727 18.6831541,34.4773192 17.9192829,34.7209451 Z M8.65103872,34.2506985 L8.50044064,34.4875227 C9.29390026,34.8595934 10.0872329,35.2316641 10.8806926,35.603733 C10.9102829,35.554533 10.9401233,35.5052175 10.9698387,35.4559037 C10.3652926,34.7866985 9.51505795,34.507702 8.65103872,34.2506985 Z M35.4481099,25.1916554 C35.3609887,25.1404141 35.2739926,25.089171 35.1868695,25.0379296 C34.8768195,25.5139572 34.5361695,25.9766089 34.2654445,26.4699813 C34.0136868,26.9286641 33.6583676,27.3197813 33.6199272,27.9079279 C33.5864195,28.4187606 33.2900253,28.9156485 33.6880829,29.4832761 C34.2746753,28.0528123 34.8613926,26.622233 35.4481099,25.1916554 Z M35.9079253,3.68430372 C36.5280753,3.60963303 37.0774753,3.72300027 37.5561214,4.02440544 C38.1609214,4.40531751 39.0826003,4.36795199 39.6208887,4.79886061 C40.4039791,5.42566579 41.4352868,5.30538475 42.2685791,5.71713303 C42.3586099,5.76157268 44.5582945,6.24814337 44.4264099,6.57192096 C43.9988906,7.62158475 43.6005791,8.68122613 43.1573791,9.72556406 C42.8233041,10.5125572 42.3797253,11.2652003 42.091931,12.0640968 C41.8363791,12.7734348 41.7472349,13.5297054 41.5471945,14.2570692 C41.4337695,14.669271 41.2140041,15.0578934 41.0969137,15.4696416 C40.8392118,16.3753313 40.7638503,17.3523279 40.3239368,18.1754848 C40.061306,18.6667054 39.9346041,19.1442072 39.8004445,19.6440416 C39.7483464,19.8376727 39.7210349,20.036971 39.6894233,20.234571 C39.6722253,20.3418158 39.7078829,20.5260365 39.6547753,20.5478037 C39.0557926,20.7923365 39.2616503,21.3048675 39.122431,21.7083416 C38.9634849,22.1694054 38.6584945,22.5882951 38.4721099,23.0435779 C38.1449887,23.8428158 37.8632637,24.6567899 37.5561214,25.4627158 C37.2252079,26.331333 36.8731772,27.1937158 36.5588272,28.0670951 C36.4371849,28.405383 36.4005156,28.7677037 36.3126349,29.116421 C36.2494099,29.3671882 36.2398003,29.6662503 36.076556,29.8521727 C35.607181,30.3862451 35.5836618,31.0257485 35.502356,31.6353227 C35.4269945,32.1997761 35.4378676,32.7080003 34.9175349,33.1819882 C34.653006,33.423233 34.7308983,34.0045796 34.7322887,34.4318589 C34.733806,34.8611796 34.8723926,35.2975296 34.4257791,35.628221 C34.3951791,36.8577985 33.7190637,37.8050934 33.3411099,38.8284572 C33.214031,39.1724141 32.8899445,39.4539037 32.7201253,39.7900365 C32.2147137,40.7903865 31.7646868,41.8135244 31.2462503,42.8082054 C30.9556733,43.3656313 30.3943714,43.2352589 29.7743983,43.0657761 C29.794756,43.3135968 29.7740176,43.5156158 29.8329426,43.6970037 C30.0111079,44.2458123 29.6857579,44.5918089 29.2630426,44.8946123 C28.8573983,45.1849451 28.5144714,44.9871192 28.1267829,44.7937158 C26.9869829,44.2250675 25.8285945,43.6847606 24.6597099,43.1657658 C24.2742983,42.9945813 23.8348906,42.9207796 23.4190041,42.8059382 C23.3401003,42.7840589 23.226931,42.8035589 23.1785003,42.7601382 C22.1471926,41.8348365 20.8384579,41.3150503 19.5416099,40.7943554 C18.2944541,40.2935003 16.3713599,39.5137606 15.5824522,39.2335175 C14.3465522,38.7944485 10.1881137,36.9215796 9.52818295,36.5546106 C8.84270987,36.1735848 8.12296756,35.840852 7.40891756,35.5030192 C6.80651949,35.2180141 6.14254256,35.0171279 5.59249449,34.6690916 C4.81092141,34.1745848 4.84835026,33.1577951 5.41723872,32.4792934 C5.72830026,32.1082434 5.77445218,31.5552399 5.92492526,31.0804589 C6.06439833,30.6400279 6.17984449,30.193702 6.31539641,29.7522503 C6.33588103,29.6857037 6.45588103,29.6272072 6.44943103,29.5727916 C6.35914833,28.8237744 6.91071372,28.2729244 7.16449449,27.6295675 C7.54952718,26.6531382 8.31415795,26.4496434 9.18652141,27.1296192 C9.45926756,27.3422951 9.79081372,27.4945468 10.0960599,27.6735537 C10.165606,27.714252 10.2475445,27.7418003 10.3071003,27.7914554 C10.588031,28.0261572 12.1755656,28.6143296 12.595756,28.7118141 C13.0331387,28.8132779 13.5131349,28.8325503 13.905881,29.010083 C14.7129983,29.3750106 16.0173829,29.9973951 16.9319791,30.3593761 C17.9653118,30.7682916 18.9870099,31.2013537 20.0267887,31.5965503 C20.2892945,31.6964261 22.5496753,32.5807572 23.4190041,32.7062554 C23.6380118,32.1891882 24.4668772,30.1520279 24.5823253,29.8924175 C24.8267483,29.3436089 24.956356,28.7539865 25.1952176,28.2027968 C25.5077964,27.4809882 25.8771503,26.7786796 26.2284214,26.0705899 C26.5453003,25.4318796 26.886456,24.8026934 27.1889195,24.1587692 C27.7514849,22.9612727 27.9881964,21.6726313 28.7306964,20.5067641 C29.3027464,19.6083313 29.4356445,18.487471 29.7843868,17.4711365 C29.8922464,17.156883 30.0486637,16.8526054 30.2168387,16.559552 C30.4005676,16.2395175 30.7055599,15.9592744 30.8148099,15.6242744 C31.1816349,14.5003537 31.451981,13.3509261 31.8258868,12.2291606 C32.0193522,11.648721 32.3913618,11.1177106 32.6142887,10.543052 C32.921431,9.75118475 33.4251983,9.01407268 33.4995503,8.15554337 C33.5995695,7.00294165 34.2550753,6.07775372 34.9738041,5.12365717 L35.9079253,3.68430372 Z" id="Fill-1" transform="translate(24.714615, 24.351720) rotate(14.000000) translate(-24.714615, -24.351720) "></path>
        </g>
    </g>
</svg>