
<svg width="560px" height="21px" viewBox="0 0 560 20" version="1.1" xmlns="http://www.w3.org/2000/svg" xmlns:xlink="http://www.w3.org/1999/xlink">
    <!-- Generator: Sketch 49.3 (51167) - http://www.bohemiancoding.com/sketch -->
    <desc>Created with Sketch.</desc>
    <defs></defs>
    <g id="Page-1" stroke="none" stroke-width="1" fill="none" fill-rule="evenodd">
        <g id="water_wave_front" transform="translate(0.000000, -1.000000)" fill="#E8EEF9" fill-rule="nonzero">
            <path d="M280,21 C301.5,20.6 318.8,18.5 331.1,16.5 C344.5,14.3 357.6,11.3 358.4,11.1 C374,7.5 378,5.7 388.5,3.7 C395.6,2.4 406.4,0.9 420,1 C420,1 420,1 420,1 L420,21 L280,21 Z" id="Shape"></path>
            <path d="M280,21 C258.5,20.6 241.2,18.5 228.9,16.5 C215.5,14.3 202.4,11.3 201.6,11.1 C186,7.5 182,5.7 171.5,3.7 C164.3,2.4 153.6,0.9 140,1 C140,1 140,1 140,1 L140,21 L280,21 Z" id="Shape"></path>
            <path d="M0,21 C21.5,20.6 38.8,18.5 51.1,16.5 C64.5,14.3 77.6,11.3 78.4,11.1 C94,7.5 98,5.7 108.5,3.7 C115.6,2.4 126.4,0.9 140,1 C140,1 140,1 140,1 L140,21 L0,21 Z" id="Shape"></path>
            <path d="M560,21.0047439 C538.5,20.6047439 521.2,18.5047439 508.9,16.5047439 C495.5,14.3047439 482.4,11.3047439 481.6,11.1047439 C466,7.50474393 462,5.70474393 451.5,3.70474393 C444.3,2.40474393 433.6,0.904743933 420,1.00474393 C420,1.00474393 420,1.00474393 420,1.00474393 L420,21.0047439 L560,21.0047439 Z" id="Shape"></path>
        </g>
    </g>
</svg>