<?xml version="1.0" encoding="UTF-8"?>
<svg width="36px" height="40px" viewBox="0 0 36 40" version="1.1" xmlns="http://www.w3.org/2000/svg" xmlns:xlink="http://www.w3.org/1999/xlink">
    <!-- Generator: Sketch 49.3 (51167) - http://www.bohemiancoding.com/sketch -->
    <title>ic_cross</title>
    <desc>Created with Sketch.</desc>
    <defs></defs>
    <g id="Page-1" stroke="none" stroke-width="1" fill="none" fill-rule="evenodd">
        <g id="ic_cross" transform="translate(-7.000000, -4.000000)" fill="#E94235" fill-rule="nonzero">
            <path d="M11.07828,11.376503 C11.12688,11.3018796 11.1755916,11.2273663 11.2241916,11.152743 C10.9643983,10.998823 10.7044933,10.844793 10.4445883,10.690763 L10.350725,10.8519113 L11.07828,11.376503 Z M16.5197116,15.121713 C16.7994116,15.161528 17.079225,15.2013413 17.3591466,15.2411563 C17.37216,15.1527413 17.3851716,15.064328 17.3981833,14.975913 C17.120485,14.9335413 16.842785,14.891168 16.564975,14.8487963 C16.54985,14.939768 16.534725,15.0307413 16.5197116,15.121713 Z M11.18649,20.1285246 C11.1275483,20.099053 11.0687166,20.0694696 11.0097733,20.0397763 C10.8927766,20.2575313 10.7479783,20.4663896 10.674355,20.6979346 C10.6495533,20.776118 10.8052516,20.9116863 10.9331466,21.102973 C11.0469183,20.665683 11.11676,20.397103 11.18649,20.1285246 Z M30.2881066,9.27735796 C30.53311,8.96729462 30.778,8.65723296 31.0228916,8.34728296 C30.9628366,8.30279796 30.9028933,8.25842296 30.8428383,8.21404962 C30.5986133,8.52411129 30.35439,8.83406129 30.1102766,9.14412462 C30.1695533,9.18849796 30.22883,9.23298296 30.2881066,9.27735796 Z M9.07466665,13.3502013 C8.99359165,13.6995213 8.91451998,14.039833 8.83544665,14.3801446 C9.37138331,13.9517513 9.42665498,13.5454913 9.07466665,13.3502013 Z M22.892885,22.1432596 C22.6671233,22.3108563 22.44136,22.4783446 22.2155983,22.6459413 L22.2380633,22.8139846 C22.4063283,22.856468 22.65122,22.9882563 22.7274,22.9230846 C22.8952216,22.7796196 22.9777416,22.5366196 23.0951816,22.3342113 C23.0277866,22.270598 22.9603916,22.2069846 22.892885,22.1432596 Z M26.0125216,29.2482146 C26.3525,29.214183 26.6923666,29.180153 27.13733,29.1356663 C26.873645,28.852963 26.7268433,28.695598 26.5428966,28.498528 C26.3375983,28.6783596 26.1524283,28.8406196 25.9672583,29.002878 L26.0125216,29.2482146 Z M20.56097,42.1255713 C20.7196716,42.204533 21.0162766,42.291168 21.0810033,42.2195463 C21.2511583,42.031263 21.3280066,41.7587913 21.4814816,41.4372746 C20.9197433,41.5538246 20.51871,41.6371246 20.09065,41.725983 C20.2695916,41.8834613 20.39582,42.0434963 20.56097,42.1255713 Z M8.63937831,16.304798 C8.71500331,16.436918 8.98135831,16.4599396 9.16052331,16.5328946 C9.11859498,16.360848 9.11592665,16.1642246 9.02662165,16.021983 C8.83744831,15.720818 8.60289998,15.448123 8.34599831,15.1094796 C7.87289831,15.564008 8.42295831,15.926673 8.63937831,16.304798 Z M34.1701083,12.7809013 C33.8870716,13.213743 33.59169,13.6394663 33.3353433,14.087543 C33.2994216,14.1504896 33.4314316,14.3531196 33.5319683,14.4320813 C33.5813466,14.470783 33.793875,14.4062796 33.8348016,14.3334346 C34.04544,13.9595363 34.2331666,13.5716263 34.4069933,13.1788213 C34.4436933,13.0956346 34.38842,12.9716313 34.37552,12.8664246 C34.3070116,12.837953 34.238505,12.809483 34.1701083,12.7809013 Z M14.8058083,19.9255596 C14.2849966,19.594923 13.773305,19.2480496 13.2368133,18.9454396 C13.1089183,18.873263 12.8913866,18.9243096 12.72857,18.9684613 C12.671185,18.9840313 12.5972283,19.1993396 12.6293683,19.2353713 C12.731795,19.3498096 12.8693666,19.457353 13.0139433,19.5041746 C13.2549416,19.5822446 13.5231883,19.580578 13.7594033,19.6681013 C14.0947116,19.7923263 14.4112233,19.967153 14.7357433,20.1202946 C14.7590983,20.0553463 14.7824533,19.990508 14.8058083,19.9255596 Z M16.0555083,15.8402613 C16.53239,16.1436496 17.0483066,16.4005513 17.4779233,16.760438 C18.2791016,17.431608 18.584715,17.658928 19.015665,17.539818 C18.07547,16.9043463 17.135275,16.2687646 16.1951916,15.633293 C16.1485933,15.7022446 16.101995,15.771308 16.0555083,15.8402613 Z M26.4619333,20.9472746 C26.9929766,19.8163496 27.5239066,18.685313 28.10455,17.4487346 C27.3915633,17.823633 26.55135,19.5358696 26.3275883,20.874763 C26.3724066,20.899008 26.4172266,20.9231413 26.4619333,20.9472746 Z M30.8699733,21.0524813 C31.46007,20.6971563 33.7110216,15.526083 33.4313216,14.8477963 C33.2723983,15.1942246 33.1577366,15.433443 33.052085,15.676778 C32.7599283,16.3496163 32.484565,17.0302396 32.1759483,17.6954046 C32.0264783,18.0177013 31.7903733,18.2997363 31.6414583,18.6222546 C31.4366033,19.0656613 31.279905,19.531198 31.097405,19.9850596 C30.9637266,20.3174746 30.8215966,20.646443 30.6832466,20.9768563 C30.7455266,21.002103 30.807695,21.0272363 30.8699733,21.0524813 Z M15.5448316,24.6056096 C14.7952566,24.138403 12.2212166,22.131248 11.7432233,21.7692496 C11.3911233,21.5025613 10.9284766,21.3768896 10.5074233,21.2072896 C9.67933165,20.873873 8.82666165,20.594618 8.02036665,20.2157146 C7.27357165,19.8647263 6.55835998,19.4380013 5.85960831,18.9964863 C5.41875998,18.717898 4.90350998,18.426853 5.00971831,17.7665813 C5.04030331,17.575963 5.20089498,17.4085863 5.28997498,17.2246396 C5.61271665,16.557473 5.92500165,15.8850796 6.25130165,15.2195813 C6.88721665,13.9223913 7.45827665,13.4009863 7.67803331,11.9527696 C7.75421331,11.4513096 8.29650165,10.4558363 8.57175331,10.0064246 C8.66962165,9.84672296 8.69698665,9.51835629 8.89894998,9.42182296 C8.94921831,9.08039962 8.94896831,8.63626962 9.36847331,8.50801296 C9.78797831,8.37975796 11.1400916,9.04652629 11.7012733,9.46791129 C12.5470483,10.1027163 13.3264466,9.96461962 14.0527833,10.7403646 C14.2239033,10.923123 16.35732,12.3017696 17.344395,13.180233 C17.9473216,13.7168163 18.50717,13.999678 19.1319633,14.4486446 C20.0445783,15.1043563 21.0126683,16.070813 21.9835583,16.622763 C22.6723,17.014233 23.6580316,17.6147763 23.70474,17.5955363 C23.9434033,17.0216763 24.164495,16.4396996 24.4255116,15.876183 C24.6928683,15.2985413 24.9990383,14.7388063 25.2884133,14.171398 C25.611155,13.5385963 25.9496866,12.9132446 26.2532983,12.2714346 C26.7078266,11.3112213 27.0954033,10.316643 27.5949716,9.38134129 C27.8843483,8.83951129 28.3737966,8.40811629 28.7065466,7.88474796 C29.0435216,7.35470629 29.2559383,6.74448129 29.6020333,6.22155629 C29.9224383,5.73711296 30.3274766,5.30171462 30.7409666,4.89067129 C30.8395016,4.79258129 31.1466716,4.81649129 31.312045,4.88911296 C31.9062566,5.14979629 32.4618766,5.50645629 33.067765,5.73110796 C33.8322433,6.01458962 34.485065,6.41295462 35.112195,6.94622129 C35.7473316,7.48615962 36.57042,7.79855796 37.25527,8.28856296 C38.012185,8.83028129 38.4041,9.10408796 37.8423633,10.002133 C37.4870383,10.5703196 37.2927483,11.2369313 36.9928066,11.8428196 C36.6238016,12.5883913 36.21743,13.315503 35.8343016,14.0541796 C35.77647,14.1656146 35.7543383,14.296068 35.7208633,14.4191813 C35.5808466,14.9344296 35.5057783,15.421878 35.1298783,15.903763 C34.6009483,16.5818296 34.3362616,17.4661946 33.960695,18.2633696 C33.6887783,18.8406763 33.383165,19.405973 33.1625183,20.002408 C32.9995916,20.442923 32.0371483,22.7927063 32.16382,22.870888 C32.6186816,23.151923 34.273115,23.8054763 34.34696,23.8765413 C35.0921983,24.5944213 36.2263983,25.069498 37.09208,25.5469346 C37.7491266,25.9096013 39.0502616,26.6092663 39.739895,26.8287996 C40.6870966,27.130188 44.0527216,29.2023946 43.9826566,29.596978 C43.888905,30.1257963 43.5748383,30.6024563 43.7723533,31.187993 C43.93528,31.6715463 43.47775,31.9655946 43.325945,32.3550613 C43.06982,33.012108 42.9027783,33.7036313 42.655775,34.364903 C42.506305,34.765048 42.2630816,35.129383 42.0866966,35.520963 C41.8433633,36.060903 41.5993616,36.602733 41.40118,37.159798 C41.24893,37.587523 41.2025533,38.0533946 41.0457433,38.4787846 C40.797405,39.151958 39.7927066,39.353698 39.24476,38.903063 C38.9075616,38.6260313 38.51498,38.415728 38.1439733,38.1807346 C37.25894,37.6201096 36.3913666,37.027788 35.4796433,36.5144296 C34.7168316,36.084813 33.8773966,35.790988 33.1165883,35.3583696 C32.5004683,35.007938 31.966645,34.5159313 31.3682083,34.130133 C30.300785,33.4422813 29.2117866,32.787458 28.132465,32.1176213 C28.0236983,32.0502263 27.92027,31.974268 27.8131716,31.9042046 C27.4094683,31.639628 27.0623733,31.713363 26.8836533,32.1492063 C26.49185,33.105193 26.1895733,34.1033313 25.7320433,35.0252863 C25.400295,35.6935663 25.2557166,36.4847346 24.6241383,36.9911996 C24.5588566,37.0435813 24.522935,37.144673 24.4952433,37.2301963 C24.1867383,38.1858496 23.8882416,39.144728 23.57262,40.0978246 C23.512675,40.278768 23.364095,40.4299063 23.3001483,40.610183 C23.0548116,41.303818 22.80614,41.9974546 22.6005066,42.703323 C22.4648266,43.169528 22.42201,43.661868 22.2993416,44.132633 C22.116285,44.8350546 21.483705,45.022448 20.863915,44.607513 C19.7324333,43.8499296 18.5925,43.1046913 17.4467833,42.369128 C17.20356,42.2130963 16.9168533,42.1264613 16.6556133,41.9967863 C15.919495,41.631118 15.1821516,41.2674513 14.4531516,40.887993 C13.9083183,40.6045113 13.7812016,40.186683 14.00285,39.596143 C14.4075533,38.517598 14.8091433,37.4377196 15.19483,36.3523913 C15.605095,35.1976663 15.9519683,34.018253 16.4082766,32.8824346 C16.7614883,32.003518 17.2487133,31.1790946 17.6590883,30.3221996 C17.7987733,30.0303763 17.89119,29.715198 17.9953966,29.4073613 C18.289,28.540343 18.5712983,27.1368446 18.9241783,26.0820996 C17.71329,25.4469613 16.7583883,25.3619696 15.5448316,24.6056096 Z" id="Fill-1" transform="translate(24.489685, 24.825603) rotate(17.000000) translate(-24.489685, -24.825603) "></path>
        </g>
    </g>
</svg>