
<svg width="281px" height="14px" viewBox="0 0 281 14" version="1.1" xmlns="http://www.w3.org/2000/svg" xmlns:xlink="http://www.w3.org/1999/xlink">
    <!-- Generator: Sketch 50 (54983) - http://www.bohemiancoding.com/sketch -->
    <desc>Created with Sketch.</desc>
    <defs>
        <path d="M4.3411177,0 C2.05309158,3.50688961 0.771434426,5.8619557 0.496146244,7.06519827 C-0.291932493,10.50977 9.02744794,11.2490234 11.5504392,11.2490234 C12.6869467,11.2490234 28.1446014,13.0521813 38.2277448,12.75 C47.7790882,12.4637562 45.5042722,12.8204501 70.667814,12.75 C83.7641724,12.7133343 105.772567,14.1127395 123.536171,13.9960938 C132.591973,13.9366283 151.085736,12.8109281 161.264954,12.75 C174.513025,12.6707031 192.044637,12.8384119 207.164301,12.75 C214.879718,12.7048842 233.622974,11.2876164 241.769044,11.2490234 C248.196167,11.2185742 259.010462,11.7188997 274.211929,12.75 C282.062079,6.58268229 283.103426,3.49902344 277.335968,3.49902344 C275.279746,3.49902344 272.159999,4.03769271 256.667369,3.49902344 C243.676727,3.04734673 218.222482,0 192.985968,0 C173.595937,0 135.146536,0.665364583 77.6377635,1.99609375 L38.2277448,0 L4.3411177,0 Z" id="path-1"></path>
    </defs>
    <g id="Design-mocks" stroke="none" stroke-width="1" fill="none" fill-rule="evenodd">
        <g id="game-result" transform="translate(-39.000000, -215.000000)">
            <g id="Group-8" transform="translate(39.000000, 215.000000)">
                <mask id="mask-2" fill="white">
                    <use xlink:href="#path-1"></use>
                </mask>
                <use id="Mask" fill="#FFFFFF" xlink:href="#path-1"></use>
            </g>
        </g>
    </g>
</svg>