
<svg width="16px" height="16px" viewBox="0 0 16 16" version="1.1" xmlns="http://www.w3.org/2000/svg" xmlns:xlink="http://www.w3.org/1999/xlink">
    <!-- Generator: Sketch 48 (47235) - http://www.bohemiancoding.com/sketch -->
    <desc>Created with Sketch.</desc>
    <defs></defs>
    <g id="Page-1" stroke="none" stroke-width="1" fill="none" fill-rule="evenodd">
        <g id="iPhone-8-Copy-14" transform="translate(-145.000000, -404.000000)" fill="#4285F4" fill-rule="nonzero">
            <g id="Group-4-Copy-2" transform="translate(108.000000, 387.000000)">
                <path d="M45,17 C40.5886452,17 37,20.5889032 37,25 C37,29.4110968 40.5886452,33 45,33 C49.4113548,33 53,29.4110968 53,25 C53,20.5889032 49.4113548,17 45,17 Z M45,29.1290323 C42.7233548,29.1290323 40.8709677,27.2766452 40.8709677,25 C40.8709677,24.7150968 41.1021935,24.483871 41.3870968,24.483871 C41.672,24.483871 41.9032258,24.7150968 41.9032258,25 C41.9032258,26.7076129 43.2923871,28.0967742 45,28.0967742 C46.7076129,28.0967742 48.0967742,26.7076129 48.0967742,25 C48.0967742,23.2923871 46.7076129,21.9032258 45,21.9032258 L44.4394839,21.9032258 L44.8487742,22.3125161 C45.0503226,22.5140645 45.0503226,22.8407742 44.8487742,23.0423226 C44.6495484,23.2415484 44.3223226,23.2459355 44.1189677,23.0423226 L42.8286452,21.752 C42.6270968,21.5504516 42.6270968,21.2237419 42.8286452,21.0221935 L44.1189677,19.731871 C44.3205161,19.5303226 44.6472258,19.5303226 44.8487742,19.731871 C45.0503226,19.9334194 45.0503226,20.260129 44.8487742,20.4616774 L44.4394839,20.8709677 L45,20.8709677 C47.2766452,20.8709677 49.1290323,22.7233548 49.1290323,25 C49.1290323,27.2766452 47.2766452,29.1290323 45,29.1290323 Z" id="Shape"></path>
            </g>
        </g>
    </g>
</svg>