<?xml version="1.0" encoding="UTF-8"?>
<svg width="14px" height="18px" viewBox="0 0 14 18" version="1.1" xmlns="http://www.w3.org/2000/svg" xmlns:xlink="http://www.w3.org/1999/xlink">
    <!-- Generator: Sketch 49.3 (51167) - http://www.bohemiancoding.com/sketch -->
    <title>ic_supervisor_account_24px</title>
    <desc>Created with Sketch.</desc>
    <defs></defs>
    <g id="Design-mocks" stroke="none" stroke-width="1" fill="none" fill-rule="evenodd">
        <g id="game-result" transform="translate(-262.000000, -263.000000)">
            <g id="Group-3" transform="translate(14.000000, 258.000000)">
                <g id="Group-2">
                    <g id="Group-4-Copy-2" fill="#285CB3">
                        <path d="M237.551518,29.2700442 C237.661819,29.3216994 237.772319,29.3735431 237.88262,29.4251983 C238.318836,28.4420526 238.754852,27.4590955 239.196055,26.4646384 C238.106612,26.065536 237.545734,26.2084361 237.55092,27.2232536 C237.554311,27.9055171 237.551518,28.5877806 237.551518,29.2700442 Z M327.226523,29.6152292 C325.340842,31.9853361 323.660802,35.275245 323.658807,36.4701017 C324.735884,35.6177907 326.812647,31.7362976 327.226523,29.6152292 Z M309.058236,35.7934938 C309.128645,35.9260253 309.199053,36.0585567 309.269662,36.1910881 C309.722433,35.9618446 310.417347,35.8370426 310.586687,35.4858249 C311.375347,33.8507678 312.05191,32.1644326 312.696959,30.4718761 C312.942692,29.8267516 312.489323,29.6076883 311.822533,29.6465239 C310.89525,31.7083963 309.976743,33.7510393 309.058236,35.7934938 Z M241.504789,26.315517 C238.977448,27.5458159 237.107125,31.9913688 238.047772,34.884249 C238.913023,31.7119782 240.644523,29.2954947 241.504789,26.315517 Z M311.560843,36.0187784 C313.001932,36.0148194 313.016692,36.0212292 313.314882,35.3832685 C313.871771,34.1923709 314.474734,33.0150468 314.925311,31.7885184 C315.117789,31.2646139 314.976173,30.6309893 314.989736,29.8493743 C315.045585,29.8128009 315.361727,29.6050489 315.858977,29.2789047 C314.383183,29.1542912 314.317561,29.1297833 314.046895,29.7815061 C313.210964,31.7936085 312.429884,33.8256943 311.560843,36.0187784 Z M306.924826,35.9260253 L307.483909,36.1252937 C309.264675,34.2657062 309.95181,31.9344349 310.60045,29.4702552 C309.205835,29.5535822 309.154375,29.5341644 308.883709,30.1762726 C308.203555,31.7898381 307.561099,33.4181083 306.938589,35.0525998 C306.839857,35.3118184 306.924826,35.6334381 306.924826,35.9260253 Z M334.214357,36.7591069 C336.032821,36.9193512 336.798144,36.5860431 336.988428,35.2396143 C337.157569,34.0402331 337.023732,32.8023933 337.023732,31.4075141 C335.765746,32.7382956 334.399255,35.416637 334.214357,36.7591069 Z M243.947957,26.6250712 C242.863501,26.23219 242.599816,26.910306 242.269912,27.388965 C240.304845,30.2411244 239.313736,33.3230929 239.961976,35.2115244 C241.622469,32.309595 242.642301,29.4399031 243.947957,26.6250712 Z M267.695303,35.8672062 C268.935935,36.2806364 269.242703,35.6051597 269.515761,34.9760596 C270.195118,33.4109444 270.829795,31.8284852 271.492795,30.2571488 C271.870371,29.3626088 272.268689,28.4759867 272.764344,27.3416459 C272.112513,27.4287433 271.627629,27.3729406 271.540466,27.5230047 C269.997654,30.1813627 268.792325,32.9737604 267.695303,35.8672062 Z M246.130434,26.444278 C245.263188,26.5102609 244.848314,27.0711158 244.554511,27.6719376 C243.667319,29.4855256 242.809049,31.3124987 241.991468,33.1547421 C241.721002,33.7640474 241.58537,34.43877 242.118722,35.0524113 C243.386681,34.218764 245.773004,29.0504153 246.130434,26.444278 Z M274.702085,27.3465474 C272.213041,29.8412678 271.400247,33.0359729 269.922258,35.9352629 C270.733656,36.389414 271.20737,36.194293 271.534283,35.4526449 C272.576654,33.0874395 273.657719,30.7376931 274.684732,28.3668321 C274.811787,28.0734908 274.702085,27.6887161 274.702085,27.3465474 Z M325.27143,36.3539717 C325.37076,36.5162897 325.470091,36.6782307 325.569421,36.8401717 C326.050914,36.6823782 326.797089,36.6569276 326.971017,36.3454882 C328.136853,34.2587308 329.180819,32.1110807 330.323917,29.8667184 C329.919614,29.7783013 329.679466,29.7000644 329.433733,29.6789498 C329.124572,29.6521796 328.810823,29.67254 328.637494,29.67254 C327.470461,31.988541 326.370846,34.1712563 325.27143,36.3539717 Z M265.341292,35.8832306 C265.957619,35.7567319 266.364515,35.7763383 266.429738,35.6445609 C267.731803,33.0163665 268.994377,30.370828 270.240395,27.779961 C269.360982,27.0626323 268.802098,27.3435311 268.475984,27.9724427 C267.211216,30.412303 266.19657,32.9434082 265.341292,35.8832306 Z M331.148877,36.7849345 C331.261372,36.9136955 331.373468,37.042645 331.485763,37.1712175 C331.956685,36.9365067 332.646413,36.8164178 332.862825,36.447856 C334.101862,34.3375333 335.228604,32.1680145 336.455474,29.9040459 C335.617349,29.8112927 334.831682,29.5228531 334.401649,30.2758126 C333.194525,32.3900942 331.884481,34.4678025 331.148877,36.7849345 Z M258.363431,27.3987682 C256.779331,27.1700902 256.59543,27.2786793 256.204092,28.416225 C255.554256,30.3042795 254.883875,32.1863012 254.234438,34.0743557 C254.121145,34.4037048 254.06789,34.7517176 253.984117,35.1023698 C255.084331,35.5448324 255.558444,35.0921895 255.858231,34.260239 C256.662647,32.0275651 257.485015,29.8005469 258.363431,27.3987682 Z M329.854391,36.8863597 C331.078469,34.4630894 332.222563,32.1978011 333.378825,29.9087589 C332.320298,29.5038123 331.70417,29.7125069 331.311237,30.433606 C330.255303,32.3723731 329.211336,34.3169844 328.18213,36.2685709 C328.113915,36.398086 328.20786,36.6039528 328.229202,36.7994508 C328.463167,36.8326308 328.652054,36.8754254 328.842338,36.8827778 C329.167455,36.8955973 329.493371,36.8863597 329.854391,36.8863597 Z M325.643819,29.6695237 C324.66368,29.3239616 323.865646,29.1955777 323.431424,30.0550525 C322.389652,32.1169249 321.427663,34.2146165 320.423189,36.319095 C321.98515,36.5947152 321.994524,36.5996167 322.513316,35.6881097 C323.323318,34.2647636 324.135912,32.8423601 324.912205,31.4026125 C325.199226,30.8694704 325.386318,30.2882551 325.643819,29.6695237 Z M259.66071,35.2946629 C261.135507,35.2761877 261.18218,35.2969251 261.509691,34.6337024 C262.293165,33.0476613 263.065269,31.4546448 263.766167,29.8350466 C264.074929,29.1212998 264.199192,28.3361029 264.419793,27.5371439 C262.979901,27.5116933 262.978505,27.5079228 262.6488,28.1965961 C261.884474,29.7920634 261.074872,31.3690555 260.352432,32.9813013 C260.048856,33.6586632 259.919807,34.4057785 259.66071,35.2946629 Z M318.712432,29.5249268 C317.64114,29.1088573 316.973353,29.2214053 316.562867,30.229436 C315.897473,31.8635504 315.136538,33.4625996 314.448406,35.0887961 C314.289038,35.4654644 314.261314,35.8919027 314.178738,36.2691365 C315.261997,36.7892705 315.883311,36.6048954 316.30357,35.5996925 C316.960388,34.0285447 317.750842,32.5079209 318.431993,30.945068 C318.620681,30.512597 318.622875,30.0073563 318.712432,29.5249268 Z M262.339838,35.2022868 C264.118411,35.5657585 264.195601,35.5962991 264.770441,34.3035992 C265.740209,32.1240887 266.601272,29.901218 267.516787,27.6749539 C265.770128,27.388965 265.749384,27.3808586 265.263104,28.4810768 C264.274986,30.7171441 263.312,32.9630146 262.339838,35.2022868 Z M282.672252,36.8224505 C283.098296,36.5151586 283.747933,36.2900625 283.913483,35.8873781 C284.918755,33.4426162 285.831876,30.9631662 286.715678,28.4761752 C286.797855,28.2448579 286.459972,27.8800666 286.317159,27.5772992 C286.005007,27.7533793 285.561012,27.8600832 285.407229,28.1198674 C285.055783,28.7140908 284.823414,29.3756169 284.583066,30.0231922 C283.789221,32.1612277 282.428314,34.127142 282.672252,36.8224505 Z M296.739072,28.6190754 C295.715451,31.2668762 294.257607,33.6043687 293.712088,36.4363561 C294.807315,36.1545147 295.745968,36.3556684 296.13212,35.3091791 C296.889065,33.257864 297.740155,31.2378437 298.533003,29.198217 C298.587854,29.0573906 298.483537,28.861327 298.440454,28.6190754 L296.739072,28.6190754 Z M290.298154,36.3486931 C292.394265,36.5424944 292.400249,36.5449452 293.009595,35.2132211 C293.352065,34.4649746 293.706304,33.7188019 293.994322,32.9511377 C294.559388,31.4455957 295.08197,29.925726 295.622104,28.4117005 C295.50562,28.304054 295.388937,28.1965961 295.272453,28.0887612 C294.801531,28.2789805 294.065728,28.3506191 293.901773,28.678083 C292.665329,31.1458447 291.541579,33.6639418 290.298154,36.3486931 Z M249.551947,35.0818208 C250.594318,32.3957499 251.580242,29.8552185 252.569357,27.3065806 C251.229793,26.7617501 250.599903,27.1502953 250.190614,28.1285394 C249.442245,29.9172425 248.638626,31.6850195 247.877891,33.4690094 C247.691995,33.9050623 247.583091,34.3705248 247.394004,34.962863 C248.139182,35.0039609 248.71083,35.0356327 249.551947,35.0818208 Z M279.153204,36.601502 C280.158874,36.9921209 280.535851,36.6893535 280.817686,36.0760893 C281.635067,34.2968124 282.54061,32.5522237 283.306132,30.753906 C283.73417,29.7481376 283.952777,28.6626241 284.265727,27.6131185 C284.139071,27.517349 284.012614,27.4213909 283.885958,27.3258099 C283.436378,27.558824 282.843587,27.692298 282.568534,28.0465321 C282.068092,28.6909025 281.697498,29.4436735 281.378564,30.1917315 C280.736506,31.6982161 280.141122,33.2237414 279.577652,34.7581274 C279.366624,35.3325559 279.297612,35.9535496 279.153204,36.601502 Z M316.865645,36.747607 C317.881488,36.6409032 318.517761,36.5737891 319.118331,36.510634 C319.758393,35.3423591 320.410224,34.2623128 320.950957,33.1347587 C321.482115,32.0268111 321.900779,30.8706016 322.448093,29.543025 C321.484309,29.4713864 320.851427,29.4242557 320.117618,29.3697727 C319.058892,31.7719284 318.026893,34.1131914 316.865645,36.747607 Z M303.141495,36.1580967 C304.024698,36.1049333 304.773266,36.0600649 305.615181,36.0095408 C306.436751,33.7369001 307.230397,31.5415537 308.09126,29.1597584 L305.897215,29.1597584 C305.052109,31.1264268 304.207003,33.0744315 303.383039,35.0305426 C303.266156,35.3078595 303.251995,35.6238234 303.141495,36.1580967 Z M252.812896,35.1182057 C253.856464,32.5137651 255.184659,30.0886096 255.549469,27.3062036 C254.656293,26.918224 253.908124,26.8539377 253.513594,27.7695923 C252.511714,30.0952079 251.561493,32.4406183 250.514135,34.9622974 C251.45558,35.0262066 252.080085,35.0686242 252.812896,35.1182057 Z M261.837402,27.526021 C260.847888,27.3755799 260.22438,27.2805645 259.455666,27.1636805 C258.456179,29.842776 257.498179,32.4110202 256.453814,35.2105818 C257.315874,35.2920236 257.919237,35.3489574 258.394347,35.3938258 C259.044582,33.9844304 259.618624,32.7901393 260.148386,31.5785042 C260.700887,30.3150253 261.210902,29.0349564 261.837402,27.526021 Z M246.520176,34.6174895 C247.555965,32.0196472 248.546676,29.5345415 249.547758,27.0237966 C247.471394,26.6414727 247.478973,26.644489 246.825746,28.0576549 C246.03589,29.7660473 245.224094,31.4653906 244.438227,33.1752911 C244.213636,33.6643189 244.04649,34.176912 243.778617,34.871618 C244.797252,34.7771682 245.557588,34.7068492 246.520176,34.6174895 Z M281.23236,27.4206368 C280.18999,26.9657317 279.743801,27.2424829 279.428855,27.9456725 C278.35138,30.3506561 277.237005,32.7409349 276.154941,35.1440333 C275.988593,35.5131606 275.918184,35.9209352 275.778762,36.3950697 C276.563233,36.4996997 277.18694,36.5828382 277.802669,36.6650341 C279.258518,33.6335897 280.506131,30.6473907 281.23236,27.4206368 Z M278.381099,27.4355301 C277.354885,27.0260589 276.717415,27.068288 276.325479,27.8738453 C275.088436,30.4145652 273.84162,32.9515147 272.626917,35.5020378 C272.508439,35.7508877 272.585629,36.0828761 272.569074,36.4316431 C273.892682,36.7059435 274.661994,36.3042017 275.117358,35.1913525 C276.159928,32.6440342 277.250368,30.1142486 278.381099,27.4355301 Z M299.913057,28.5704366 C298.892627,31.0617635 297.92266,33.4296082 296.954886,35.7923627 C297.870402,36.2570711 298.491516,36.1667687 298.864902,35.357818 C299.445726,34.0988636 299.999224,32.828975 300.582441,31.5713403 C300.933687,30.8136677 301.122575,29.9453323 301.926792,29.4086083 C302.101518,29.6288028 302.26268,29.7536048 302.239144,29.8133665 C301.465643,31.7792808 300.674391,33.7389739 299.829883,35.8381737 C300.495477,35.9137713 301.061141,35.9780575 301.796944,36.0617616 C302.739386,33.7508508 304.266242,31.6878473 304.617489,28.994424 C302.962979,28.8453026 301.475217,28.711263 299.913057,28.5704366 Z M289.35272,36.6152641 C290.244101,33.640188 292.140753,31.136607 292.720579,27.9952539 L290.572011,27.9952539 C289.983608,29.4811895 289.514481,30.9252731 288.844898,32.2809396 C288.216205,33.5540331 288.112287,35.1018042 286.780901,36.05686 C287.204351,33.2288315 288.704679,30.720349 289.53323,27.6887161 C288.863648,27.9147547 288.4023,27.9334185 288.246323,28.1494655 C287.839228,28.7133367 287.500747,29.3409287 287.251224,29.9832254 C286.437233,32.0780892 285.675102,34.1906742 284.885445,36.3170213 C286.314766,37.192709 287.756652,36.7589184 289.35272,36.6152641 Z M306.055984,27.2160898 C306.225325,27.3239247 306.63601,27.8050346 307.05966,27.8154033 C308.629001,27.8538619 310.1768,28.507847 311.784037,27.912681 C312.308614,27.7185027 312.966827,27.7952314 313.559618,27.8252065 C316.254504,27.9620739 318.945599,28.1784979 321.641682,28.2684233 C325.68052,28.4024629 329.722549,28.4507247 333.762783,28.5464942 C334.288356,28.5591252 334.818916,28.6009772 335.335315,28.690714 C336.885906,28.9599244 338.264963,28.3166851 338.897446,26.9363221 C340.502689,23.432817 342.065647,19.9119677 343.681861,16.4131757 C345.138507,13.2599456 346.664964,10.1355595 348.113432,6.97893607 C348.517536,6.09834672 348.754094,5.14894659 349.099955,4.13601433 C347.713119,3.94824575 346.610911,3.696568 345.50212,3.66923221 C342.88263,3.60475746 340.267927,3.76877218 337.637267,3.71542027 C332.067584,3.60230667 326.488527,3.9951879 320.913458,3.99481085 C317.739274,3.99443381 314.567283,3.50031591 311.390505,3.45299672 C304.820737,3.35496494 298.248376,3.40756276 291.677211,3.39757106 C290.086728,3.39493174 288.495048,3.4245298 286.906161,3.37758766 C282.40039,3.24467918 277.894021,3.11026252 273.390844,2.91589566 C270.683193,2.79901161 267.926076,2.82615887 265.291028,2.32242632 C262.202411,1.73178482 259.090857,1.85055409 256.005431,1.5070658 C255.352802,1.4346731 254.674444,1.4887791 254.016031,1.55645874 C251.845721,1.77966957 249.66883,1.97479053 247.514677,2.30055769 C246.077378,2.51811284 244.870852,2.96000996 244.167761,4.51060886 C243.358358,6.29591847 242.617568,8.06784297 242.037543,9.93666812 C240.864327,13.7152278 239.478688,17.4345914 238.226487,21.1918481 C237.855892,22.3035662 237.639081,23.4610954 237.305187,24.7826392 C238.396425,24.9187526 239.293989,25.0795624 240.198733,25.1344225 C243.305501,25.321814 246.414263,25.4830009 249.523424,25.6308027 C250.767248,25.6899988 252.014463,25.6920726 253.260282,25.7122445 C254.505502,25.7322279 255.779644,25.5883851 256.989759,25.7904814 C259.284132,26.173748 261.558359,26.3552953 263.871681,26.0478148 C264.261223,25.9961596 264.666922,26.0534705 265.065241,26.0591262 C267.71465,26.0960766 270.364059,26.1643218 273.013468,26.1609284 C275.858346,26.1569694 278.710206,25.9458241 281.546308,26.0755277 C286.173749,26.2870501 290.792014,26.6880378 295.411874,27.035485 C298.183352,27.2441796 300.947649,27.5452503 303.721321,27.7102077 C304.409653,27.7511171 305.122518,27.4253499 306.055984,27.2160898 Z M298.44205,37.8227518 C298.21347,37.691163 297.843674,37.2977162 297.474875,37.2984703 C296.112174,37.300921 294.739898,37.3648302 293.388766,37.5314843 C290.60931,37.874407 287.843816,38.0297497 285.032247,37.8334976 C283.062194,37.6960645 281.062222,37.9971352 279.080601,37.9409555 C276.179674,37.8587596 273.279745,37.6723107 270.385999,37.4536244 C268.107783,37.2813147 265.83934,36.9941947 263.567107,36.7532627 C263.371239,36.7325252 263.139468,36.5883054 262.992068,36.6490097 C260.683933,37.5980328 258.375399,36.3715043 255.996256,36.6948207 C253.679544,37.0096535 251.216629,36.4855605 248.835093,36.2012684 C247.687408,36.0642124 247.021615,36.6150756 246.259284,37.4994354 C246.012354,36.9334904 245.853585,36.5692646 245.697808,36.2122027 C245.557788,36.1716703 245.436717,36.1219003 245.310459,36.1024825 C244.08698,35.9149024 243.025262,36.8115162 241.623267,36.2964723 C240.476579,35.8753127 238.990812,36.1424493 237.680967,36.2970379 C236.633011,36.4208973 236.360152,36.0299013 236.359953,35.1896558 C236.359554,32.9920471 236.392464,30.7936843 236.338611,28.5972068 C236.317667,27.7396172 235.988162,26.885044 236.000329,26.0314133 C236.016285,24.9189411 236.112624,23.7812069 236.39027,22.7039884 C236.81392,21.061956 237.39634,19.4544232 237.958414,17.8468905 C238.91402,15.1142545 240.039765,12.4274295 240.834209,9.65482674 C241.337044,7.89986927 242.06427,6.23200928 242.602609,4.50910067 C243.288547,2.31450836 244.760951,1.24709305 246.999076,1.13831547 C250.889916,0.949227245 254.711144,-0.235260641 258.654441,0.393085392 C261.000274,0.766925831 263.377422,0.754483335 265.742802,1.16150376 C268.706159,1.67145756 271.803751,1.72348982 274.82894,1.61565486 C278.888921,1.47086945 282.899635,1.76006321 286.921519,2.13616593 C288.041679,2.24098453 289.174005,2.26454986 290.300747,2.26605804 C298.401759,2.27661531 306.502971,2.23872225 314.603585,2.29000042 C317.584095,2.30885268 320.562012,2.59257929 323.543121,2.63480837 C326.189737,2.67194733 328.839346,2.55619442 331.48696,2.48040831 C333.143065,2.43308912 334.799569,2.24664021 336.452682,2.2773694 C340.553551,2.3539096 344.653623,2.49435898 348.751899,2.66025893 C350.480408,2.73020083 350.18122,2.86141261 350.623619,4.47233875 C351.026326,5.93829098 351.201451,7.37558775 351.320927,8.8534169 C351.431227,10.2158702 351.370592,11.6354458 351.771903,12.922113 C352.538223,15.3793174 351.232367,17.2357 349.949449,18.9970673 C348.060576,21.590762 346.697077,24.4252003 345.248608,27.2196717 C343.212335,31.1479184 341.33144,35.1483693 339.380735,39.1163943 C339.242111,39.3986127 339.075762,39.6685772 338.891263,40 C337.85707,39.1376973 337.266872,38.0704706 335.979765,38.7576357 C335.90058,38.8000533 335.688556,38.7404801 335.619743,38.6633743 C334.457298,37.3593631 333.562127,38.2280755 332.583783,39.0319361 C331.224672,37.7573344 329.431938,38.4839008 327.832479,38.1811334 C327.602902,38.1375846 327.252852,38.4428028 327.085107,38.3594758 C325.016123,37.3303306 322.761443,38.2293952 320.644389,37.7733588 C320.454305,37.7326379 320.242878,37.7324494 320.049404,37.7611049 C315.792557,38.3951066 311.638433,37.0222846 307.397344,37.1940287 C305.090206,37.2875359 302.771699,37.1022182 300.459973,37.138226 C299.872368,37.1474636 299.291345,37.5220581 298.44205,37.8227518 Z" id="Fill-4-Copy-2"></path>
                    </g>
                    <g id="Group-4-Copy" transform="translate(149.000000, 5.000000)" fill="#174EA6">
                        <g id="ic_supervisor_account_24px" transform="translate(99.000000, 0.000000)">
                            <path d="M10.2583638,1.33198455 C10.2217639,1.32452599 10.1878007,1.31035011 10.1558052,1.31502908 C10.1448252,1.31660418 10.1388433,1.36529325 10.1305394,1.39244053 C10.1628497,1.40513397 10.1947665,1.42185781 10.2279032,1.42667576 C10.2334523,1.42746331 10.2443929,1.37664322 10.2583638,1.33198455 M9.14800715,4.26187768 C9.17988455,4.21269674 9.21817678,4.17655171 9.21109292,4.15980254 C9.19405228,4.11966773 9.15572069,4.08857906 9.12600781,4.05385613 C9.09853815,4.08458928 9.04505496,4.12037878 9.04973818,4.1449495 C9.05701882,4.18291166 9.10408718,4.21317077 9.14800715,4.26187768 M5.10516591,11.9125359 C5.08733817,11.9345785 5.0695498,11.956542 5.05176142,11.9785845 L5.19198262,12.0664387 C5.20382842,12.0497685 5.21571358,12.0330983 5.22755937,12.0163887 C5.18678779,11.9817843 5.14597685,11.9471403 5.10516591,11.9125359 M4.83015447,11.6119989 C4.80803707,11.635266 4.77698612,11.6615354 4.77981966,11.6659202 C4.79870998,11.6953892 4.82480222,11.7202365 4.84853317,11.7465453 L4.91043829,11.6794301 C4.88355895,11.6568345 4.85667961,11.6342389 4.83015447,11.6119989 M8.5090424,14.7023642 C8.41628311,14.5644854 8.41628311,14.5644854 8.27814772,14.6418883 C8.37484249,14.6671992 8.44194245,14.6847618 8.5090424,14.7023642 M10.6822152,16.1889471 C10.6281417,16.2815811 10.594454,16.3190692 10.5864649,16.3614557 C10.5824507,16.3825501 10.6255049,16.4126117 10.6473075,16.4386046 C10.681861,16.3989043 10.7260171,16.3635493 10.7465603,16.3175681 C10.7556906,16.2971452 10.7170836,16.2552722 10.6822152,16.1889471 M11.6301939,16.5349913 C11.8522338,16.4447275 11.8522338,16.4447275 11.7397577,16.2992388 C11.7099661,16.3632728 11.6843855,16.4183396 11.6301939,16.5349913 M12.2355497,4.57726775 L12.1969426,4.48617437 L11.9885982,4.57031526 C12.0047337,4.60179896 12.030275,4.66208018 12.0355091,4.66030255 C12.1039078,4.63774648 12.1693942,4.60638128 12.2355497,4.57726775 M9.42652116,2.27133342 C9.46894565,2.17621077 9.5114095,2.08112762 9.58539654,1.91541352 C9.37260507,2.01120773 9.27953094,2.08168066 9.42652116,2.27133342 M12.9475963,4.08158707 C12.9141054,4.07139535 12.8806538,4.06124314 12.8471235,4.05105143 C12.72717,4.1407227 12.7108771,4.26132464 12.840197,4.42565614 C12.8760099,4.31097962 12.9118228,4.19626359 12.9475963,4.08158707 M11.2685232,1.54270495 C11.0826504,1.52153147 10.982886,1.51019418 10.8682847,1.49711876 C10.9395563,1.78971573 10.9395563,1.78971573 11.2685232,1.54270495 M10.2493516,14.3611542 C10.3998444,14.1057293 10.3998444,14.1057293 10.2433303,13.8832498 C10.2480529,14.0601432 10.1349472,14.1984818 10.2493516,14.3611542 M10.573163,15.5924159 C10.8805241,15.3503824 10.8887492,15.2791984 10.6920145,14.9641639 C10.6539584,15.1654305 10.6218843,15.3347393 10.573163,15.5924159 M2.72774164,8.36364714 C2.77134678,7.9886079 2.6493075,7.86535928 2.23498003,7.84007751 C2.39649218,8.01171702 2.54466305,8.16913553 2.72774164,8.36364714 M11.6042197,13.2002075 L11.6909184,13.1602702 C11.6698242,13.0847804 11.6699816,12.9624799 11.6241333,12.9415434 C11.3767096,12.828447 11.1288923,12.6700804 10.8144474,12.8588246 C11.0776917,12.9726321 11.3409754,13.0864395 11.6042197,13.2002075 M0.00218470257,8.74137256 C-0.0231991519,8.06919354 0.176644589,7.43936147 0.392072836,6.82130124 C0.666533303,6.03385315 1.55217402,5.74504844 2.18436974,5.85853988 C2.50337985,5.91581889 2.81514868,6.02520204 3.13561493,6.05854237 C3.31849674,6.0775037 3.54537724,6.04139817 3.6951223,5.94256226 C4.17363748,5.62685617 4.61476558,5.25438462 5.09056527,4.93413571 C5.5233895,4.64276333 5.98262082,4.39097271 6.43028182,4.12176138 C6.63236878,4.00025088 6.83602994,3.88126855 7.03622788,3.75663733 C7.32481672,3.57701827 7.60958815,3.39123677 7.89849183,3.21205224 C8.12749749,3.0699608 8.22612065,2.86328234 8.27822643,2.60007542 C8.36205218,2.1766453 8.47838501,1.75886407 8.5989288,1.34392704 C8.67563133,1.07981157 8.86894217,0.911450788 9.10821943,0.775126751 C9.29826383,0.666849676 9.47823339,0.526101329 9.63014297,0.368287788 C9.92829503,0.0585071164 10.2464393,-0.0908133299 10.6834745,0.0581515915 C10.8757228,0.123686676 11.0954407,0.114680046 11.3034309,0.125661814 C11.8076841,0.152365683 12.2421613,0.280236128 12.5006043,0.779590563 C12.6847849,1.13558947 12.9198905,1.464766 13.1224104,1.81163976 C13.1667633,1.88756408 13.1740439,1.98722955 13.1898252,2.07749336 C13.2056852,2.16795469 13.188251,2.27062237 13.2242606,2.35029945 C13.4830185,2.92229946 13.323907,3.48920363 13.1876607,4.04473099 C13.0987188,4.40732686 12.9282731,4.74977631 12.7932861,5.10083737 C12.7841558,5.12453903 12.7713261,5.15254649 12.751688,5.16566141 C12.4479082,5.36819208 12.162822,5.61536087 11.8329893,5.75828187 C11.3638406,5.96156309 10.8753686,5.79683657 10.4108638,5.67188932 C10.1633613,5.60528766 9.93223051,5.4643023 9.70601905,5.33516777 C9.48862306,5.21108959 9.29665028,5.21263019 9.08173365,5.34263379 C8.51384369,5.68607082 7.93241568,6.00726779 7.36842185,6.35682774 C7.09215107,6.52803272 6.86334218,6.78432665 6.57644559,6.92882776 C5.99938597,7.21941009 5.53657337,7.67155872 4.98599953,7.99552088 C4.90725055,8.04185763 4.83806479,8.10427199 4.7601029,8.15214934 C4.53046757,8.29317421 4.44184053,8.48780432 4.5495153,8.7390419 C4.66757974,9.01445517 4.72220422,9.29144855 4.66667458,9.5823864 C4.63456105,9.75086569 4.74239324,9.82722453 4.84097704,9.90563751 C5.25908258,10.2382903 5.67860489,10.569521 6.10599816,10.8900069 C6.39812894,11.1090497 6.71595841,11.2946337 7.00025758,11.5228412 C7.24327355,11.7178663 7.45437277,11.9528287 7.68038746,12.1692249 C7.87767314,12.3581666 8.07680849,12.5450937 8.27366127,12.7344699 C8.39672377,12.8528202 8.51223014,12.8690163 8.65111328,12.7479009 C9.25678385,12.2196304 9.97087694,12.0828718 10.7445926,12.1894108 C11.0299543,12.228716 11.3159457,12.2743812 11.595601,12.342168 C12.1810826,12.4841014 12.590412,12.83536 12.821897,13.4026987 C12.9398434,13.6918194 13.1278807,13.9545918 13.2266219,14.2487689 C13.4313063,14.858889 13.610961,15.480465 13.2202858,16.0969056 C13.1664091,16.1818366 13.1614504,16.2965526 13.1226465,16.3928999 C13.0321698,16.6175916 13.0063137,16.8826946 12.727721,16.9901026 C12.6666423,17.0136463 12.6248868,17.1033966 12.587421,17.1701562 C12.4073728,17.4906817 12.1163046,17.6924618 11.8266532,17.89598 C11.7953267,17.9179831 11.7569951,17.939117 11.720159,17.9427118 C11.1228317,18.0015314 10.5245992,18.0685281 9.94269889,17.8444684 C9.93042019,17.8397281 9.91881052,17.8328546 9.90625634,17.8296549 C8.65264812,17.5088529 8.16441231,16.5575079 7.94103439,15.401736 C7.8982557,15.1804415 7.81930995,15.0181247 7.64650296,14.872241 C7.28750836,14.5692548 6.9554718,14.2341923 6.59753977,13.9299025 C6.28923417,13.6677622 5.96455696,13.4243462 5.63956491,13.1828658 C5.19902713,12.8556249 4.76624225,12.5263299 4.39020701,12.1171207 C4.06430981,11.7624649 3.68091522,11.4604663 3.31574191,11.1435356 C3.26493484,11.0994505 3.17162458,11.0840445 3.10011688,11.0887848 C2.93112732,11.0999246 2.75902872,11.1143826 2.59625721,11.1578356 C2.24060777,11.2527608 1.87342736,11.1942572 1.55059983,11.1089312 C1.14064074,11.0006541 0.762952596,10.8087497 0.466138595,10.4078361 C0.0790052978,9.88493807 0.0198550137,9.33395352 0.00218470257,8.74137256" id="Fill-4"></path>
                        </g>
                    </g>
                </g>
            </g>
            <g id="Group-2" transform="translate(46.000000, 81.000000)"></g>
        </g>
    </g>
</svg>